<?xml version="1.0" encoding="UTF-8"?>
<svg version="1.1" xmlns="http://www.w3.org/2000/svg" width="732" height="900">
<path d="M0 0 C1.2068042 0.32991943 1.2068042 0.32991943 2.43798828 0.66650391 C33.36268491 9.37098515 60.96864022 26.94339265 84 49 C84.49886719 49.47163574 84.99773438 49.94327148 85.51171875 50.42919922 C93.51306033 58.0217319 100.37901329 66.18716006 107 75 C107.59683594 75.7940625 108.19367187 76.588125 108.80859375 77.40625 C109.39833984 78.19515625 109.39833984 78.19515625 110 79 C108.64096624 82.20166841 107.32300876 83.7795539 104.4375 85.69921875 C103.72779053 86.18173096 103.01808105 86.66424316 102.28686523 87.16137695 C101.53219971 87.66499756 100.77753418 88.16861816 100 88.6875 C93.18174171 93.36126579 87.00904068 98.31129421 81 104 C79.65103627 105.1726787 78.29704589 106.33960634 76.9375 107.5 C43.96377956 136.36855845 23.50128597 177.22391674 16 220 C15.773125 221.28132812 15.54625 222.56265625 15.3125 223.8828125 C8.32341075 271.93280108 19.18432971 324.89889831 48.27612305 364.26733398 C52.94542723 370.37564726 57.94259306 376.21250124 63 382 C63.72316406 382.84691406 64.44632813 383.69382812 65.19140625 384.56640625 C69.46606217 389.51028423 73.98891462 393.81530414 79 398 C79.83789062 398.73734375 80.67578125 399.4746875 81.5390625 400.234375 C96.99690867 413.60562486 114.70690911 423.99726816 133 433 C132.46298815 440.3481122 130.24833039 446.78533299 127.75 453.6875 C127.31107422 454.90630859 126.87214844 456.12511719 126.41992188 457.38085938 C111.40819449 498.47070249 90.11975167 537.41322196 64.55175781 572.84667969 C62.94066791 575.08233307 61.34083423 577.3257479 59.7421875 579.5703125 C46.58297949 597.99281456 32.50336223 615.49488206 17 632 C16.34773437 632.70640625 15.69546875 633.4128125 15.0234375 634.140625 C-3.60801543 653.64418849 -30.71828059 670.66086668 -58.20947266 672.17700195 C-88.48279784 672.71400581 -112.33478539 667.00859642 -140.125 654.9375 C-189.13918438 633.65433545 -237.54207475 633.13255038 -287.3359375 652.71875 C-291.47954339 654.37441842 -295.60468521 656.07226434 -299.7265625 657.78125 C-333.84675157 671.9175046 -367.34311835 680.63766842 -403 666 C-416.47722711 660.02605181 -427.7105065 651.36004567 -438.46875 641.34375 C-440.68482777 639.29182614 -442.94505634 637.32533694 -445.25 635.375 C-448.50783052 632.53923659 -451.32259534 629.4943974 -454.109375 626.19921875 C-456.21327602 623.7519124 -458.41714264 621.41636083 -460.625 619.0625 C-466.64139577 612.46357877 -471.95457616 605.37020336 -477.31347656 598.23486328 C-478.98497233 596.01991362 -480.67256729 593.81838893 -482.3671875 591.62109375 C-488.66160602 583.4589992 -494.80493071 575.22049683 -500.72998047 566.78662109 C-502.0408192 564.94257691 -503.37877828 563.12086254 -504.72265625 561.30078125 C-520.10614581 540.28726523 -532.38778269 517.25107688 -544 494 C-544.63494385 492.74195557 -544.63494385 492.74195557 -545.28271484 491.45849609 C-571.230328 439.81307937 -588.0576396 381.38176382 -595.578125 324.18603516 C-595.85566362 322.09004039 -596.1469618 319.99581381 -596.453125 317.90380859 C-599.14341092 299.24864706 -599.31573163 280.62870992 -599.375 261.8125 C-599.38285522 260.59135498 -599.39071045 259.37020996 -599.39880371 258.11206055 C-599.72443765 192.98964353 -582.70027804 124.66920248 -540 74 C-539.51144531 73.41138184 -539.02289062 72.82276367 -538.51953125 72.21630859 C-528.92035166 60.65842751 -518.79486171 50.35748422 -507 41 C-505.81664062 40.01580078 -505.81664062 40.01580078 -504.609375 39.01171875 C-473.605225 13.39736304 -435.6121033 -1.04848709 -396 -6 C-395.01 -6.13277344 -394.02 -6.26554688 -393 -6.40234375 C-353.15134224 -10.94758128 -315.94184279 2.18672843 -279.59802246 16.96066284 C-271.54893201 20.23153473 -263.49058128 23.36788636 -255.25 26.125 C-254.04633789 26.53141724 -254.04633789 26.53141724 -252.81835938 26.94604492 C-220.22845894 37.55020146 -191.02666114 23.41027654 -160.8125 11.375 C-149.02524615 6.69273536 -137.19346916 2.49515089 -125 -1 C-124.16597656 -1.23944336 -123.33195312 -1.47888672 -122.47265625 -1.72558594 C-82.05020243 -13.0924304 -40.25805583 -11.12532534 0 0 Z " fill="#000000" transform="translate(599,226)"/>
<path d="M0 0 C10.82801939 32.48405816 -6.13259913 76.75349578 -20.19140625 105.53515625 C-29.4512054 123.94676855 -41.98998419 139.96018816 -56 155 C-56.72316406 155.78890625 -57.44632812 156.5778125 -58.19140625 157.390625 C-84.5400884 185.03222048 -125.08643435 206.62689398 -163.625 208.24609375 C-165.14564902 208.27850602 -166.66654951 208.30094137 -168.1875 208.3125 C-168.88254639 208.31813965 -169.57759277 208.3237793 -170.29370117 208.32958984 C-174.54537571 208.26832503 -178.04552995 207.54365783 -182 206 C-188.88588799 164.85126611 -171.82322725 119.91692584 -148.55859375 86.55078125 C-130.14250192 60.75692407 -107.75342107 39.48979539 -80 24 C-79.32855957 23.62246582 -78.65711914 23.24493164 -77.96533203 22.85595703 C-54.22285054 9.6039518 -27.57636904 -0.88009688 0 0 Z " fill="#000000" transform="translate(545,0)"/>
</svg>
