<?xml version="1.0" encoding="UTF-8"?>
<svg version="1.1" xmlns="http://www.w3.org/2000/svg" width="1280" height="452">
<path d="M0 0 C0.86011688 -0.00705963 1.72023376 -0.01411926 2.60641479 -0.02139282 C38.45939088 -0.2488448 38.45939088 -0.2488448 54.70703125 3.203125 C55.6933252 3.40711914 56.67961914 3.61111328 57.69580078 3.82128906 C87.18126136 10.05885994 118.71425309 20.5974479 142.58203125 39.70410156 C144.57436191 41.34970589 144.57436191 41.34970589 147.70703125 43.203125 C150.37140038 42.91576017 150.37140038 42.91576017 152.70703125 41.203125 C153.66996094 40.605 154.63289063 40.006875 155.625 39.390625 C156.70394531 38.66875 157.78289062 37.946875 158.89453125 37.203125 C184.66119432 20.36192098 212.57852221 9.34860204 242.70703125 3.203125 C243.89401611 2.95320801 243.89401611 2.95320801 245.10498047 2.69824219 C271.35983969 -2.57565966 302.52727897 -2.33327331 328.70703125 3.203125 C329.68269043 3.40180176 330.65834961 3.60047852 331.66357422 3.80517578 C362.03772983 10.12424976 393.93147286 21.62338509 418.47265625 41.1875 C421.41845741 43.50391608 421.41845741 43.50391608 424.08984375 42.8671875 C425.38535156 42.04347656 425.38535156 42.04347656 426.70703125 41.203125 C427.3422168 40.81350586 427.97740234 40.42388672 428.63183594 40.02246094 C430.97059116 38.57337028 433.27547373 37.07788285 435.58203125 35.578125 C450.07378089 26.32836577 464.58447028 19.20660001 480.70703125 13.203125 C481.37202637 12.95433594 482.03702148 12.70554687 482.72216797 12.44921875 C493.78568337 8.37425912 505.17414317 5.58249319 516.70703125 3.203125 C517.90054199 2.95103271 517.90054199 2.95103271 519.11816406 2.69384766 C547.3491851 -2.97467821 579.66473721 -1.85434243 607.70703125 4.203125 C608.70138184 4.41743164 609.69573242 4.63173828 610.72021484 4.85253906 C639.15104125 11.21371077 669.49276932 22.86203447 692.48046875 41.19140625 C695.42037408 43.50398596 695.42037408 43.50398596 698.09375 42.8671875 C698.95613281 42.31804688 699.81851563 41.76890625 700.70703125 41.203125 C701.33689941 40.81350586 701.96676758 40.42388672 702.61572266 40.02246094 C704.93758116 38.57123417 707.22740901 37.07582897 709.51953125 35.578125 C717.99511072 30.14713968 726.54623012 25.36810898 735.70703125 21.203125 C736.42793945 20.8736084 737.14884766 20.5440918 737.89160156 20.20458984 C756.71724998 11.70255295 776.26480171 5.3550345 796.70703125 2.203125 C798.41330688 1.93822266 798.41330688 1.93822266 800.15405273 1.66796875 C811.11950234 0.12441272 821.95520035 -0.19665121 833.01953125 -0.171875 C833.9381192 -0.17133118 834.85670715 -0.17078735 835.8031311 -0.17022705 C887.66921008 -0.02967009 938.49122987 17.04097828 978.70703125 50.203125 C979.26696777 50.66154785 979.8269043 51.1199707 980.40380859 51.59228516 C993.04309691 61.9988321 1004.72821072 73.18347299 1014.70703125 86.203125 C1015.12130371 86.73566895 1015.53557617 87.26821289 1015.96240234 87.81689453 C1043.54243367 123.42280687 1062.66164879 168.98777492 1062.91015625 214.53125 C1062.92067772 215.82579857 1062.92067772 215.82579857 1062.93141174 217.14649963 C1062.94881876 219.91542843 1062.95526369 222.6841435 1062.95703125 225.453125 C1062.95804337 226.87073624 1062.95804337 226.87073624 1062.95907593 228.31698608 C1062.94370297 241.84361066 1062.59539861 254.94108392 1059.70703125 268.203125 C1059.45759766 269.4408667 1059.45759766 269.4408667 1059.203125 270.70361328 C1052.01490834 306.10558031 1036.71241712 339.30444773 1013.70703125 367.203125 C1013.01939697 368.04302979 1013.01939697 368.04302979 1012.31787109 368.89990234 C1001.55978311 381.9661554 990.06863835 393.72776439 976.48974609 403.86474609 C974.71947878 405.19377997 972.97239231 406.54924151 971.2265625 407.91015625 C943.62975248 429.13320916 910.71229565 442.48408853 876.70703125 449.203125 C875.88235352 449.36828613 875.05767578 449.53344727 874.20800781 449.70361328 C829.99483156 458.07692731 782.88416413 451.51224486 741.70703125 434.203125 C740.97323242 433.89681152 740.23943359 433.59049805 739.48339844 433.27490234 C728.46014241 428.59292738 718.39213445 422.56073762 708.2890625 416.15625 C707.49322754 415.65287109 706.69739258 415.14949219 705.87744141 414.63085938 C704.53536417 413.74801711 703.21588663 412.82822201 701.93896484 411.85351562 C700.27889074 410.53131721 700.27889074 410.53131721 697.70703125 409.203125 C692.73592571 410.05531452 688.08208701 414.09191889 683.89453125 416.828125 C675.42005131 422.25840576 666.86977392 427.04430211 657.70703125 431.203125 C656.9701709 431.53795898 656.23331055 431.87279297 655.47412109 432.21777344 C640.08611376 439.12244072 624.48405501 444.29509939 608.01953125 447.953125 C607.13040039 448.15188232 606.24126953 448.35063965 605.32519531 448.55541992 C590.35041924 451.72336992 575.65098511 452.61228858 560.39453125 452.578125 C559.4759433 452.57758118 558.55735535 452.57703735 557.6109314 452.57647705 C542.00539287 452.53418608 527.00662668 451.5080187 511.70703125 448.203125 C510.71268066 447.98881836 509.71833008 447.77451172 508.69384766 447.55371094 C479.81067705 441.0913308 448.89014793 429.16078268 425.57617188 410.49731445 C424.95935547 410.07023193 424.34253906 409.64314941 423.70703125 409.203125 C418.77484596 410.25197284 414.43469401 413.900171 410.26953125 416.640625 C360.74842335 448.48769537 298.53066428 460.77166178 240.62548828 448.84472656 C232.19590176 446.99154325 223.92899151 444.83161734 215.70703125 442.203125 C214.81741699 441.91985352 213.92780273 441.63658203 213.01123047 441.34472656 C191.6906603 434.4027888 170.43527722 424.65424207 152.65234375 410.828125 C149.89376297 408.89529701 149.89376297 408.89529701 147.26171875 409.6796875 C144.07318214 411.58110842 140.93869499 413.54710352 137.83203125 415.578125 C88.34343319 447.04917089 26.74073267 460.88332566 -31.29296875 449.203125 C-32.2871582 449.00444824 -33.28134766 448.80577148 -34.30566406 448.60107422 C-86.59126889 437.78587706 -135.23438153 409.49694032 -168.29296875 367.203125 C-169.44152344 365.79740234 -169.44152344 365.79740234 -170.61328125 364.36328125 C-198.53932706 329.47817257 -217.25023 282.93396763 -217.49609375 237.875 C-217.50310806 237.01196762 -217.51012238 236.14893524 -217.51734924 235.25975037 C-217.53475626 232.49082157 -217.54120119 229.7221065 -217.54296875 226.953125 C-217.54364349 226.00805084 -217.54431824 225.06297668 -217.54501343 224.08926392 C-217.52964311 210.56496755 -217.18943815 197.46189027 -214.29296875 184.203125 C-214.1213623 183.36201172 -213.94975586 182.52089844 -213.77294922 181.65429688 C-201.377857 121.44006873 -165.00904913 70.09200427 -114.11328125 36.078125 C-110.88289057 34.03960875 -107.61303519 32.090451 -104.29296875 30.203125 C-103.6184668 29.81801758 -102.94396484 29.43291016 -102.24902344 29.03613281 C-71.45716333 11.66318624 -35.57907164 0.19513365 0 0 Z M-123.859375 107.6171875 C-157.06561353 144.35215437 -171.48719976 191.2126981 -169.29296875 240.203125 C-165.94378983 285.49048728 -143.60977819 327.76000263 -110.29296875 358.203125 C-83.63697947 381.15102059 -52.84319881 395.73705913 -18.29296875 402.203125 C-17.61169922 402.33444824 -16.93042969 402.46577148 -16.22851562 402.60107422 C24.09638524 410.03428371 64.5353501 399.79997339 100.26953125 381.390625 C101.18105957 380.92245361 102.09258789 380.45428223 103.03173828 379.97192383 C103.87462402 379.5261499 104.71750977 379.08037598 105.5859375 378.62109375 C106.33431885 378.22688232 107.0827002 377.8326709 107.85375977 377.42651367 C110.00324119 376.18001579 110.00324119 376.18001579 111.70703125 373.203125 C111.124375 372.54570312 110.54171875 371.88828125 109.94140625 371.2109375 C84.52147395 341.71422361 68.58377249 306.12339293 60.70703125 268.203125 C60.54041992 267.44418945 60.37380859 266.68525391 60.20214844 265.90332031 C54.37261035 238.42121218 55.65440157 206.5053419 61.70703125 179.203125 C61.91070312 178.24567383 62.114375 177.28822266 62.32421875 176.30175781 C69.51779276 143.2979067 84.61222819 112.32170489 106.046875 86.265625 C108.12712143 83.68122474 109.93660942 81.0062929 111.70703125 78.203125 C105.08190101 73.30489055 98.40502029 69.22148829 90.95703125 65.703125 C89.46647217 64.99820923 89.46647217 64.99820923 87.94580078 64.27905273 C15.64230329 30.97191939 -69.95226888 50.05783842 -123.859375 107.6171875 Z M187.70703125 76.203125 C187.04703125 77.193125 186.38703125 78.183125 185.70703125 79.203125 C186.45726562 80.11191406 187.2075 81.02070312 187.98046875 81.95703125 C211.83604551 111.12735751 228.33072101 144.36089201 235.95703125 181.390625 C236.10833496 182.12506836 236.25963867 182.85951172 236.41552734 183.61621094 C239.10135994 197.63109787 240.09105969 211.58574237 240.01953125 225.828125 C240.0173761 226.60926666 240.01522095 227.39040833 240.01300049 228.19522095 C239.79418559 277.92501739 223.49192008 325.62419729 192.51953125 364.6015625 C190.06081177 367.69803295 187.8473653 370.87943319 185.70703125 374.203125 C207.69989169 390.33122266 235.93584983 399.47073361 262.70703125 403.203125 C263.37395996 403.2973877 264.04088867 403.39165039 264.72802734 403.48876953 C303.58894444 408.44728418 343.94403429 399.25066581 377.70703125 379.765625 C378.42552246 379.35280273 379.14401367 378.93998047 379.88427734 378.51464844 C382.03646941 377.24859302 382.03646941 377.24859302 384.70703125 375.203125 C384.70703125 370.83849117 382.02352821 368.64381517 379.33203125 365.453125 C354.2580446 334.87228676 339.45803129 299.01440106 332.70703125 260.203125 C332.57425781 259.44177246 332.44148437 258.68041992 332.3046875 257.89599609 C327.31246282 227.47287408 330.38594406 194.7004951 338.70703125 165.203125 C339.04613525 163.97625977 339.04613525 163.97625977 339.39208984 162.72460938 C347.28234667 134.89731528 361.61509495 108.2470274 380.15234375 86.08984375 C382.21994882 83.58066473 383.97225834 80.94984878 385.70703125 78.203125 C379.01174206 73.23702859 372.25147793 69.17648058 364.70703125 65.640625 C363.7001123 65.16737793 362.69319336 64.69413086 361.65576172 64.20654297 C307.96239378 39.44004097 237.12771798 41.56717239 187.70703125 76.203125 Z M460.70703125 77.203125 C460.70703125 81.68068979 463.660608 83.96112862 466.45703125 87.203125 C503.59737107 131.67466711 519.01374341 190.86447188 514.2109375 248.05078125 C512.85644022 261.36218489 510.34721373 274.33354252 506.70703125 287.203125 C506.47564453 288.03166992 506.24425781 288.86021484 506.00585938 289.71386719 C496.98750116 321.15592095 480.12377508 348.05770753 459.70703125 373.203125 C475.79309166 390.91765079 507.29834451 397.84361685 529.70703125 402.203125 C530.43083984 402.34717773 531.15464844 402.49123047 531.90039062 402.63964844 C572.21030384 410.26093093 616.60202538 400.02515566 651.70703125 379.765625 C652.42552246 379.35280273 653.14401367 378.93998047 653.88427734 378.51464844 C656.03646941 377.24859302 656.03646941 377.24859302 658.70703125 375.203125 C658.70703125 371.00906281 656.38448608 368.98453528 653.83203125 365.890625 C652.80925112 364.61223219 651.7884608 363.33224523 650.76953125 362.05078125 C650.25261719 361.40254395 649.73570312 360.75430664 649.203125 360.08642578 C614.33709718 316.19665121 599.79600784 257.86275329 605.39453125 202.453125 C610.34127255 160.4651483 626.4504056 119.93385188 653.33203125 87.18359375 C655.6529287 84.27102014 657.68921004 81.32794535 659.70703125 78.203125 C653.01149275 73.23684367 646.25106828 69.17775827 638.70703125 65.640625 C637.70518799 65.16810303 636.70334473 64.69558105 635.67114258 64.20874023 C621.18770766 57.51016598 606.37739092 53.1144784 590.70703125 50.203125 C589.50820313 49.97625 588.309375 49.749375 587.07421875 49.515625 C547.0532541 43.29206246 493.26722761 50.66969575 460.70703125 77.203125 Z M740.76953125 73.140625 C740.14224121 73.50591309 739.51495117 73.87120117 738.86865234 74.24755859 C736.99887586 75.3646578 736.99887586 75.3646578 734.70703125 77.203125 C734.70703125 81.24858572 736.14039291 82.09222395 738.83203125 85.078125 C766.34052569 116.96092101 782.62392357 157.66154409 787.70703125 199.203125 C787.80129395 199.93370117 787.89555664 200.66427734 787.99267578 201.41699219 C792.25628864 238.16491129 786.66486699 276.06923379 772.70703125 310.203125 C772.43810059 310.88101074 772.16916992 311.55889648 771.89208984 312.25732422 C762.96835039 334.66218689 749.33360322 354.93266333 733.70703125 373.203125 C752.40134371 394.00581856 793.12703984 402.31335386 819.70703125 404.203125 C872.63826744 406.38138251 920.52044521 390.20938659 959.70703125 354.203125 C991.5394076 324.47796229 1013.00877362 281.00126716 1014.83154297 237.21191406 C1015.87177267 193.88408581 1005.18805256 152.46731389 977.70703125 118.203125 C977.03220703 117.35693604 977.03220703 117.35693604 976.34375 116.49365234 C946.17821706 78.99320055 902.59760578 54.42406408 854.625 48.70703125 C814.7729198 44.81450249 775.40476454 52.85751899 740.76953125 73.140625 Z M147.70703125 111.203125 C139.58504934 119.45006048 133.49635583 129.25264778 127.70703125 139.203125 C127.34335449 139.82590332 126.97967773 140.44868164 126.60498047 141.09033203 C104.24451047 179.87806009 98.94666887 226.47298919 109.89453125 269.703125 C115.52582981 290.5075235 124.17293469 309.65538981 136.70703125 327.203125 C137.12307617 327.7899707 137.53912109 328.37681641 137.96777344 328.98144531 C139.28049239 330.81847795 140.61432626 332.63792257 141.95703125 334.453125 C142.57553955 335.31381592 142.57553955 335.31381592 143.20654297 336.19189453 C144.51735417 337.98363987 144.51735417 337.98363987 146.70703125 340.203125 C148.02703125 340.203125 149.34703125 340.203125 150.70703125 340.203125 C152.47997027 338.35975835 153.90986164 336.63557839 155.39453125 334.578125 C156.04591064 333.70003174 156.04591064 333.70003174 156.71044922 332.80419922 C185.8533929 293.01185439 198.22586323 246.68754713 190.68359375 197.6796875 C185.55312724 167.48110303 172.52354665 140.2543101 153.70703125 116.203125 C153.000625 115.2646875 152.29421875 114.32625 151.56640625 113.359375 C150.64601563 112.29203125 150.64601563 112.29203125 149.70703125 111.203125 C149.04703125 111.203125 148.38703125 111.203125 147.70703125 111.203125 Z M421.70703125 111.203125 C392.14654928 141.84664187 378.05688616 187.43893423 378.35351562 229.22998047 C379.29829581 270.9150321 395.09471451 309.45746798 421.70703125 341.203125 C426.18568724 339.65038342 428.49762851 336.05461758 431.20703125 332.390625 C431.72749023 331.68776367 432.24794922 330.98490234 432.78417969 330.26074219 C460.00785361 292.60541424 471.85872576 246.20136334 465.11938477 200.15673828 C460.298247 170.28999241 448.09827495 141.51051189 429.26953125 117.765625 C428.74907227 117.10812256 428.22861328 116.45062012 427.69238281 115.77319336 C426.41478873 114.2069405 425.06676725 112.69862247 423.70703125 111.203125 C423.04703125 111.203125 422.38703125 111.203125 421.70703125 111.203125 Z M695.70703125 111.203125 C693.75713982 113.34770138 691.94059675 115.49663266 690.14453125 117.765625 C689.60731445 118.44310791 689.07009766 119.12059082 688.51660156 119.81860352 C683.25080071 126.59037329 678.80791721 133.67840434 674.70703125 141.203125 C674.36188477 141.83299316 674.01673828 142.46286133 673.66113281 143.11181641 C651.8880824 183.37662653 646.54017505 230.73603085 659.33203125 274.78125 C666.88650461 299.5383384 679.30917297 321.25135827 695.70703125 341.203125 C700.27869867 339.63600496 702.51501428 336.00408979 705.26953125 332.265625 C705.79256836 331.55833252 706.31560547 330.85104004 706.85449219 330.12231445 C734.21543647 292.34658568 746.0190828 245.48792101 739.18310547 199.25512695 C733.92569079 167.4769119 720.17498775 134.79447932 697.70703125 111.203125 C697.04703125 111.203125 696.38703125 111.203125 695.70703125 111.203125 Z " fill="#000000" transform="translate(217.29296875,-0.203125)"/>
</svg>
