<?xml version="1.0" encoding="UTF-8"?>
<svg version="1.1" xmlns="http://www.w3.org/2000/svg" width="281" height="180">
<path d="M0 0 C92.73 0 185.46 0 281 0 C281 59.4 281 118.8 281 180 C188.27 180 95.54 180 0 180 C0 120.6 0 61.2 0 0 Z " fill="#FDFDFD" transform="translate(0,0)"/>
<path d="M0 0 C1.06030426 -0.00503792 1.06030426 -0.00503792 2.14202881 -0.01017761 C4.45293997 -0.0195898 6.76377795 -0.02162567 9.07470703 -0.02270508 C10.69841541 -0.02592405 12.32212351 -0.02928859 13.9458313 -0.03279114 C17.33987093 -0.03875781 20.73388519 -0.04063354 24.12792969 -0.04003906 C28.45385332 -0.0399375 32.77961263 -0.05359516 37.10549736 -0.07081127 C40.45660128 -0.08198719 43.80766614 -0.08395657 47.15878677 -0.08342934 C48.7526112 -0.08460082 50.34643693 -0.0889753 51.94024277 -0.0967617 C71.66772359 -0.18413285 88.3649358 3.71242155 103.45751953 17.14526367 C107.72172408 21.38876819 111.72868938 25.73991322 114.45751953 31.14526367 C113.02374964 35.44657333 109.84136437 36.38151372 106.02001953 38.33276367 C104.9787793 38.88480469 104.9787793 38.88480469 103.91650391 39.44799805 C98.74716181 42.14526367 98.74716181 42.14526367 96.45751953 42.14526367 C95.23095703 40.64135742 95.23095703 40.64135742 93.83251953 38.58276367 C88.332559 31.05860459 82.2028662 26.33267024 73.45751953 23.14526367 C72.40564453 22.73276367 71.35376953 22.32026367 70.27001953 21.89526367 C62.24965167 20.31748639 54.13756681 20.19949211 46.45751953 23.14526367 C46.90482422 23.80010742 47.35212891 24.45495117 47.81298828 25.12963867 C58.22850902 40.85285548 62.99140232 57.30898466 59.77001953 76.20776367 C57.07690376 87.55599633 52.2615371 96.77496653 45.45751953 106.14526367 C60.82515783 107.56250143 73.19842418 107.12386367 86.45751953 98.14526367 C90.2905091 94.90789406 93.631482 91.30120122 96.45751953 87.14526367 C100.81722784 88.49376204 104.77093391 90.19434213 108.83251953 92.27026367 C109.89212891 92.8090918 110.95173828 93.34791992 112.04345703 93.90307617 C112.84009766 94.31299805 113.63673828 94.72291992 114.45751953 95.14526367 C109.56834041 108.56700058 97.60238073 116.7135282 85.16455078 122.60229492 C68.67197444 129.71169076 53.24391216 129.60084128 36.45751953 124.14526367 C35.37857422 123.60385742 34.29962891 123.06245117 33.18798828 122.50463867 C29.40774395 120.62262862 27.54740851 121.13955327 23.45751953 122.14526367 C21.68055647 122.77403522 19.91013633 123.42146639 18.14501953 124.08276367 C2.08889918 130.08199342 -13.81797929 129.66993347 -29.47119141 122.6315918 C-40.47427376 117.39202877 -51.64257899 109.11701028 -57.54248047 98.14526367 C-57.54248047 97.15526367 -57.54248047 96.16526367 -57.54248047 95.14526367 C-55.10892377 93.80426318 -52.67112746 92.47231511 -50.22998047 91.14526367 C-49.19454102 90.57291992 -49.19454102 90.57291992 -48.13818359 89.98901367 C-42.88232422 87.14526367 -42.88232422 87.14526367 -39.54248047 87.14526367 C-38.10498047 88.86791992 -38.10498047 88.86791992 -36.54248047 91.20776367 C-31.02320728 98.61735876 -22.56230249 103.97181258 -13.54248047 106.14526367 C-9.36576378 106.48558612 -5.22929942 106.43042273 -1.04248047 106.33276367 C0.06611328 106.31922852 1.17470703 106.30569336 2.31689453 106.29174805 C5.03095185 106.25665248 7.74397146 106.20748638 10.45751953 106.14526367 C9.94962891 105.39245117 9.44173828 104.63963867 8.91845703 103.86401367 C-1.64515069 87.56361525 -6.76885213 71.37713049 -3.54248047 51.83276367 C-1.18387771 40.9538495 4.1819771 31.25673356 10.45751953 22.14526367 C-2.14261453 19.74523814 -14.27248669 20.28636812 -25.48779297 26.87573242 C-31.71850993 31.12857874 -36.3166645 35.91470906 -40.54248047 42.14526367 C-43.359725 40.86376695 -46.17036504 39.56839135 -48.97998047 38.27026367 C-49.78242187 37.90545898 -50.58486328 37.5406543 -51.41162109 37.16479492 C-52.17539063 36.81030273 -52.93916016 36.45581055 -53.72607422 36.09057617 C-54.43304443 35.76589355 -55.14001465 35.44121094 -55.8684082 35.10668945 C-57.54248047 34.14526367 -57.54248047 34.14526367 -58.54248047 32.14526367 C-49.17219486 16.37575862 -36.14058306 6.9212126 -18.67529297 1.83666992 C-12.44311496 0.46123911 -6.37085878 0.01917179 0 0 Z " fill="#161413" transform="translate(116.54248046875,-0.145263671875)"/>
<path d="M0 0 C3.96 0 7.92 0 12 0 C16.62663239 9.7257026 21.05584959 19.53698831 25.4375 29.375 C25.84941589 30.29739975 25.84941589 30.29739975 26.26965332 31.23843384 C27.05550061 32.99919542 27.83835982 34.76128969 28.62109375 36.5234375 C29.0792749 37.55388184 29.53745605 38.58432617 30.00952148 39.64599609 C31 42 31 42 31 43 C27.7 43 24.4 43 21 43 C18 37.375 18 37.375 18 34 C10.41 34.33 2.82 34.66 -5 35 C-6.32 37.64 -7.64 40.28 -9 43 C-11.97 43 -14.94 43 -18 43 C-16.09612152 37.06407902 -13.97488278 31.36897087 -11.42578125 25.68359375 C-11.09708542 24.94166275 -10.76838959 24.19973175 -10.42973328 23.43531799 C-9.39450954 21.10097727 -8.35362122 18.76921547 -7.3125 16.4375 C-6.60313681 14.84066302 -5.89414914 13.24365917 -5.18554688 11.64648438 C-3.46135853 7.76238377 -1.73209057 3.88058271 0 0 Z " fill="#141211" transform="translate(113,136)"/>
<path d="M0 0 C4.36709841 3.01179201 6.54836793 6.28080659 8.75 11 C9.05292969 11.61617187 9.35585937 12.23234375 9.66796875 12.8671875 C14.03909611 21.92027795 14.50537422 32.58011538 11.875 42.3125 C9.46444383 49.14431322 6.11376016 55.89334901 0 60 C-10.15185443 48.13872678 -12.27095942 36.53520663 -11.23925781 21.30175781 C-10.3307494 12.56153607 -5.58702924 6.49727558 0 0 Z " fill="#FAFAFA" transform="translate(144,34)"/>
<path d="M0 0 C12 0 12 0 15.62109375 3.47265625 C16.6024578 4.97565811 17.54097172 6.50740289 18.4375 8.0625 C18.91380859 8.81466797 19.39011719 9.56683594 19.88085938 10.34179688 C20.7808214 11.76376149 21.66357115 13.19690842 22.52124023 14.64477539 C24.53823737 17.85725209 26.79525359 20.91335502 29 24 C29.33 16.08 29.66 8.16 30 0 C32.64 0 35.28 0 38 0 C38 14.19 38 28.38 38 43 C31 43 31 43 29.26245117 41.66162109 C28.86002197 41.03852051 28.45759277 40.41541992 28.04296875 39.7734375 C27.5747168 39.07726318 27.10646484 38.38108887 26.62402344 37.66381836 C26.1499707 36.9085083 25.67591797 36.15319824 25.1875 35.375 C24.15564937 33.82114855 23.12308486 32.26777094 22.08984375 30.71484375 C21.5779248 29.92835449 21.06600586 29.14186523 20.53857422 28.33154297 C18.20585234 24.79655504 15.73022527 21.36970571 13.25 17.9375 C11.8475 15.978125 10.445 14.01875 9 12 C8.67 22.23 8.34 32.46 8 43 C5.36 43 2.72 43 0 43 C0 28.81 0 14.62 0 0 Z " fill="#131110" transform="translate(151,136)"/>
<path d="M0 0 C9.9 0 19.8 0 30 0 C30 2.97 30 5.94 30 9 C23.07 9 16.14 9 9 9 C9 11.64 9 14.28 9 17 C15.6 17 22.2 17 29 17 C29 19.97 29 22.94 29 26 C22.4 26 15.8 26 9 26 C9 28.64 9 31.28 9 34 C16.92 34 24.84 34 33 34 C33 36.97 33 39.94 33 43 C22.11 43 11.22 43 0 43 C0 28.81 0 14.62 0 0 Z " fill="#21201F" transform="translate(204,136)"/>
<path d="M0 0 C2.97 0 5.94 0 9 0 C9 4.95 9 9.9 9 15 C15.93 15 22.86 15 30 15 C30 10.05 30 5.1 30 0 C32.97 0 35.94 0 39 0 C39 14.19 39 28.38 39 43 C36.03 43 33.06 43 30 43 C30 36.73 30 30.46 30 24 C23.07 24 16.14 24 9 24 C9 30.27 9 36.54 9 43 C6.03 43 3.06 43 0 43 C0 28.81 0 14.62 0 0 Z " fill="#242322" transform="translate(49,136)"/>
<path d="M0 0 C5.19439627 2.27578101 8.76437636 5.37768052 12 10 C10.9024777 12.99324263 10.32317108 13.84610901 7.375 15.25 C6.59125 15.4975 5.8075 15.745 5 16 C3.79557292 14.47005208 2.59114583 12.94010417 1.38671875 11.41015625 C-0.89463715 9.09024222 -3.15171514 8.98568725 -6.3125 8.6875 C-10.73267921 9.06209146 -12.62729281 10.16385987 -16 13 C-18.38713778 15.9441366 -18.96192889 17.65101478 -19.375 21.4375 C-18.85570103 26.37084018 -17.6295611 29.56215197 -13.875 32.875 C-9.84967515 34.45012712 -6.26892795 34.58107005 -2 34 C1.63467079 32.37599816 2.77408696 31.33886956 5 28 C7.96175123 28.61277612 9.38058783 29.25372522 12 31 C11.45123677 34.76651128 9.99236151 36.26652261 7.125 38.6875 C6.42632812 39.28949219 5.72765625 39.89148438 5.0078125 40.51171875 C-0.13064198 44.32057314 -6.91446638 43.51509958 -13 43 C-18.69877357 41.31972218 -22.72773472 36.7777164 -26 32 C-29.03347777 25.51938841 -28.74733982 19.47737476 -26.4375 12.875 C-21.52726222 1.51679872 -11.65679907 -1.58150724 0 0 Z " fill="#161413" transform="translate(28,136)"/>
<path d="M0 0 C2.64 0 5.28 0 8 0 C8 11.55 8 23.1 8 35 C15.59 35 23.18 35 31 35 C31 37.64 31 40.28 31 43 C20.77 43 10.54 43 0 43 C0 28.81 0 14.62 0 0 Z " fill="#131110" transform="translate(249,136)"/>
<path d="M0 0 C0.9583374 0.00523682 1.9166748 0.01047363 2.90405273 0.01586914 C4.45576172 0.02070313 4.45576172 0.02070313 6.03881836 0.02563477 C7.12743164 0.03401367 8.21604492 0.04239258 9.33764648 0.05102539 C10.97636719 0.05779297 10.97636719 0.05779297 12.64819336 0.06469727 C15.3572008 0.07652699 18.06618028 0.09446308 20.77514648 0.11352539 C22.09514648 3.41352539 23.41514648 6.71352539 24.77514648 10.11352539 C14.54514648 10.11352539 4.31514648 10.11352539 -6.22485352 10.11352539 C-2.9030555 0.14813133 -2.9030555 0.14813133 0 0 Z " fill="#F7F7F7" transform="translate(110.224853515625,169.886474609375)"/>
<path d="M0 0 C9.9 0 19.8 0 30 0 C30 2.64 30 5.28 30 8 C23.07 8 16.14 8 9 8 C9 7.67 9 7.34 9 7 C15.6 7 22.2 7 29 7 C29 5.02 29 3.04 29 1 C20.09 1 11.18 1 2 1 C2 14.2 2 27.4 2 41 C11.9 41 21.8 41 32 41 C32 39.35 32 37.7 32 36 C24.41 36 16.82 36 9 36 C9 35.67 9 35.34 9 35 C16.92 35 24.84 35 33 35 C33 37.64 33 40.28 33 43 C22.11 43 11.22 43 0 43 C0 28.81 0 14.62 0 0 Z " fill="#1C1A19" transform="translate(204,136)"/>
<path d="M0 0 C17.49 0 34.98 0 53 0 C53 0.33 53 0.66 53 1 C51.78376953 1.12955078 51.78376953 1.12955078 50.54296875 1.26171875 C44.56001951 2.02090556 39.49213172 2.99512063 34.0625 5.6875 C29.32126988 7.99330688 29.32126988 7.99330688 26 8.0625 C24.19909548 7.42467965 22.40291213 6.77291084 20.6171875 6.09375 C19.71226562 5.7534375 18.80734375 5.413125 17.875 5.0625 C16.93785156 4.70800781 16.00070313 4.35351562 15.03515625 3.98828125 C10.12574368 2.38972092 5.1067244 1.67733168 0 1 C0 0.67 0 0.34 0 0 Z " fill="#F1F1F1" transform="translate(118,0)"/>
<path d="M0 0 C2.44814179 3.0296652 4.09452853 6.07549599 5.6875 9.625 C6.12449219 10.58664063 6.56148437 11.54828125 7.01171875 12.5390625 C8 15 8 15 8 17 C3.05 17 -1.9 17 -7 17 C-5.11994266 10.98381653 -2.93937169 5.57467045 0 0 Z " fill="#F1F1F1" transform="translate(119,145)"/>
<path d="M0 0 C2 3 2 3 3.75 6.375 C6.39682613 11.05403346 9.81694811 14.27231604 15 16 C17.73865287 16.07051114 20.45027588 16.09357765 23.1875 16.0625 C23.93708984 16.05798828 24.68667969 16.05347656 25.45898438 16.04882812 C27.30602383 16.03706354 29.15302213 16.01912865 31 16 C30.67 16.66 30.34 17.32 30 18 C20.1 18 10.2 18 0 18 C0 12.06 0 6.12 0 0 Z " fill="#EFEFEF" transform="translate(0,162)"/>
<path d="M0 0 C0.66 0.33 1.32 0.66 2 1 C1.01 2.98 0.02 4.96 -1 7 C1.31 7 3.62 7 6 7 C6 7.66 6 8.32 6 9 C3.03 9 0.06 9 -3 9 C-2.01 6.03 -1.02 3.06 0 0 Z " fill="#1A1817" transform="translate(98,170)"/>
</svg>
