<?xml version="1.0" encoding="UTF-8"?>
<svg version="1.1" xmlns="http://www.w3.org/2000/svg" width="768" height="241">
<path d="M0 0 C2.87658757 4.41761663 2.46099885 8.58123553 1.75 13.6875 C0.25895354 19.63720967 -1.51160388 25.74624032 -5.25 30.6875 C-7.73046875 31.61328125 -7.73046875 31.61328125 -10.4375 32 C-11.33855469 32.14050781 -12.23960937 32.28101563 -13.16796875 32.42578125 C-13.85503906 32.51214844 -14.54210937 32.59851562 -15.25 32.6875 C-14.09843291 29.79181187 -12.92811293 26.90529774 -11.7421875 24.0234375 C-11.20303163 22.70316313 -10.66397095 21.38284988 -10.125 20.0625 C-9.84785156 19.39476563 -9.57070313 18.72703125 -9.28515625 18.0390625 C-8.09096759 15.09771111 -7.25 12.89368881 -7.25 9.6875 C-18.29162847 11.43192394 -26.52349489 21.2337753 -34.25 28.6875 C-34.78093262 29.19651855 -35.31186523 29.70553711 -35.85888672 30.22998047 C-41.99096987 36.13389308 -47.68683624 42.18419011 -52.984375 48.86328125 C-54.99455469 51.3690742 -57.07088703 53.79941243 -59.18164062 56.22045898 C-66.1678899 64.27514985 -72.24608551 72.88644823 -78.25 81.6875 C-78.67635742 82.30850586 -79.10271484 82.92951172 -79.54199219 83.56933594 C-91.47878632 100.99648741 -102.29223148 119.06396148 -112.25 137.6875 C-104.50374954 133.91929924 -98.21003889 127.87310828 -91.90234375 122.09375 C-90.47617678 120.7999078 -89.04425771 119.51169097 -87.58032227 118.26074219 C-81.75380123 113.27366704 -76.3061319 107.92977835 -70.88696289 102.50976562 C-69.32391266 100.94889673 -67.75302635 99.39622112 -66.18164062 97.84375 C-60.49586278 92.18897867 -55.19762794 86.42677193 -50.21582031 80.13305664 C-47.58814753 76.86412988 -44.77476944 73.78585758 -41.9375 70.69921875 C-40.02906915 68.57282289 -40.02906915 68.57282289 -38.4375 65.1875 C-35.71813332 62.07965237 -34.51715024 62.19118677 -30.5 61.8125 C-28.75085202 61.74381618 -27.00048555 61.69353616 -25.25 61.6875 C-27.8993326 66.60327797 -30.75459608 70.75405835 -34.4375 74.9375 C-35.32803963 75.96248582 -36.21731171 76.98857396 -37.10546875 78.015625 C-37.60336914 78.58748535 -38.10126953 79.1593457 -38.61425781 79.74853516 C-39.75776131 81.10401348 -40.86951572 82.48662917 -41.95605469 83.88818359 C-49.11062381 93.0265999 -57.34411819 101.08329052 -65.56005859 109.25830078 C-68.11918885 111.80671318 -70.66745482 114.36563821 -73.21484375 116.92578125 C-81.24063541 124.95857122 -89.19446778 132.8089339 -98.25 139.6875 C-99.43924665 140.62704171 -100.62810565 141.56707453 -101.81640625 142.5078125 C-120.25 156.6875 -120.25 156.6875 -123.25 156.6875 C-123.42015625 157.22407227 -123.5903125 157.76064453 -123.765625 158.31347656 C-125.37712385 163.282979 -127.19734912 168.10938777 -129.20727539 172.93041992 C-136.27787704 189.74234948 -136.27787704 189.74234948 -136.25 207.6875 C-129.12686322 207.26011179 -125.58430119 204.31461989 -121.0390625 199.19921875 C-114.67476754 190.89346919 -108.91263397 182.23831357 -103.15063477 173.50585938 C-98.14817151 165.9532718 -92.95765032 158.72157609 -87.25 151.6875 C-86.5178125 150.76453125 -85.785625 149.8415625 -85.03125 148.890625 C-72.69841876 133.51801141 -57.89572024 115.09536728 -37.25 111.6875 C-31.06134325 111.19633677 -28.2320938 111.63230737 -23.25 115.6875 C-21.375 117.4375 -21.375 117.4375 -20.25 118.6875 C-19.87834717 118.03555664 -19.50669434 117.38361328 -19.1237793 116.71191406 C-17.25 114.6875 -17.25 114.6875 -14.52270508 114.23339844 C-13.44915771 114.2543457 -12.37561035 114.27529297 -11.26953125 114.296875 C-10.10615234 114.30976562 -8.94277344 114.32265625 -7.74414062 114.3359375 C-6.52919922 114.36945313 -5.31425781 114.40296875 -4.0625 114.4375 C-2.83595703 114.45554687 -1.60941406 114.47359375 -0.34570312 114.4921875 C2.68697759 114.53938876 5.71810087 114.60522323 8.75 114.6875 C7.31594155 118.54890222 5.51853075 121.98535785 3.43359375 125.53515625 C3.10534607 126.09557114 2.77709839 126.65598602 2.43890381 127.23338318 C1.3587966 129.07445495 0.27333075 130.91229895 -0.8125 132.75 C-1.5745472 134.04552333 -2.33650872 135.34109706 -3.09838867 136.63671875 C-8.68830139 146.12423546 -14.39293058 155.53956162 -20.13119507 164.93783569 C-24.90040145 172.75362729 -29.58436104 180.6112677 -34.125 188.5625 C-34.60686768 189.40619141 -35.08873535 190.24988281 -35.58520508 191.11914062 C-40.33295725 199.03046867 -40.33295725 199.03046867 -43.25 207.6875 C-32.13515266 203.66723607 -25.30106234 195.88095524 -18.25 186.6875 C-17.35594458 185.53478704 -16.46139833 184.38245462 -15.56640625 183.23046875 C-10.96942043 177.4118935 -10.96942043 177.4118935 -6.75390625 171.32421875 C-5.25 169.6875 -5.25 169.6875 -2.98828125 169.296875 C-2.18777344 169.34328125 -1.38726563 169.3896875 -0.5625 169.4375 C0.24574219 169.47359375 1.05398438 169.5096875 1.88671875 169.546875 C2.50160156 169.59328125 3.11648438 169.6396875 3.75 169.6875 C-1.42278308 184.36628758 -14.842951 197.54426104 -25.25 208.6875 C-25.69182617 209.16864258 -26.13365234 209.64978516 -26.58886719 210.14550781 C-35.41366349 219.69495683 -46.25117505 229.94601938 -59.59375 232.05859375 C-63.72118777 232.18570687 -65.95491327 231.84309118 -69.6875 229.875 C-73.5684035 226.17685373 -73.73377551 220.76964108 -74.25 215.6875 C-75.24966797 216.55761719 -75.24966797 216.55761719 -76.26953125 217.4453125 C-84.99539044 224.84093582 -94.15924743 232.57470539 -106.25 231.6875 C-111.38608322 230.55598741 -114.34978005 228.01376172 -117.25 223.6875 C-118.078125 220.35546875 -118.078125 220.35546875 -118.5 216.875 C-118.72429687 215.13283203 -118.72429687 215.13283203 -118.953125 213.35546875 C-119.05109375 212.47503906 -119.1490625 211.59460938 -119.25 210.6875 C-119.83394531 211.44160156 -120.41789063 212.19570312 -121.01953125 212.97265625 C-127.55897794 220.93222797 -137.30859252 228.72251882 -147.25 231.6875 C-153.53360513 231.92840499 -158.46450452 231.00611787 -163.25 226.6875 C-169.48139503 216.58834253 -167.36368078 205.12171545 -164.87158203 194.11474609 C-162.70433273 185.65174822 -160.16691931 176.52133863 -156.25 168.6875 C-160.84467999 168.13353149 -164.09869085 168.59531575 -168.25 170.6875 C-172.69240623 175.9048548 -175.65964707 182.30426163 -178.90527344 188.30175781 C-181.73248785 193.31765092 -185.33724782 197.49613079 -189.25 201.6875 C-189.78463867 202.26306641 -190.31927734 202.83863281 -190.87011719 203.43164062 C-202.26490643 215.58357951 -217.33977254 231.41552018 -235.125 232.1875 C-240.35050071 231.83787337 -243.88238508 230.13109353 -247.5 226.3125 C-252.74109208 218.45086187 -252.05451245 209.94652772 -250.66796875 200.8828125 C-245.21724425 176.14299447 -230.25676476 155.88335563 -213.25 137.6875 C-212.40566406 136.77742187 -211.56132812 135.86734375 -210.69140625 134.9296875 C-199.87256364 123.65547996 -185.67280825 111.76896738 -169.375 111.375 C-164.16931607 111.4257253 -161.1506472 111.98688599 -157.25 115.6875 C-152.69057595 121.83997583 -153.36570462 129.39044942 -154.25 136.6875 C-156.0183428 145.38381695 -159.40885711 153.72068512 -163.25 161.6875 C-161.28570455 161.34509988 -159.32840612 160.96237372 -157.375 160.5625 C-155.73917969 160.24925781 -155.73917969 160.24925781 -154.0703125 159.9296875 C-153.13960937 159.51976562 -152.20890625 159.10984375 -151.25 158.6875 C-150.52647664 156.707359 -149.86862158 154.70287882 -149.25 152.6875 C-148.29803782 150.69897548 -147.30012648 148.73201743 -146.265625 146.78515625 C-145.66717773 145.65883789 -145.06873047 144.53251953 -144.45214844 143.37207031 C-143.80217328 142.16431447 -143.15143895 140.95696693 -142.5 139.75 C-142.16875122 139.13378784 -141.83750244 138.51757568 -141.49621582 137.88269043 C-123.56656257 104.59090169 -102.37450894 74.89434566 -76.66943359 47.22460938 C-75.1611377 45.59127072 -73.66753192 43.945332 -72.17578125 42.296875 C-67.42324856 37.0612736 -62.72291309 31.94256263 -57.27734375 27.41015625 C-55.77114879 26.13032585 -54.31146185 24.79534759 -52.87890625 23.43359375 C-40.14716409 11.34505997 -18.82526571 -7.60251115 0 0 Z M-185.3125 133.5 C-187.71723398 137.87527989 -188.16750656 141.80001314 -187.25 146.6875 C-184.77472853 153.03710943 -180.47372166 156.84498993 -174.25 159.6875 C-170.67814793 158.49688264 -170.23533957 157.27442638 -168.59790039 154.02758789 C-168.29746826 153.39973389 -167.99703613 152.77187988 -167.6875 152.125 C-167.22234985 151.16871704 -167.22234985 151.16871704 -166.74780273 150.19311523 C-163.53155926 143.42221232 -161.53273398 137.29051978 -162.25 129.6875 C-163.40639806 127.37470389 -164.42409828 125.51340172 -166.25 123.6875 C-174.40014466 122.49893724 -180.67902646 126.95013231 -185.3125 133.5 Z M-40.5703125 130.46875 C-59.67344738 146.93061542 -82.64645559 175.18017268 -87.0625 200.625 C-87.44391798 203.72843079 -87.44391798 203.72843079 -86.25 206.6875 C-83.64023408 207.73957123 -83.64023408 207.73957123 -80.25 207.6875 C-62.61605728 199.1607993 -51.12632647 172.31652024 -41.375 156.25 C-40.8524614 155.38958099 -40.8524614 155.38958099 -40.31936646 154.51177979 C-37.93895616 150.58438789 -35.59083495 146.63857294 -33.25 142.6875 C-32.68218811 141.74472198 -32.68218811 141.74472198 -32.10290527 140.78289795 C-30.95190978 138.87009637 -29.81459476 136.94972397 -28.6796875 135.02734375 C-28.14180099 134.14206749 -28.14180099 134.14206749 -27.5930481 133.23890686 C-26.73287752 131.76520638 -25.98183749 130.22896048 -25.25 128.6875 C-25.745 127.2025 -25.745 127.2025 -26.25 125.6875 C-31.68277003 123.39880113 -36.35581261 127.23337635 -40.5703125 130.46875 Z M-197.25 150.6875 C-214.91757656 173.65441144 -214.91757656 173.65441144 -221.3125 200.9375 C-220.53069006 204.61391687 -220.53069006 204.61391687 -218.5625 206.8125 C-215.20303822 208.0836477 -213.70300717 207.79506834 -210.25 206.6875 C-197.85301319 200.0175071 -190.11310597 188.96192479 -182.25 177.6875 C-181.33541016 176.38039062 -181.33541016 176.38039062 -180.40234375 175.046875 C-178.85955324 172.79688827 -178.85955324 172.79688827 -177.25 169.6875 C-178.53682421 165.82702737 -179.88816296 165.5291901 -183.375 163.5625 C-188.44118588 160.48188958 -191.63202267 157.24771154 -195.0078125 152.41015625 C-195.41773438 151.84167969 -195.82765625 151.27320313 -196.25 150.6875 C-196.58 150.6875 -196.91 150.6875 -197.25 150.6875 Z " fill="#E61C2A" transform="translate(713.25,4.3125)"/>
<path d="M0 0 C4.39616549 4.28047692 6.05795253 9.00869702 6.3125 15.0625 C6.07326081 24.52042262 3.26666671 33.61827403 -1 42 C10.97349878 36.74027715 19.76713378 29.89220212 29.2109375 20.9765625 C41.3984783 9.47585175 53.63038689 -1.79752483 71.1875 -2.5625 C77.293724 -2.36833279 81.59985991 -1.35394439 86 3 C89.09750625 7.16227402 89.57838922 11.1501402 89.41796875 16.21484375 C88.03346715 25.44054131 83.22002437 34.42215325 76.125 40.4375 C72.37287407 42.31356297 70.14275571 42.61374159 66 42 C63.5 40.5625 63.5 40.5625 62 38 C61.40766952 32.80178943 62.74720153 28.84136469 65.75 24.625 C68.20584214 21.68968392 70.38662943 19.44534823 74 18 C77.3125 17.8125 77.3125 17.8125 80 18 C79.67 15.69 79.34 13.38 79 11 C71.28753867 11.24484004 66.99762479 13.23105529 61 18 C59.88625 18.88558594 59.88625 18.88558594 58.75 19.7890625 C52.701738 24.89228356 47.79845758 30.7291876 43 37 C42.41605469 37.75667969 41.83210937 38.51335937 41.23046875 39.29296875 C30.91413951 53.32994132 19.99731881 71.28446858 19 89 C19.78637993 93.07487781 20.82614716 95.36874963 24 98 C29.08130299 99.36560018 33.65709023 98.02631054 38.25 95.75 C45.37948825 91.50412624 51.18597444 85.85811128 57 80 C57.5067627 79.49049805 58.01352539 78.98099609 58.53564453 78.45605469 C66.60289598 70.24432299 73.541922 61.27867054 80.43603516 52.078125 C86.63306033 43.8438012 92.97239619 35.7979337 99.96875 28.22265625 C101.8009843 26.2177691 103.52316187 24.15756097 105.25 22.0625 C114.25526986 11.81512395 128.48151278 -0.93862882 142.5859375 -2.23828125 C148.86012574 -2.40524144 152.13478489 -1.99197137 157 2 C157.66 2 158.32 2 159 2 C159.66 1.34 160.32 0.68 161 0 C163.52197266 -0.22705078 163.52197266 -0.22705078 166.6640625 -0.1953125 C167.78554688 -0.18886719 168.90703125 -0.18242188 170.0625 -0.17578125 C171.238125 -0.15902344 172.41375 -0.14226563 173.625 -0.125 C174.80835938 -0.11597656 175.99171875 -0.10695312 177.2109375 -0.09765625 C180.14082523 -0.07402812 183.0703134 -0.04108514 186 0 C184.41676181 6.03422856 181.20378628 10.88707436 177.9375 16.125 C176.66243207 18.19511029 175.38770753 20.26543212 174.11328125 22.3359375 C173.44119629 23.42358398 172.76911133 24.51123047 172.07666016 25.63183594 C166.39344525 34.84952144 160.78910161 44.11584921 155.1875 53.38330078 C153.70613163 55.83403043 152.22140545 58.28268255 150.734375 60.72998047 C148.87472646 63.7921701 147.02481701 66.86005947 145.18133545 69.93200684 C144.15621573 71.63562349 143.12242846 73.33401524 142.08837891 75.03222656 C138.56813625 80.92139185 135.86863072 86.39058393 134 93 C148.7073433 87.34727449 160.18526982 72.9300354 168.9140625 60.2109375 C171 58 171 58 173.578125 57.51171875 C174.90070313 57.59873047 174.90070313 57.59873047 176.25 57.6875 C177.14203125 57.73261719 178.0340625 57.77773437 178.953125 57.82421875 C179.96632813 57.91123047 179.96632813 57.91123047 181 58 C178.06796167 63.48597926 174.6568784 68.15937506 170.6875 72.9375 C169.81593262 73.99735107 169.81593262 73.99735107 168.92675781 75.07861328 C165.56104445 79.15800872 162.18057223 83.22311826 158.6484375 87.16015625 C157.42530884 88.52530696 156.22568479 89.91159421 155.0390625 91.30859375 C146.48265764 101.20869396 133.02800025 115.90034186 119.2578125 117.2734375 C110.90694006 117.54416404 110.90694006 117.54416404 106.875 115.125 C104.34865071 110.91441785 103.62805365 106.82757658 103 102 C102.39414062 102.59167969 101.78828125 103.18335938 101.1640625 103.79296875 C91.75117398 112.67004669 83.24123082 117.42825379 70.18359375 117.35546875 C65.53686053 116.83663105 63.96413873 115.54049904 61 112 C60.07811539 109.23434618 59.88214778 107.61716298 59.90234375 104.76953125 C59.90556641 103.96708984 59.90878906 103.16464844 59.91210938 102.33789062 C59.92048828 101.50451172 59.92886719 100.67113281 59.9375 99.8125 C59.94201172 98.96751953 59.94652344 98.12253906 59.95117188 97.25195312 C59.96294597 95.16793845 59.9808811 93.08396023 60 91 C59.35675781 91.61746094 58.71351563 92.23492187 58.05078125 92.87109375 C44.95118695 105.14845959 28.39558823 118.74647462 9.55859375 118.31640625 C2.79635031 117.48015935 -2.76664353 114.32193385 -7 109 C-12.3827984 102.04131655 -12.00811783 93.36587332 -11 85 C-8.86920923 72.58184302 -3.21515199 61.81896827 3 51 C-1.95 51.495 -1.95 51.495 -7 52 C-7.226875 52.66 -7.45375 53.32 -7.6875 54 C-18.13753372 77.88579136 -41.1228756 105.10007438 -65.375 115.5625 C-72.24776981 117.9359115 -78.02681646 118.76295952 -85 116 C-89.76986795 113.1158938 -92.54931736 109.34746312 -94 104 C-96.8798195 78.4815994 -83.23542327 56.33434946 -68.125 36.9375 C-54.03957294 19.72197804 -25.28549125 -13.77205406 0 0 Z M-20.96875 13.515625 C-24.97578011 17.28494993 -27.48450058 20.69575204 -29 26 C-29.09838407 31.50950815 -27.39665643 34.58741079 -23.75 38.48828125 C-19.86524102 41.84408867 -16.16658528 43 -11 43 C-10.01706733 40.75157909 -9.03855534 38.50140453 -8.0625 36.25 C-7.64581055 35.29867187 -7.64581055 35.29867187 -7.22070312 34.328125 C-4.9836778 29.15331942 -3.84271814 25.12490026 -3.75 19.5 C-3.72421875 18.5615625 -3.6984375 17.623125 -3.671875 16.65625 C-4.05953036 13.51808754 -4.76458159 12.2152795 -7 10 C-12.03704248 7.90039111 -16.91386256 10.3940053 -20.96875 13.515625 Z M134.8125 18.6875 C128.40474259 25.20422523 122.99480387 32.52684461 117.58007812 39.86865234 C116.08760113 41.88183592 114.57199742 43.87477204 113.046875 45.86328125 C97.69975485 65.7788416 97.69975485 65.7788416 90.5625 89.125 C90.72819646 92.12331681 90.72819646 92.12331681 93 94 C100.37934285 93.61322065 104.17530835 89.16032237 109 84 C122.51373034 68.04197744 132.58316824 48.92007401 143.08984375 30.94140625 C144.83243436 27.96275916 146.60210909 25.00971834 148.44140625 22.08984375 C149.10011719 21.02894531 149.75882813 19.96804687 150.4375 18.875 C150.99308594 18.00617188 151.54867187 17.13734375 152.12109375 16.2421875 C153.28662626 13.99649722 153.28662626 13.99649722 152.16015625 11.6953125 C151.58587891 10.85613281 151.58587891 10.85613281 151 10 C144.20008541 10 139.49230695 14.19215259 134.8125 18.6875 Z M-39 37 C-49.79453003 49.45124447 -63.59168112 69.77321043 -62.44921875 86.80859375 C-62.07832155 89.1922519 -62.07832155 89.1922519 -60.4375 91.75 C-56.86089284 93.58415752 -54.83459187 93.05781845 -51 92 C-48.6830544 90.76429568 -47.00550023 89.64003322 -45 88 C-44.25878906 87.40316406 -43.51757812 86.80632812 -42.75390625 86.19140625 C-31.49954328 76.6225641 -23.7194542 64.43689843 -16 52 C-18.58431187 50.27712542 -21.01627452 49.00615011 -23.8125 47.6875 C-29.32700022 44.95842617 -33.53093032 42.20360452 -37 37 C-37.66 37 -38.32 37 -39 37 Z " fill="#E61C2A" transform="translate(174,60)"/>
<path d="M0 0 C3.61836509 1.05404548 5.54858441 0.22324615 9.0703125 -1.02734375 C26.75043029 -7.20905558 47.09223346 -5.93684746 64.02685547 1.85839844 C74.34904341 6.85563159 84.19176829 12.74122838 93.9609375 18.73144531 C98.49666985 21.48710703 103.10291114 24.12549736 107.6953125 26.78515625 C106.11118112 30.7454847 103.34301044 33.33120703 100.3203125 36.22265625 C96.85249726 39.56529634 93.62994441 42.95344492 90.6953125 46.78515625 C86.29302748 46.21236824 83.0315523 44.46255626 79.3203125 42.16015625 C78.68383789 41.77408203 78.04736328 41.38800781 77.39160156 40.99023438 C73.28777562 38.47280991 69.26594363 35.84651601 65.265625 33.16796875 C56.16377104 27.08385828 47.17512743 21.15638217 37.2578125 16.47265625 C36.50790039 16.11816406 35.75798828 15.76367188 34.98535156 15.3984375 C27.51913575 12.02463912 20.88636712 10.51388742 12.6953125 10.66015625 C12.01597656 10.66917969 11.33664062 10.67820312 10.63671875 10.6875 C8.98942509 10.71070132 7.34231724 10.74655458 5.6953125 10.78515625 C6.0253125 11.44515625 6.3553125 12.10515625 6.6953125 12.78515625 C8.16448933 34.82280865 -3.59816535 54.98362256 -17.20703125 71.40625 C-26.09564567 81.48663396 -35.23414444 90.83122113 -49.3046875 91.78515625 C-53.83124832 91.31956714 -56.67408715 90.29500334 -60.2421875 87.41015625 C-63.03360316 83.85744541 -63.03360316 83.85744541 -63.3046875 80.78515625 C-63.4078125 79.81578125 -63.5109375 78.84640625 -63.6171875 77.84765625 C-63.27586962 57.96588946 -47.78870747 39.10062597 -34.3046875 25.78515625 C-26.85406713 19.03844623 -18.62825104 13.38271965 -10.3046875 7.78515625 C-29.7011264 6.16878634 -47.70405439 22.30406255 -61.6796875 34.03515625 C-75.26436425 45.56350419 -75.26436425 45.56350419 -87.42578125 58.53515625 C-88.96937247 60.38361476 -90.5441892 62.18108375 -92.15234375 63.97265625 C-109.12050692 82.98402494 -123.29015385 104.3398493 -135.3046875 126.78515625 C-135.78397705 127.67581787 -135.78397705 127.67581787 -136.27294922 128.58447266 C-146.20021861 147.19875143 -159.12107385 175.36912125 -153.01953125 196.82421875 C-151.25260483 201.67119722 -149.40623969 205.49227466 -144.8046875 208.22265625 C-138.11709013 211.03588909 -131.66176121 210.93701901 -124.84375 208.59765625 C-115.88157932 204.48257567 -109.13345757 198.81179174 -102.3046875 191.78515625 C-101.44101562 190.91890625 -100.57734375 190.05265625 -99.6875 189.16015625 C-84.76607648 173.54146995 -71.8414601 152.35279372 -71.87109375 130.24609375 C-72.12736042 127.75181816 -72.12736042 127.75181816 -73.625 125.9453125 C-75.41885623 124.4649253 -75.41885623 124.4649253 -78.6171875 124.84765625 C-86.61344596 126.88060332 -90.97538816 132.07669241 -95.3046875 138.78515625 C-98.4925996 144.74387045 -101.11532626 150.43313205 -102.3046875 157.09765625 C-103.42455178 161.24853043 -105.3112568 162.77914588 -109.00341797 164.91503906 C-110.87833056 165.91610583 -112.76591477 166.88762897 -114.66015625 167.8515625 C-122.2588797 171.73675764 -128.50953074 177.85712763 -134.80859375 183.53515625 C-136.3046875 184.78515625 -136.3046875 184.78515625 -137.3046875 184.78515625 C-138.81430296 166.2923669 -127.53356876 143.7029831 -115.9140625 129.95703125 C-106.41545535 119.79185517 -93.44866237 111.05467753 -79.1796875 110.34765625 C-74.10324429 110.53684047 -71.3211562 111.65231067 -67.3046875 114.78515625 C-62.13828499 121.57393516 -61.64567676 128.55229742 -62.3046875 136.78515625 C-65.86045208 159.20685645 -76.68244652 178.66435758 -91.3046875 195.78515625 C-91.97886719 196.59339844 -92.65304687 197.40164062 -93.34765625 198.234375 C-106.55309799 213.556536 -124.70311051 227.97127524 -145.50292969 229.99951172 C-156.93830186 230.77035474 -166.34915981 230.01034709 -175.5546875 222.59765625 C-185.91282146 212.76266037 -189.15629032 200.88870065 -189.5546875 186.91015625 C-188.88408027 133.38350609 -147.81728075 82.06496661 -111.63964844 46.13134766 C-86.68958716 21.90893398 -36.71624032 -19.35381481 0 0 Z M-29.3046875 33.78515625 C-29.93632812 34.35492188 -30.56796875 34.9246875 -31.21875 35.51171875 C-41.56990134 45.07794866 -54.33775594 61.40260809 -54.9296875 76.03515625 C-54.29515146 79.84237248 -54.13403055 80.51486412 -51.3046875 82.78515625 C-46.98817781 83.73268277 -44.25384917 82.43823427 -40.5546875 80.34765625 C-20.68905354 67.55989786 -7.91385194 46.95025069 -2.7109375 24.1875 C-2.3226774 21.89153882 -2.20279555 19.79678132 -2.2421875 17.47265625 C-2.2628125 16.25578125 -2.2834375 15.03890625 -2.3046875 13.78515625 C-11.05834679 13.78515625 -23.44438731 28.06564405 -29.3046875 33.78515625 Z " fill="#E61C2A" transform="translate(540.3046875,5.21484375)"/>
<path d="M0 0 C0.80920898 -0.01401855 1.61841797 -0.02803711 2.45214844 -0.04248047 C8.26142109 0.00454353 12.4275114 1.04639873 16.953125 4.953125 C21.26056223 10.01791383 23.41341115 14.64761501 23.1875 21.4375 C21.85870197 30.55149122 16.49249147 39.94400552 9.80078125 46.140625 C5.94233822 48.98274154 2.95679957 49.97897495 -1.875 49.375 C-4.25 47.9375 -4.25 47.9375 -5.875 45.375 C-6.82026847 39.77773612 -6.14723337 35.07883547 -2.875 30.375 C0.78116749 26.31539334 4.05040807 23.1306109 9.625 22.4375 C10.78 22.416875 11.935 22.39625 13.125 22.375 C12.84348913 21.06028432 12.54946661 19.74824233 12.25 18.4375 C12.08757812 17.70660156 11.92515625 16.97570312 11.7578125 16.22265625 C11.29538477 14.16799706 11.29538477 14.16799706 9.125 13.375 C0.83497455 12.21902036 -5.54554336 14.71027168 -12.875 18.375 C-13.82117188 18.84808594 -14.76734375 19.32117188 -15.7421875 19.80859375 C-36.81545511 31.25897358 -55.53020039 50.3985769 -69.875 69.375 C-70.87056091 70.63296476 -71.86812838 71.88934292 -72.8671875 73.14453125 C-96.88547181 103.57031789 -123.45191564 145.78016715 -118.875 186.375 C-116.61100093 197.9613482 -111.8212842 207.6734872 -101.875 214.375 C-92.2381074 219.21847719 -83.96778368 220.60904014 -73.3125 220.75 C-72.32958984 220.78738281 -71.34667969 220.82476562 -70.33398438 220.86328125 C-46.1243943 221.12818862 -21.57986037 213.3281646 1.69506836 207.45898438 C81.81362635 187.33372836 81.81362635 187.33372836 118.125 199.375 C119.12853516 199.68848389 119.12853516 199.68848389 120.15234375 200.00830078 C139.45697139 206.09801673 168.11854099 221.60037357 178.4453125 239.6875 C178.78175781 240.5228125 178.78175781 240.5228125 179.125 241.375 C175.54799293 240.04386187 172.2284724 238.40172309 168.86254883 236.60791016 C150.75456201 227.08347832 127.39887783 220.46060086 107.125 226.375 C99.0659216 229.18222615 93.77752567 234.10806937 88.125 240.375 C87.650625 239.735625 87.17625 239.09625 86.6875 238.4375 C85.841875 237.426875 84.99625 236.41625 84.125 235.375 C83.28001953 234.35792969 83.28001953 234.35792969 82.41796875 233.3203125 C71.87678745 221.67059397 56.94971389 216.12897652 41.48388672 215.21972656 C11.35597926 213.97617316 -17.32559941 221.51937778 -46.40234375 228.3828125 C-47.07741974 228.54177002 -47.75249573 228.70072754 -48.44802856 228.86450195 C-51.59891743 229.60686927 -54.74805522 230.35532647 -57.89453125 231.11621094 C-81.71901371 236.79292544 -108.55145525 239.9912204 -130.515625 226.9296875 C-142.72182432 218.88652967 -149.83605409 206.77002288 -153.23779297 192.74609375 C-154.30485707 187.10087494 -154.36262464 181.5434167 -154.3125 175.8125 C-154.30492676 174.58740723 -154.29735352 173.36231445 -154.28955078 172.10009766 C-154.10378953 161.7666194 -152.75827051 152.27956815 -149.875 142.375 C-149.67132813 141.64732422 -149.46765625 140.91964844 -149.2578125 140.16992188 C-140.65511021 110.03391232 -123.21479275 84.77887202 -102.875 61.375 C-102.07707031 60.45203125 -101.27914062 59.5290625 -100.45703125 58.578125 C-96.55589526 54.14654195 -92.58332155 50.05459622 -88.0625 46.2578125 C-86.46131345 44.87964836 -84.90425503 43.4497587 -83.375 41.9921875 C-65.65563806 25.10957321 -45.08467386 11.38471661 -21.875 3.375 C-20.42480469 2.86646484 -20.42480469 2.86646484 -18.9453125 2.34765625 C-12.65159702 0.45605478 -6.52891493 0.07840672 0 0 Z " fill="#E61C2A" transform="translate(153.875,-0.375)"/>
<path d="M0 0 C0.495 1.485 0.495 1.485 1 3 C-0.30385474 5.40923041 -1.63736248 7.56832622 -3.1875 9.8125 C-3.64092773 10.47612549 -4.09435547 11.13975098 -4.56152344 11.82348633 C-22.54413622 37.63753311 -47.68959 57.37887448 -79.0703125 63.5390625 C-88.59140779 64.65585101 -99.63316496 65.41473502 -109 63 C-106.58641031 58.53193605 -103.52098289 55.09818408 -100.0625 51.4375 C-99.53720703 50.87353516 -99.01191406 50.30957031 -98.47070312 49.72851562 C-97.44939727 48.63562888 -96.4217742 47.54860326 -95.38720703 46.46826172 C-94.19971214 45.21138135 -93.06117728 43.90855204 -91.93359375 42.59765625 C-89.40008188 40.50431008 -88.23336784 40.6992216 -85 41 C-53.1777951 41.92798653 -24.43798623 22.95127373 -2.16796875 2.0546875 C-1.45253906 1.37664062 -0.73710938 0.69859375 0 0 Z " fill="#E61C2A" transform="translate(767,0)"/>
<path d="M0 0 C2.1818339 0.06611618 4.36259647 0.18493082 6.5390625 0.3515625 C7.65667969 0.39667969 8.77429688 0.44179688 9.92578125 0.48828125 C12.6773944 0.60587156 15.41794714 0.76982461 18.1640625 0.9765625 C16.71330133 9.12198197 13.12217743 18.06068378 6.1640625 22.9765625 C-1.93717379 25.11274251 -10.61931758 24.0219701 -18.8359375 22.9765625 C-17.79512729 21.18439817 -16.75323149 19.3928643 -15.7109375 17.6015625 C-15.13085938 16.60382813 -14.55078125 15.60609375 -13.953125 14.578125 C-13.61845215 14.03236816 -13.2837793 13.48661133 -12.93896484 12.92431641 C-11.7501437 10.90323942 -11.7501437 10.90323942 -10.68994141 8.35302734 C-8.03491205 2.83029187 -6.34532115 0.36210526 0 0 Z " fill="#E61C2A" transform="translate(381.8359375,59.0234375)"/>
</svg>
