<?xml version="1.0" encoding="UTF-8"?>
<svg version="1.1" xmlns="http://www.w3.org/2000/svg" width="177" height="284">
<path d="M0 0 C58.41 0 116.82 0 177 0 C177 93.72 177 187.44 177 284 C118.59 284 60.18 284 0 284 C0 190.28 0 96.56 0 0 Z " fill="#FCF000" transform="translate(0,0)"/>
<path d="M0 0 C3 2 3 2 4 4 C4.33 2.68 4.66 1.36 5 0 C5.886875 0.61875 6.77375 1.2375 7.6875 1.875 C10.47350331 3.66224741 12.94622755 4.81242182 16 6 C16.99 6.99 16.99 6.99 18 8 C20.33628839 8.37723556 22.64304686 8.505155 25.00390625 8.65625 C25.66261719 8.7696875 26.32132812 8.883125 27 9 C27.495 9.99 27.495 9.99 28 11 C26.02 11.33 24.04 11.66 22 12 C25.64170364 14.38986801 29.22409294 15.88846701 33.328125 17.25390625 C35 18 35 18 36 20 C35.30132812 19.9278125 34.60265625 19.855625 33.8828125 19.78125 C32.97273438 19.6884375 32.06265625 19.595625 31.125 19.5 C30.22007813 19.4071875 29.31515625 19.314375 28.3828125 19.21875 C26.06686789 18.96952705 26.06686789 18.96952705 24 19 C24.66 19.33 25.32 19.66 26 20 C26 20.66 26 21.32 26 22 C27.7015625 22.185625 27.7015625 22.185625 29.4375 22.375 C31.2009375 22.684375 31.2009375 22.684375 33 23 C33.495 23.99 33.495 23.99 34 25 C31.69 25 29.38 25 27 25 C27.99 25.66 28.98 26.32 30 27 C31.33790641 27.99387334 32.67218122 28.9926892 34 30 C32.865625 29.835 31.73125 29.67 30.5625 29.5 C28.28867481 29.14367797 28.28867481 29.14367797 26 29 C27.39253532 32.48133831 28.63176216 33.47886033 32 35 C32.33 35.66 32.66 36.32 33 37 C31.5410574 36.52269162 30.08286504 36.04308958 28.625 35.5625 C27.81289062 35.29566406 27.00078125 35.02882812 26.1640625 34.75390625 C24 34 24 34 22 33 C22 33.66 22 34.32 22 35 C22.78375 35.2475 23.5675 35.495 24.375 35.75 C27.44548487 37.21213565 27.6449201 38.01882422 29 41 C31.03317007 42.73425773 31.03317007 42.73425773 33 44 C28.59245089 43.48749429 25.68643389 42.4576226 22 40 C21.34 39.67 20.68 39.34 20 39 C20 39.66 20 40.32 20 41 C20.53625 41.226875 21.0725 41.45375 21.625 41.6875 C24.78500863 43.43382056 27.2676983 45.6402849 30 48 C29.505 48.99 29.505 48.99 29 50 C27.02 49.01 25.04 48.02 23 47 C22.505 47.99 22.505 47.99 22 49 C24.64 50.32 27.28 51.64 30 53 C28.68 53.33 27.36 53.66 26 54 C26.33 54.66 26.66 55.32 27 56 C24.03 56 21.06 56 18 56 C18.94875 56.45375 19.8975 56.9075 20.875 57.375 C24 59 24 59 26 61 C28.58354218 61.16687448 28.58354218 61.16687448 31 61 C30.505 61.99 30.505 61.99 30 63 C25.428721 62.45144652 21.32564205 61.58255197 17 60 C16.67 60.33 16.34 60.66 16 61 C17.65 61.33 19.3 61.66 21 62 C22.125 65.75 22.125 65.75 21 68 C17.7 66.68 14.4 65.36 11 64 C12.78802688 75.26456937 17.79821364 81.30268505 26.59057617 88.25830078 C32.60391782 93.10865365 36.77432443 98.28228457 38 106 C43.75333837 105.02647032 43.75333837 105.02647032 48.375 101.75 C52.4538325 94.84736038 52.91092403 88.33119611 51 80.6875 C49.43651396 74.13898599 48.63250607 67.68614879 51.75 61.5625 C53.75859511 59.27493334 55.7690802 57.07156839 58 55 C58.66 55.33 59.32 55.66 60 56 C59.38125 56.7425 58.7625 57.485 58.125 58.25 C55.0727592 62.19995868 54 63.94053359 54 69 C57.501554 67.5993784 58.46483677 66.37735911 60 63 C61.625 61.25 61.625 61.25 63 60 C62.01737292 64.0942795 61.22556448 66.67132032 58.8125 70.1875 C56.72601372 72.77997177 56.72601372 72.77997177 57.25 75.375 C57.4975 75.91125 57.745 76.4475 58 77 C60.12038635 74.38485683 62.13091744 71.80362384 64 69 C64.37738631 73.52863566 64.37738631 73.52863566 62.5 75.87353516 C60.68837694 78.44177032 60.68096479 79.67200782 60.8125 82.7734375 C60.83570313 83.6809375 60.85890625 84.5884375 60.8828125 85.5234375 C60.96061698 87.41667987 61.03873933 89.3099092 61.1171875 91.203125 C61.25508786 96.61188361 61.1167739 100.33954091 58 105 C55.45269027 107.29257876 52.85081838 109.09945441 50 111 C50.185625 112.051875 50.37125 113.10375 50.5625 114.1875 C50.95079331 117.57119882 50.88247485 119.76425888 50 123 C47.60236815 120.60236815 47.65719414 119.66726502 47.375 116.375 C47.30023438 115.55773437 47.22546875 114.74046875 47.1484375 113.8984375 C47.07496094 112.95871094 47.07496094 112.95871094 47 112 C46.96090438 114.96780211 46.96090438 114.96780211 47.21875 117.7890625 C46.94585002 121.79484432 45.61013857 123.98370587 43.5 127.375 C42.8503125 128.43460938 42.200625 129.49421875 41.53125 130.5859375 C41.0259375 131.38257813 40.520625 132.17921875 40 133 C38.98501953 129.84679401 38.86390939 129.28455309 40.375 126.125 C40.91125 125.09375 41.4475 124.0625 42 123 C42.70758326 119.7633037 42.70758326 119.7633037 43 117 C42.34 117 41.68 117 41 117 C40.67 119.31 40.34 121.62 40 124 C38.62567543 120.18243176 39.32024961 116.92744671 40 113 C39.34 113 38.68 113 38 113 C37.9175 113.86625 37.835 114.7325 37.75 115.625 C35.96277685 123.66750416 30.73714102 126.95907386 24.265625 131.55859375 C21.64159726 133.89770877 21.64159726 133.89770877 21.609375 137.66015625 C21.79265883 140.86888658 21.79265883 140.86888658 23 143 C23.625 145.75 23.625 145.75 23 149 C20.96000185 150.66615233 18.78949166 151.93873839 16.53125 153.29296875 C11.20471441 156.88509229 6.44039386 161.65672705 5 168 C2.47524538 169.26237731 0.68799534 169.09856404 -2.125 169.0625 C-3.03507812 169.05347656 -3.94515625 169.04445312 -4.8828125 169.03515625 C-5.58148438 169.02355469 -6.28015625 169.01195312 -7 169 C-5.62694425 164.506363 -3.72179536 162.76970817 0 160 C0.7425 159.2575 1.485 158.515 2.25 157.75 C5 155 5 155 7.3515625 153.11328125 C12.30568756 149.46706352 12.30568756 149.46706352 14.3125 144.0625 C13.57746094 142.34740887 12.8308251 140.63679184 12.04296875 138.9453125 C8.72283033 131.75789675 6.79544088 125.95159174 9.375 118.1875 C9.65085937 117.47980469 9.92671875 116.77210938 10.2109375 116.04296875 C10.98207566 114.04640806 11.52231969 112.08399741 12 110 C7.45158307 117.10690146 7.14447577 123.67356071 8 132 C8.63863478 133.67760777 9.29982599 135.3471302 10 137 C9.625 139.8125 9.625 139.8125 9 142 C3.26953908 141.06713427 3.26953908 141.06713427 0.8984375 140.4765625 C-3.29800055 139.78658212 -7.44191258 139.81569939 -11.6875 139.8125 C-12.55439453 139.80025391 -13.42128906 139.78800781 -14.31445312 139.77539062 C-15.14267578 139.77345703 -15.97089844 139.77152344 -16.82421875 139.76953125 C-17.57791748 139.76542236 -18.33161621 139.76131348 -19.1081543 139.75708008 C-21.24277915 139.83525053 -21.24277915 139.83525053 -23 142 C-26.80909895 141.67582137 -28.78372163 141.14418558 -32 139 C-32 138.34 -32 137.68 -32 137 C-25.32105883 132.82566177 -15.61193638 133.72806828 -8 133.4375 C-6.93910156 133.39431641 -5.87820312 133.35113281 -4.78515625 133.30664062 C-2.19020849 133.20144004 0.40482084 133.09929881 3 133 C2.31084091 129.22732602 1.30471119 126.33182598 -0.5 122.9375 C-3.02038068 118.18247947 -4.14174704 114.63879892 -4.0625 109.25 C-4.05347656 108.45078125 -4.04445312 107.6515625 -4.03515625 106.828125 C-4.02355469 106.22484375 -4.01195312 105.6215625 -4 105 C-0.59244728 106.92880342 2.74147635 108.8276509 6 111 C5.29875 110.43152344 4.5975 109.86304688 3.875 109.27734375 C-15.71969152 93.33003367 -15.71969152 93.33003367 -21.38671875 84.94921875 C-23.33463233 82.59568636 -25.34348726 81.49206808 -28 80 C-30.55150004 78.19940367 -33.07581044 76.36527866 -35.59765625 74.5234375 C-37.81786709 73.11549892 -39.43461928 72.43842534 -42 72 C-41.71653722 73.91789713 -41.4228972 75.83429183 -41.125 77.75 C-40.96257813 78.81734375 -40.80015625 79.8846875 -40.6328125 80.984375 C-40.14774799 83.93104543 -40.14774799 83.93104543 -38.9296875 86.140625 C-38 88 -38 88 -38 92 C-36.68 92.33 -35.36 92.66 -34 93 C-34 95.64 -34 98.28 -34 101 C-35.98 101.495 -35.98 101.495 -38 102 C-45.87279321 90.31711169 -47.50078888 79.88298055 -47 66 C-48.46410573 69.28297553 -49.00800564 70.88591958 -48.75 74.5625 C-48.8325 75.696875 -48.915 76.83125 -49 78 C-53.71794872 82 -53.71794872 82 -57 82 C-57.22991927 77.28665497 -56.57210668 73.45430227 -55 69 C-54.01 68.505 -54.01 68.505 -53 68 C-52.29832556 66.3477666 -51.63960518 64.67723804 -51 63 C-49.90532477 60.79716832 -48.77812325 58.61030648 -47.625 56.4375 C-47.03976563 55.32246094 -46.45453125 54.20742187 -45.8515625 53.05859375 C-42.78186997 47.98777254 -42.78186997 47.98777254 -40 46 C-35.01806239 45.9933218 -32.33330035 47.90543348 -28.625 51.0625 C-27.31402344 52.16271484 -27.31402344 52.16271484 -25.9765625 53.28515625 C-25.32429688 53.85105469 -24.67203125 54.41695312 -24 55 C-21.26150756 53.94496941 -18.83182098 52.89831036 -16.3125 51.375 C-14 50 -14 50 -12 50 C-11.73960938 49.42507812 -11.47921875 48.85015625 -11.2109375 48.2578125 C-9.91335203 45.83844347 -8.39525079 43.96992561 -6.625 41.875 C-2.95143392 37.2657866 -0.86778358 32.55694617 1 27 C-0.010625 27.020625 -1.02125 27.04125 -2.0625 27.0625 C-6 27 -6 27 -9.625 26.4375 C-12.80578372 26.02517619 -14.93676558 26.16457243 -18 27 C-18.495 26.01 -18.495 26.01 -19 25 C-18.505 24.505 -18.505 24.505 -18 24 C-18.99 24 -19.98 24 -21 24 C-21 22 -21 22 -19.5 20.375 C-19.005 19.92125 -18.51 19.4675 -18 19 C-18.66 19 -19.32 19 -20 19 C-20.33 19.66 -20.66 20.32 -21 21 C-20.42655063 18.13275314 -20.1385485 17.1385485 -18 15 C-16.43548925 14.46255116 -14.84779044 13.99099835 -13.25 13.5625 C-9.2347474 12.42193549 -5.66937234 11.02781103 -2 9 C-2 8.67 -2 8.34 -2 8 C-4.31 7.67 -6.62 7.34 -9 7 C-8.67 6.34 -8.34 5.68 -8 5 C-7.34 5 -6.68 5 -6 5 C-6 4.34 -6 3.68 -6 3 C-5.195625 2.87625 -4.39125 2.7525 -3.5625 2.625 C-2.716875 2.41875 -1.87125 2.2125 -1 2 C-0.67 1.34 -0.34 0.68 0 0 Z " fill="#0D0D08" transform="translate(85,55)"/>
<path d="M0 0 C58.41 0 116.82 0 177 0 C177 93.72 177 187.44 177 284 C118.59 284 60.18 284 0 284 C0 190.28 0 96.56 0 0 Z M4 16 C3.94175015 62.31542605 3.94175015 62.31542605 3.90234375 108.63085938 C3.89842782 114.86938487 3.89438681 121.10791027 3.89013672 127.34643555 C3.88960922 128.12836633 3.88908172 128.91029712 3.88853824 129.71592277 C3.87983233 142.35054252 3.86406067 154.98514412 3.84569441 167.6197531 C3.82701165 180.57987867 3.81588672 193.53999473 3.81182301 206.50013322 C3.80907457 214.50149805 3.8003843 222.50281161 3.78416707 230.50416066 C3.772376 236.63275036 3.77108454 242.76130072 3.77378464 248.88990021 C3.77323234 251.40907037 3.76922672 253.9282424 3.76158905 256.44740105 C3.75170223 259.87522916 3.75400818 263.3028343 3.75949097 266.73066711 C3.75366528 267.7374661 3.7478396 268.74426508 3.74183738 269.78157312 C3.74581948 270.69671251 3.74980158 271.6118519 3.75390434 272.55472279 C3.7531449 273.34643967 3.75238546 274.13815656 3.75160301 274.95386487 C3.88186544 277.31071438 3.88186544 277.31071438 6 280 C8.93069655 280.45833937 8.93069655 280.45833937 12.44639587 280.38095093 C13.11569061 280.3856309 13.78498535 280.39031087 14.47456175 280.39513266 C16.72795021 280.40714422 18.98073738 280.39760192 21.23413086 280.38818359 C22.84530494 280.39224662 24.45647623 280.39758698 26.06764221 280.40411377 C30.45195199 280.41782637 34.83605072 280.41247226 39.22036433 280.40297651 C43.80207194 280.39539896 48.38376107 280.40242033 52.96546936 280.40713501 C60.66182714 280.41259869 68.35809866 280.40538551 76.05444336 280.39111328 C84.95904742 280.37479137 93.86344537 280.38006945 102.76804441 280.3965925 C110.40460443 280.41019687 118.04110232 280.41213199 125.67767054 280.40427649 C130.24241773 280.39959344 134.807068 280.39899229 139.37180901 280.40888596 C143.66378001 280.41753792 147.95548481 280.41156628 152.24742699 280.39420319 C153.82485766 280.39022859 155.40231065 280.39138896 156.97973251 280.39799118 C159.12899994 280.40615892 161.27740818 280.39594412 163.42662048 280.38095093 C165.23266455 280.37925431 165.23266455 280.37925431 167.07519436 280.37752342 C169.94992887 280.25077696 169.94992887 280.25077696 171.65972888 278.75423461 C173.35822728 276.53112868 173.37314328 275.33457636 173.36914349 272.55472279 C173.37511663 271.6395834 173.38108978 270.724444 173.38724393 269.78157312 C173.3785054 268.77477414 173.36976688 267.76797516 173.36076355 266.73066711 C173.36332682 265.66229667 173.3658901 264.59392623 173.36853105 263.49318093 C173.373492 259.89544931 173.35693759 256.29813273 173.34057617 252.70043945 C173.3397304 250.12860118 173.34020406 247.55676217 173.34190369 244.98492432 C173.34347809 239.43879676 173.33405153 233.89277493 173.31719017 228.34667397 C173.29282726 220.32792343 173.28499769 212.30922412 173.2812262 204.29044058 C173.27465745 191.28108178 173.25468482 178.27177936 173.22631836 165.26245117 C173.19878873 152.62378212 173.17758419 139.98512846 173.16479492 127.34643555 C173.16399093 126.55967125 173.16318694 125.77290695 173.16235858 124.96230131 C173.15612045 118.80944899 173.15024963 112.65659632 173.14449489 106.50374353 C173.1161848 76.33577728 173.05583211 46.16795212 173 16 C117.23 16 61.46 16 4 16 Z " fill="#030301" transform="translate(0,0)"/>
<path d="M0 0 C55.77 0 111.54 0 169 0 C169 7.92 169 15.84 169 24 C113.23 24 57.46 24 0 24 C0 16.08 0 8.16 0 0 Z " fill="#ED1F20" transform="translate(4,16)"/>
<path d="M0 0 C0.65804737 -0.00467997 1.31609473 -0.00935994 1.99408293 -0.01418173 C4.19747331 -0.02614084 6.40024277 -0.01667144 8.6036377 -0.00723267 C10.18392805 -0.01129798 11.76421556 -0.01663963 13.34449768 -0.02316284 C17.63578565 -0.0368471 21.9268574 -0.03153325 26.21814919 -0.02202559 C30.70728771 -0.01443473 35.19640763 -0.021473 39.68554688 -0.02618408 C47.22452115 -0.03164331 54.76340727 -0.02444564 62.30236816 -0.01016235 C71.02067933 0.00616449 79.73878002 0.0008761 88.45708609 -0.01564157 C95.9399882 -0.02925168 103.42282691 -0.03117843 110.9057374 -0.02332556 C115.37603105 -0.01864643 119.84622575 -0.01803078 124.31651306 -0.02793503 C128.51905109 -0.03659552 132.72131755 -0.03059969 136.92382622 -0.01325226 C138.46697476 -0.00928249 140.01014611 -0.01042984 141.5532856 -0.01704025 C143.65831041 -0.02522685 145.76246258 -0.01497035 147.86743164 0 C149.63501202 0.00169662 149.63501202 0.00169662 151.43830109 0.00342751 C154.43371582 0.38095093 154.43371582 0.38095093 158.43371582 3.38095093 C158.43371582 6.68095093 158.43371582 9.98095093 158.43371582 13.38095093 C102.66371582 13.38095093 46.89371582 13.38095093 -10.56628418 13.38095093 C-10.56628418 10.08095093 -10.56628418 6.78095093 -10.56628418 3.38095093 C-6.17748796 0.08935376 -5.23287456 0.00502278 0 0 Z " fill="#03964D" transform="translate(14.5662841796875,2.619049072265625)"/>
<path d="M0 0 C55.77 0 111.54 0 169 0 C169 3.96 169 7.92 169 12 C113.23 12 57.46 12 0 12 C0 8.04 0 4.08 0 0 Z " fill="#FEFAFA" transform="translate(4,16)"/>
<path d="M0 0 C1.98 0 3.96 0 6 0 C5.02550604 0.89770772 5.02550604 0.89770772 4.03132534 1.81355095 C1.06090128 6.4731221 1.44918932 10.56297504 1.49879456 15.98318481 C1.49326016 17.10423359 1.48772576 18.22528236 1.48202366 19.38030231 C1.46838784 23.14454672 1.48340301 26.9081315 1.49829102 30.67236328 C1.49450895 33.36772488 1.48916268 36.06304208 1.48191833 38.75839233 C1.46798254 45.32342859 1.47554402 51.88827256 1.49059392 58.45329966 C1.50744722 66.09556254 1.50424471 73.73777743 1.50049984 81.38005315 C1.49462085 95.01268501 1.50879542 108.6452245 1.53344727 122.27783203 C1.5573776 135.51289327 1.56444793 148.74783116 1.55395508 161.98291016 C1.54255303 176.39064485 1.54060623 190.79832248 1.55505317 205.20605648 C1.55657904 206.74143465 1.5580994 208.27681283 1.55961418 209.81219101 C1.560372 210.56766015 1.56112981 211.32312929 1.56191059 212.10149143 C1.56665821 217.43165399 1.56479867 222.7617911 1.56054878 228.09195328 C1.55562886 234.58387825 1.56157646 241.07568646 1.58144308 247.56758465 C1.59133337 250.88139391 1.59479966 254.19498815 1.58855057 257.50881195 C1.58263184 261.09632832 1.59503759 264.68331406 1.61231995 268.27078247 C1.6063099 269.32475318 1.60029986 270.37872389 1.59410769 271.46463311 C1.60254763 272.42197315 1.61098757 273.37931319 1.61968327 274.36566353 C1.6207124 275.19416097 1.62174152 276.02265841 1.62280184 276.87626183 C2.09305028 279.52390081 2.85947099 280.41056139 5 282 C8.08374102 282.45509784 8.08374102 282.45509784 11.68054199 282.38095093 C12.36294181 282.3856309 13.04534163 282.39031087 13.74842024 282.39513266 C16.04015884 282.4071202 18.3313036 282.3976112 20.62304688 282.38818359 C22.26392466 282.39224764 23.90479971 282.39758858 25.54566956 282.40411377 C30.00636288 282.41781308 34.4668485 282.41247798 38.92754555 282.40297651 C43.59065953 282.39539343 48.25375545 282.40242176 52.91687012 282.40713501 C60.74848633 282.41259651 68.58001774 282.40539062 76.41162109 282.39111328 C85.47245502 282.374786 94.53308645 282.38007423 103.59391546 282.3965925 C111.36637531 282.41019614 119.13877411 282.41213253 126.91124201 282.40427649 C131.55645728 282.39959379 136.2015773 282.39899147 140.8467865 282.40888596 C145.21345968 282.41753706 149.57987119 282.41156786 153.94651604 282.39420319 C155.55136111 282.39022838 157.15622811 282.39138932 158.76106453 282.39799118 C160.94749536 282.4061579 163.13308139 282.39594534 165.31945801 282.38095093 C166.5443116 282.37981985 167.76916519 282.37868877 169.03113556 282.37752342 C171.94168329 282.2537737 171.94168329 282.2537737 173.66195881 280.76639998 C175.38630115 278.4900289 175.37585589 277.20031342 175.37752342 274.3600769 C175.38534666 273.40150347 175.39316991 272.44293003 175.40123022 271.45530891 C175.39453805 270.39997396 175.38784589 269.34463902 175.38095093 268.25732422 C175.38797089 266.57831433 175.38797089 266.57831433 175.39513266 264.86538506 C175.40714862 261.09503386 175.39759946 257.32504173 175.38818359 253.5546875 C175.39224636 250.8596286 175.39747757 248.16459488 175.40411377 245.46954346 C175.41747336 238.89758306 175.4145635 232.32572528 175.40587585 225.75376081 C175.39910844 220.41393661 175.39817849 215.07414122 175.4014473 209.73431396 C175.40213684 208.59554945 175.40213684 208.59554945 175.40284032 207.4337796 C175.40379947 205.89166338 175.40477211 204.34954718 175.4057581 202.80743098 C175.41431851 188.3374172 175.40446767 173.86746037 175.388357 159.39745593 C175.37495322 146.97392646 175.37728113 134.55048108 175.39111328 122.12695312 C175.40715762 107.70971606 175.41349448 93.29252894 175.40427649 78.87528419 C175.40332081 77.33875148 175.4023777 75.80221876 175.4014473 74.26568604 C175.40098447 73.50962692 175.40052164 72.75356781 175.40004479 71.97459781 C175.39745145 66.63944545 175.40183328 61.30432471 175.40888596 55.96917725 C175.41728844 49.46989167 175.41504731 42.97071482 175.39904372 36.47144175 C175.39114399 33.15359106 175.38970536 29.83595995 175.39799118 26.51810455 C175.40613717 22.92611146 175.39596895 19.33463554 175.38095093 15.74267578 C175.39098918 14.15967336 175.39098918 14.15967336 175.40123022 12.54469109 C175.39340697 11.58611765 175.38558373 10.62754421 175.37752342 9.6399231 C175.37703637 8.81034151 175.37654931 7.98075993 175.37604749 7.12603951 C174.90564392 4.46654412 174.08207201 3.67051394 172 2 C171.01 1.34 170.02 0.68 169 0 C171.64 0 174.28 0 177 0 C177 93.72 177 187.44 177 284 C118.59 284 60.18 284 0 284 C0 190.28 0 96.56 0 0 Z " fill="#888888" transform="translate(0,0)"/>
<path d="M0 0 C41.25 0 82.5 0 125 0 C125 0.99 125 1.98 125 3 C86.72 3 48.44 3 9 3 C9 6.3 9 9.6 9 13 C10.32 13 11.64 13 13 13 C13 12.01 13 11.02 13 10 C13.99 10 14.98 10 16 10 C16 12.97 16 15.94 16 19 C15.01 19 14.02 19 13 19 C13 18.01 13 17.02 13 16 C11.68 16 10.36 16 9 16 C9 19.63 9 23.26 9 27 C10.98 27 12.96 27 15 27 C15 27.99 15 28.98 15 30 C9.72 30 4.44 30 -1 30 C-1 29.01 -1 28.02 -1 27 C0.32 27 1.64 27 3 27 C3 19.08 3 11.16 3 3 C2.01 3 1.02 3 0 3 C0 2.01 0 1.02 0 0 Z " fill="#030300" transform="translate(20,237)"/>
<path d="M0 0 C1.0725 -0.01417969 2.145 -0.02835938 3.25 -0.04296875 C6 0.1875 6 0.1875 8 2.1875 C8.14517744 5.0968558 8.18630796 7.907446 8.125 10.8125 C8.11597656 11.61429687 8.10695313 12.41609375 8.09765625 13.2421875 C8.07406223 15.22408523 8.03819065 17.20582981 8 19.1875 C8.66 19.1875 9.32 19.1875 10 19.1875 C10 20.1775 10 21.1675 10 22.1875 C7.20807795 22.24130578 4.4171859 22.28107669 1.625 22.3125 C0.8309375 22.32925781 0.036875 22.34601563 -0.78125 22.36328125 C-2.85492015 22.38085473 -4.92883241 22.29085168 -7 22.1875 C-9 20.1875 -9 20.1875 -9.265625 18.3125 C-9.26046875 17.61125 -9.2553125 16.91 -9.25 16.1875 C-9.25515625 15.48625 -9.2603125 14.785 -9.265625 14.0625 C-9 12.1875 -9 12.1875 -7 10.1875 C-4.8359375 9.9921875 -4.8359375 9.9921875 -2.375 10.0625 C-1.14910156 10.08957031 -1.14910156 10.08957031 0.1015625 10.1171875 C1.04128906 10.15199219 1.04128906 10.15199219 2 10.1875 C2 7.8775 2 5.5675 2 3.1875 C0.35 3.1875 -1.3 3.1875 -3 3.1875 C-3 4.5075 -3 5.8275 -3 7.1875 C-4.98 7.1875 -6.96 7.1875 -9 7.1875 C-8.625 4.25 -8.625 4.25 -8 1.1875 C-5.27457733 -0.17521133 -3.03912726 0.01826399 0 0 Z " fill="#0A0900" transform="translate(112,244.8125)"/>
<path d="M0 0 C1.1653125 0.01417969 2.330625 0.02835938 3.53125 0.04296875 C5.27921875 0.05263672 5.27921875 0.05263672 7.0625 0.0625 C10.03125 0.23046875 10.03125 0.23046875 12.03125 1.23046875 C12.03125 4.86046875 12.03125 8.49046875 12.03125 12.23046875 C8.07125 12.23046875 4.11125 12.23046875 0.03125 12.23046875 C0.36125 14.21046875 0.69125 16.19046875 1.03125 18.23046875 C2.68125 18.23046875 4.33125 18.23046875 6.03125 18.23046875 C6.36125 17.24046875 6.69125 16.25046875 7.03125 15.23046875 C8.68125 15.23046875 10.33125 15.23046875 12.03125 15.23046875 C12.07379356 17.23001621 12.07205783 19.23088511 12.03125 21.23046875 C10.09783053 23.16388822 6.65645879 22.40496008 4.09375 22.41796875 C2.82660156 22.43214844 1.55945312 22.44632812 0.25390625 22.4609375 C-2.96875 22.23046875 -2.96875 22.23046875 -4.96875 20.23046875 C-5.22753906 18.3828125 -5.22753906 18.3828125 -5.234375 16.16796875 C-5.23695312 15.37132812 -5.23953125 14.5746875 -5.2421875 13.75390625 C-5.23445313 12.92117188 -5.22671875 12.0884375 -5.21875 11.23046875 C-5.22648437 10.39773437 -5.23421875 9.565 -5.2421875 8.70703125 C-5.23960938 7.91039062 -5.23703125 7.11375 -5.234375 6.29296875 C-5.23211914 5.56207031 -5.22986328 4.83117187 -5.22753906 4.078125 C-4.745828 0.63888976 -3.25457441 0.25265775 0 0 Z " fill="#080800" transform="translate(44.96875,244.76953125)"/>
<path d="M0 0 C2.31 0 4.62 0 7 0 C7.33 1.32 7.66 2.64 8 4 C8.37125 3.34 8.7425 2.68 9.125 2 C11 0 11 0 14.125 -0.3125 C17 0 17 0 18 1 C18.07244053 3.01964199 18.08377188 5.04167124 18.0625 7.0625 C18.05347656 8.16722656 18.04445312 9.27195313 18.03515625 10.41015625 C18.02355469 11.26480469 18.01195312 12.11945313 18 13 C16.02 13 14.04 13 12 13 C11.67 10.69 11.34 8.38 11 6 C7.25474201 9.74525799 7.31090051 13.98270909 7 19 C7.66 19 8.32 19 9 19 C9 19.99 9 20.98 9 22 C5.7 22 2.4 22 -1 22 C-1 21.01 -1 20.02 -1 19 C-0.01 19 0.98 19 2 19 C2 13.72 2 8.44 2 3 C1.34 3 0.68 3 0 3 C0 2.01 0 1.02 0 0 Z " fill="#0E0D00" transform="translate(125,245)"/>
<path d="M0 0 C0 0.66 0 1.32 0 2 C0.66 2 1.32 2 2 2 C2.33 1.34 2.66 0.68 3 0 C4.61949011 2.57213134 5.04408751 3.67669159 4.625 6.75 C4.41875 7.4925 4.2125 8.235 4 9 C-1.73046092 8.06713427 -1.73046092 8.06713427 -4.1015625 7.4765625 C-8.29800055 6.78658212 -12.44191258 6.81569939 -16.6875 6.8125 C-17.55439453 6.80025391 -18.42128906 6.78800781 -19.31445312 6.77539062 C-20.14267578 6.77345703 -20.97089844 6.77152344 -21.82421875 6.76953125 C-22.57791748 6.76542236 -23.33161621 6.76131348 -24.1081543 6.75708008 C-26.24277915 6.83525053 -26.24277915 6.83525053 -28 9 C-31.80909895 8.67582137 -33.78372163 8.14418558 -37 6 C-37 5.34 -37 4.68 -37 4 C-30.35304106 -0.15434933 -20.7034029 0.72934506 -13.125 0.4375 C-12.08085938 0.39431641 -11.03671875 0.35113281 -9.9609375 0.30664062 C-2.44580853 0 -2.44580853 0 0 0 Z " fill="#141300" transform="translate(90,188)"/>
<path d="M0 0 C2.31 0 4.62 0 7 0 C7.33 1.32 7.66 2.64 8 4 C8.37125 3.34 8.7425 2.68 9.125 2 C11 0 11 0 14.125 -0.3125 C17 0 17 0 18 1 C18.07244053 3.01964199 18.08377188 5.04167124 18.0625 7.0625 C18.05347656 8.16722656 18.04445313 9.27195313 18.03515625 10.41015625 C18.02355469 11.26480469 18.01195313 12.11945313 18 13 C16.02 13 14.04 13 12 13 C11.67 10.69 11.34 8.38 11 6 C7.25474201 9.74525799 7.31090051 13.98270909 7 19 C7.66 19 8.32 19 9 19 C9 19.99 9 20.98 9 22 C6.03 22 3.06 22 0 22 C0 21.01 0 20.02 0 19 C0.66 19 1.32 19 2 19 C2 13.72 2 8.44 2 3 C1.34 3 0.68 3 0 3 C0 2.01 0 1.02 0 0 Z " fill="#0C0B00" transform="translate(82,245)"/>
<path d="M0 0 C2.64 0 5.28 0 8 0 C8.33 0.99 8.66 1.98 9 3 C9.391875 2.505 9.78375 2.01 10.1875 1.5 C12 0 12 0 14.625 -0.25 C17 0 17 0 18 1 C18.07226502 2.85287502 18.0838122 4.70833878 18.0625 6.5625 C18.05347656 7.57441406 18.04445313 8.58632812 18.03515625 9.62890625 C18.02355469 10.41136719 18.01195313 11.19382812 18 12 C16.35 12 14.7 12 13 12 C13 9.36 13 6.72 13 4 C12.34 4 11.68 4 11 4 C8.5978396 8.8043208 8.38877771 13.73103895 8 19 C8.66 19 9.32 19 10 19 C10 19.99 10 20.98 10 22 C6.7 22 3.4 22 0 22 C0 21.01 0 20.02 0 19 C0.66 19 1.32 19 2 19 C2 13.72 2 8.44 2 3 C1.34 3 0.68 3 0 3 C0 2.01 0 1.02 0 0 Z " fill="#090800" transform="translate(61,245)"/>
<path d="M0 0 C2.64 0 5.28 0 8 0 C8 6.27 8 12.54 8 19 C8.66 19 9.32 19 10 19 C10 19.99 10 20.98 10 22 C6.7 22 3.4 22 0 22 C0 21.01 0 20.02 0 19 C0.66 19 1.32 19 2 19 C2 13.72 2 8.44 2 3 C1.34 3 0.68 3 0 3 C0 2.01 0 1.02 0 0 Z " fill="#030300" transform="translate(146,245)"/>
<path d="M0 0 C1.16015625 -0.05607422 1.16015625 -0.05607422 2.34375 -0.11328125 C3.40142578 -0.16935547 3.40142578 -0.16935547 4.48046875 -0.2265625 C7.58781033 0.38151691 9.32720434 2.13122199 11.65625 4.19921875 C10.59664062 4.32039062 9.53703125 4.4415625 8.4453125 4.56640625 C7.05723676 4.73522627 5.66921881 4.90452183 4.28125 5.07421875 C3.58257812 5.15285156 2.88390625 5.23148438 2.1640625 5.3125 C-2.03447159 5.7514232 -2.03447159 5.7514232 -5.34375 8.19921875 C-9.15284895 7.87504012 -11.12747163 7.34340433 -14.34375 5.19921875 C-14.34375 4.53921875 -14.34375 3.87921875 -14.34375 3.19921875 C-9.93204455 0.44190284 -5.03193682 0.42771463 0 0 Z " fill="#0E0E06" transform="translate(67.34375,188.80078125)"/>
<path d="M0 0 C4.55015893 1.51671964 6.50057264 5.16891053 9 9 C8.16855469 8.91621094 7.33710937 8.83242187 6.48046875 8.74609375 C5.39378906 8.64425781 4.30710937 8.54242188 3.1875 8.4375 C2.10855469 8.33308594 1.02960937 8.22867188 -0.08203125 8.12109375 C-3.06482454 7.82422391 -3.06482454 7.82422391 -6 9 C-4.47291037 5.56404834 -2.40072955 2.88087546 0 0 Z " fill="#EAE200" transform="translate(45,111)"/>
<path d="M0 0 C3.96 0 7.92 0 12 0 C13.35439668 2.70879335 13.06501451 5.00933268 13 8 C12.67 8 12.34 8 12 8 C12 6.35 12 4.7 12 3 C10.35 3 8.7 3 7 3 C6.67 4.32 6.34 5.64 6 7 C4.33388095 7.042721 2.66617115 7.04063832 1 7 C0.67 6.67 0.34 6.34 0 6 C0 4.02 0 2.04 0 0 Z " fill="#CCC500" transform="translate(45,257)"/>
<path d="M0 0 C1.98 0 3.96 0 6 0 C6 2.31 6 4.62 6 7 C4.02 7 2.04 7 0 7 C0 4.69 0 2.38 0 0 Z " fill="#EEE700" transform="translate(46,248)"/>
<path d="M0 0 C1.2065625 0.0309375 1.2065625 0.0309375 2.4375 0.0625 C2.4375 2.3725 2.4375 4.6825 2.4375 7.0625 C0.77138095 7.105221 -0.89632885 7.10313832 -2.5625 7.0625 C-3.5625 6.0625 -3.5625 6.0625 -3.6875 3.5625 C-3.51717518 0.15600356 -3.41884482 0.08338646 0 0 Z " fill="#F4EB00" transform="translate(111.5625,256.9375)"/>
<path d="M0 0 C0.66 0 1.32 0 2 0 C3.48046875 1.50390625 3.48046875 1.50390625 5.1875 3.5625 C8.60201725 7.58675247 12.21845349 11.32190005 16 15 C11.93645091 15 10.94829419 13.47015238 8 10.75 C7.13375 9.96109375 6.2675 9.1721875 5.375 8.359375 C3.32652682 6.32437862 1.57039254 4.41757799 0 2 C0 1.34 0 0.68 0 0 Z " fill="#D4D4D4" transform="translate(68,139)"/>
<path d="M0 0 C2.37160148 2.37160148 2.31983352 3.00621122 2.375 6.25 C2.27112438 10.85762575 1.08890536 13.48208001 -2 17 C-3.31060411 17.71030916 -4.64144346 18.38636627 -6 19 C-5.65066406 18.55011719 -5.30132812 18.10023438 -4.94140625 17.63671875 C-0.88357762 11.90058139 -0.14049435 6.94808431 0 0 Z " fill="#CCCCCC" transform="translate(140,142)"/>
<path d="M0 0 C1.65 0 3.3 0 5 0 C5 2.31 5 4.62 5 7 C2.36 7 -0.28 7 -3 7 C-2.01 6.34 -1.02 5.68 0 5 C0.25030977 2.41619823 0.25030977 2.41619823 0 0 Z " fill="#ECE400" transform="translate(109,248)"/>
<path d="M0 0 C4.29 0 8.58 0 13 0 C12.01 0.495 12.01 0.495 11 1 C11 1.66 11 2.32 11 3 C9.54257537 3.08096803 8.08387193 3.13917774 6.625 3.1875 C5.81289062 3.22230469 5.00078125 3.25710937 4.1640625 3.29296875 C3.44992188 3.19628906 2.73578125 3.09960938 2 3 C1.34 2.01 0.68 1.02 0 0 Z " fill="#848255" transform="translate(74,189)"/>
<path d="M0 0 C3.77545388 1.09068668 6.47043472 1.9083091 9 5 C8.01 5.66 7.02 6.32 6 7 C2.535 5.02 2.535 5.02 -1 3 C-0.67 2.01 -0.34 1.02 0 0 Z " fill="#CCC500" transform="translate(107,101)"/>
<path d="M0 0 C2.31 0.66 4.62 1.32 7 2 C7.84454356 5.37817425 8.10844919 7.67465243 7 11 C5.515 8.03 5.515 8.03 4 5 C4.33 4.67 4.66 4.34 5 4 C2.525 3.01 2.525 3.01 0 2 C0 1.34 0 0.68 0 0 Z " fill="#ADA900" transform="translate(101,114)"/>
<path d="M0 0 C3.40312738 1.05875074 6.01353231 2.00902154 9 4 C8.67 5.32 8.34 6.64 8 8 C6.66102417 7.04956626 5.32894573 6.08940853 4 5.125 C3.2575 4.59132813 2.515 4.05765625 1.75 3.5078125 C1.1725 3.01023437 0.595 2.51265625 0 2 C0 1.34 0 0.68 0 0 Z " fill="#DCD600" transform="translate(105,94)"/>
<path d="M0 0 C0.99 0.66 1.98 1.32 3 2 C3 2.66 3 3.32 3 4 C1.865625 4.12375 0.73125 4.2475 -0.4375 4.375 C-2.2009375 4.684375 -2.2009375 4.684375 -4 5 C-4.33 5.66 -4.66 6.32 -5 7 C-6.32 6.67 -7.64 6.34 -9 6 C-8.01 5.67 -7.02 5.34 -6 5 C-6 4.34 -6 3.68 -6 3 C-5.195625 2.87625 -4.39125 2.7525 -3.5625 2.625 C-2.716875 2.41875 -1.87125 2.2125 -1 2 C-0.67 1.34 -0.34 0.68 0 0 Z " fill="#716E00" transform="translate(85,55)"/>
<path d="M0 0 C0.66 0.33 1.32 0.66 2 1 C1.375 2.9375 1.375 2.9375 0 5 C-3.125 5.75 -3.125 5.75 -6 6 C-6 5.01 -6 4.02 -6 3 C-4.03533587 1.93224776 -2.03144641 0.93446535 0 0 Z " fill="#54544D" transform="translate(80,65)"/>
<path d="M0 0 C0.598125 0.763125 1.19625 1.52625 1.8125 2.3125 C3.46959332 4.3483575 5.10297674 6.1978279 7 8 C4.69 8 2.38 8 0 8 C0 5.36 0 2.72 0 0 Z " fill="#ECECEC" transform="translate(0,276)"/>
<path d="M0 0 C1.98 0 3.96 0 6 0 C6 1.32 6 2.64 6 4 C4.02 4 2.04 4 0 4 C0 2.68 0 1.36 0 0 Z " fill="#161500" transform="translate(148,236)"/>
<path d="M0 0 C0.33 0 0.66 0 1 0 C1 2.31 1 4.62 1 7 C-1.31 7 -3.62 7 -6 7 C-5.02433888 5.83040013 -4.044375 4.66438823 -3.0625 3.5 C-2.51722656 2.8503125 -1.97195312 2.200625 -1.41015625 1.53125 C-0.71212891 0.77328125 -0.71212891 0.77328125 0 0 Z " fill="#F0F0F0" transform="translate(176,277)"/>
<path d="M0 0 C2.64 0 5.28 0 8 0 C8 1.98 8 3.96 8 6 C7.236875 5.38125 6.47375 4.7625 5.6875 4.125 C3.00374191 1.94402948 3.00374191 1.94402948 0 0 Z " fill="#E7E7E7" transform="translate(169,0)"/>
<path d="M0 0 C0.33 2.64 0.66 5.28 1 8 C0.01 8.66 -0.98 9.32 -2 10 C-2.33 7.03 -2.66 4.06 -3 1 C-1 0 -1 0 0 0 Z " fill="#717064" transform="translate(41,130)"/>
<path d="M0 0 C1.53445094 3.06890187 0.54984289 5.70094266 0 9 C-0.99 9 -1.98 9 -3 9 C-2.25 2.25 -2.25 2.25 0 0 Z " fill="#CAC400" transform="translate(38,120)"/>
<path d="M0 0 C0.66 0.33 1.32 0.66 2 1 C0.07423885 3.43929746 -1.80090595 5.80090595 -4 8 C-4.66 8 -5.32 8 -6 8 C-4.55746343 4.63408134 -2.66735273 2.48952921 0 0 Z " fill="#191700" transform="translate(143,110)"/>
<path d="M0 0 C1.98 0 3.96 0 6 0 C4.35830472 2.02054804 2.69088222 4.02043058 1 6 C0.67 6 0.34 6 0 6 C0 4.02 0 2.04 0 0 Z " fill="#F8F8F8" transform="translate(0,0)"/>
<path d="M0 0 C3.7952131 1.49097658 5.61042731 3.75700849 8 7 C5.05043472 5.63055898 2.47531189 4.12169591 0 2 C0 1.34 0 0.68 0 0 Z " fill="#BFBFBE" transform="translate(76,148)"/>
</svg>
