<?xml version="1.0" encoding="UTF-8"?>
<svg version="1.1" xmlns="http://www.w3.org/2000/svg" width="1024" height="1024">
<path d="M0 0 C337.92 0 675.84 0 1024 0 C1024 337.92 1024 675.84 1024 1024 C686.08 1024 348.16 1024 0 1024 C0 686.08 0 348.16 0 0 Z " fill="#E2000A" transform="translate(0,0)"/>
<path d="M0 0 C3.28226459 -0.0043783 6.56318603 -0.04084371 9.84521484 -0.07861328 C36.19319616 -0.21972196 62.55963772 5.61069744 82.28271484 24.22216797 C89.41943359 31.39802777 89.41943359 31.39802777 89.41943359 34.37060547 C90.67820312 33.3709375 90.67820312 33.3709375 91.96240234 32.35107422 C112.45017692 16.49003978 135.11998579 7.17641315 160.41943359 2.37060547 C161.67566528 2.10135254 161.67566528 2.10135254 162.95727539 1.82666016 C171.65523089 0.12233615 180.22623976 0.06584988 189.0534668 0.10986328 C191.58520874 0.12051407 194.11622972 0.10995071 196.64794922 0.09716797 C228.34535957 0.07016896 262.21191909 6.3493897 285.92919922 28.88232422 C292.07907641 35.02414128 297.32425773 41.69215072 301.41943359 49.37060547 C302.07943359 49.70060547 302.73943359 50.03060547 303.41943359 50.37060547 C303.76554688 49.53916016 303.76554688 49.53916016 304.11865234 48.69091797 C315.23560567 28.86067689 344.93763648 13.64520128 366.03369141 7.62451172 C372.12284312 6.01695829 378.25149566 4.63751718 384.41943359 3.37060547 C385.62273315 3.08914673 385.62273315 3.08914673 386.8503418 2.80200195 C395.79080112 0.87830071 404.75664446 1.01671436 413.85693359 1.05810547 C414.70292114 1.06026062 415.54890869 1.06241577 416.42053223 1.06463623 C448.25434776 1.19502238 477.61364777 7.64168877 501.60693359 30.12060547 C512.21037886 41.25202311 519.77597322 55.16709281 524.23193359 69.80810547 C524.4269043 70.4387793 524.621875 71.06945312 524.82275391 71.71923828 C528.19645429 83.66106663 528.78451155 96.09455012 528.73193359 108.43310547 C528.73077545 109.10014496 528.72961731 109.76718445 528.72842407 110.45443726 C528.68985225 121.78899524 527.76085608 132.81169915 525.82519531 143.98583984 C525.44508222 146.21986192 525.11265717 148.45463894 524.79833984 150.69873047 C521.60954699 172.71029424 515.63944301 194.36663429 508.41943359 215.37060547 C508.02771973 216.52222168 507.63600586 217.67383789 507.23242188 218.86035156 C493.59378773 258.78605894 477.9717122 298.42191328 452.41943359 332.37060547 C451.3346875 333.82273437 451.3346875 333.82273437 450.22802734 335.30419922 C425.05278165 367.45399116 390.61576207 386.72223613 350.06396484 391.74560547 C317.03349403 395.17987684 280.91561789 390.9839392 253.98193359 369.99560547 C240.97387409 359.43062892 232.48403336 346.42127454 225.41943359 331.37060547 C224.75298828 332.10923828 224.08654297 332.84787109 223.39990234 333.60888672 C220.43089701 336.88563155 217.43015899 340.13220237 214.41943359 343.37060547 C213.12392578 344.76859375 213.12392578 344.76859375 211.80224609 346.19482422 C187.77446867 371.20854387 153.69161107 387.16708646 119.41943359 391.37060547 C118.66799072 391.46486816 117.91654785 391.55913086 117.14233398 391.65625 C83.01284985 395.52728208 49.76133192 390.16381475 22.22802734 368.75732422 C17.68257547 364.89463841 13.51361649 360.70935239 9.41943359 356.37060547 C5.95078045 357.86503653 3.68426015 359.87986273 0.98193359 362.49560547 C-21.04598601 382.53556144 -54.32358413 391.66348807 -83.58056641 392.37060547 C-84.43021973 392.39638672 -85.27987305 392.42216797 -86.15527344 392.44873047 C-98.72979745 392.79519574 -110.33988805 392.36911735 -122.58056641 389.37060547 C-123.80646484 389.10376953 -125.03236328 388.83693359 -126.29541016 388.56201172 C-145.06293548 384.13106398 -162.51343605 374.68222443 -175.58056641 360.37060547 C-179.34119251 362.00021011 -182.17358981 364.40752567 -185.33056641 366.99560547 C-212.86834824 388.67988878 -252.29867796 394.10314532 -286.26367188 391.13623047 C-290.79453784 390.54672341 -295.16127881 389.53863228 -299.58056641 388.37060547 C-300.74845703 388.10376953 -301.91634766 387.83693359 -303.11962891 387.56201172 C-322.18854904 382.80535204 -339.16544386 371.35138227 -349.70556641 354.62060547 C-352.89538682 349.10238673 -355.26656463 343.298139 -357.58056641 337.37060547 C-358.07472046 336.21987549 -358.07472046 336.21987549 -358.57885742 335.04589844 C-361.73592534 326.61422643 -361.94275923 317.33948005 -361.89306641 308.43310547 C-361.88742676 307.34755371 -361.88178711 306.26200195 -361.87597656 305.14355469 C-361.72159015 294.68960724 -360.55177128 284.62836995 -358.58056641 274.37060547 C-358.38720703 273.36368652 -358.19384766 272.35676758 -357.99462891 271.31933594 C-354.37229586 252.98686491 -349.28873625 235.15329954 -343.58056641 217.37060547 C-343.2097998 216.21431641 -342.8390332 215.05802734 -342.45703125 213.86669922 C-325.23202696 160.81096984 -302.31639893 107.78949885 -274.58056641 59.37060547 C-274.11553711 58.55495117 -273.65050781 57.73929687 -273.17138672 56.89892578 C-259.0970303 32.42392528 -240.60884049 12.20198488 -212.44189453 4.51391602 C-204.112523 2.58529061 -196.09222051 1.90003294 -187.56665039 1.97949219 C-185.5152777 1.9956274 -183.46586587 1.97950849 -181.41455078 1.96044922 C-165.94372375 1.93623713 -149.48702598 4.88278789 -137.58056641 15.37060547 C-136.67177734 16.14017578 -136.67177734 16.14017578 -135.74462891 16.92529297 C-124.16194915 27.49638497 -123.027973 40.54939731 -121.58056641 55.37060547 C-120.8709375 54.35353516 -120.8709375 54.35353516 -120.14697266 53.31591797 C-101.48143847 27.04590689 -77.40119027 11.88388911 -46.33056641 4.24560547 C-45.38528076 4.00741089 -45.38528076 4.00741089 -44.42089844 3.7644043 C-29.74624257 0.32633173 -14.99728506 -0.00223274 0 0 Z " fill="#010101" transform="translate(428.58056640625,309.62939453125)"/>
<path d="M0 0 C1.40185547 -0.72703125 1.40185547 -0.72703125 2.83203125 -1.46875 C16.94689767 -8.71135303 31.06356515 -15.22231826 46.4375 -19.3125 C47.29287354 -19.54275879 48.14824707 -19.77301758 49.02954102 -20.01025391 C66.10626404 -24.29239418 83.07614758 -25.54593537 100.625 -25.4375 C101.62592682 -25.43545563 102.62685364 -25.43341125 103.65811157 -25.43130493 C140.48069491 -25.30909026 179.70620467 -18.38654296 208 7 C210.56797974 9.42369433 210.56797974 9.42369433 213.87109375 9.96484375 C216.91586524 8.58491979 219.42482907 6.58310982 222.0625 4.5625 C237.50589932 -6.84118643 254.81147623 -14.18077343 273.25 -19.1875 C274.60593262 -19.56310059 274.60593262 -19.56310059 275.98925781 -19.94628906 C290.68279682 -23.76567891 305.50676454 -24.35176204 320.61035156 -24.31567383 C323.36563663 -24.31251075 326.11984612 -24.33609868 328.875 -24.36132812 C365.91563165 -24.49216343 400.04997886 -12.98278407 427.0625 12.6875 C441.73126904 27.79656385 451.60447836 46.76679384 457 67 C457.33 68.01578125 457.66 69.0315625 458 70.078125 C464.41148323 92.66251921 461.34468165 117.79348317 458.75 140.75 C458.64767059 141.67363342 458.54534119 142.59726685 458.43991089 143.54888916 C457.13076254 155.1657562 455.26173567 166.48343763 452.51327515 177.84616089 C452.00223733 179.99061156 451.52205172 182.13986263 451.05004883 184.29321289 C448.79076326 194.48365595 445.80390905 204.3126372 442.4375 214.1875 C441.90692053 215.7581985 441.37640416 217.32891831 440.84594727 218.8996582 C423.73281389 269.37359761 403.71667339 319.57521966 368 360 C367.25234375 360.87011719 366.5046875 361.74023438 365.734375 362.63671875 C337.11392178 395.42669843 296.212576 414.05298544 253 417 C236.44682902 417.66523637 220.26877516 417.20144791 204 414 C203.1332666 413.83371094 202.2665332 413.66742187 201.37353516 413.49609375 C174.24461494 408.13091634 148.58897834 395.93516008 130 375 C129.67 374.34 129.34 373.68 129 373 C125.12405235 373.57783623 123.14620876 375.37858263 120.25 377.9375 C113.3061569 383.75481537 105.80672938 388.42905404 98 393 C97.38640625 393.35980957 96.7728125 393.71961914 96.140625 394.09033203 C81.83689867 402.35773037 66.69399953 408.32243327 50.6875 412.375 C49.74656494 412.6136377 48.80562988 412.85227539 47.83618164 413.09814453 C34.10321737 416.38152072 20.55701146 417.41365253 6.5 417.375 C5.71519257 417.37412384 4.93038513 417.37324768 4.12179565 417.37234497 C-24.66676978 417.26686829 -56.24847074 411.24770988 -79.23046875 392.62890625 C-82.04591923 390.43228245 -82.04591923 390.43228245 -85.4921875 389.8359375 C-89.17572122 391.54573976 -92.63500713 393.55325426 -96.125 395.625 C-105.4070419 400.94655184 -114.86176636 404.65926484 -125 408 C-125.67788574 408.23557617 -126.35577148 408.47115234 -127.05419922 408.71386719 C-165.79596347 422.15508309 -212.9513331 421.47490236 -250.30078125 403.875 C-255.35391205 401.37856857 -260.19948303 398.53074946 -265.01171875 395.6015625 C-268.81657422 393.56045354 -268.81657422 393.56045354 -273 393 C-276.01185867 394.39825396 -276.01185867 394.39825396 -279.125 396.5 C-287.59477872 401.68716718 -296.60406856 404.89007903 -306 408 C-307.2065625 408.4021875 -308.413125 408.804375 -309.65625 409.21875 C-319.24310874 412.17544475 -329.0680269 413.72498465 -339 415 C-340.13393188 415.14574463 -340.13393188 415.14574463 -341.29077148 415.29443359 C-359.21925266 417.3456124 -378.43874923 417.34350765 -396 413 C-397.87558594 412.58234375 -397.87558594 412.58234375 -399.7890625 412.15625 C-419.48614736 407.42568718 -436.4641036 398.10236967 -451 384 C-451.67289063 383.40058594 -452.34578125 382.80117188 -453.0390625 382.18359375 C-469.28662505 367.19829203 -479.14228926 343.46547269 -480.16113281 321.53100586 C-480.2073272 317.33295621 -480.24668522 313.13580863 -480.25 308.9375 C-480.25067474 308.17334778 -480.25134949 307.40919556 -480.25204468 306.62188721 C-480.23458934 294.16464779 -479.39944768 282.24504631 -477 270 C-476.83902832 269.11393066 -476.67805664 268.22786133 -476.51220703 267.31494141 C-466.99593519 214.98001704 -446.97190693 164.22916856 -425 116 C-424.23671387 114.32115723 -424.23671387 114.32115723 -423.45800781 112.60839844 C-373.76280988 3.64148115 -373.76280988 3.64148115 -322 -17 C-304.18150745 -23.56751802 -286.81830909 -24.42433795 -268 -24 C-266.20369141 -23.97292969 -266.20369141 -23.97292969 -264.37109375 -23.9453125 C-246.22675572 -23.14100025 -226.29589753 -17.89305185 -212.91015625 -5.1328125 C-209.83338957 -1.69740431 -207.34052752 2.03487102 -205 6 C-204.35675781 5.5875 -203.71351563 5.175 -203.05078125 4.75 C-201.11586936 3.51342293 -199.17663462 2.2835976 -197.234375 1.05859375 C-195.16626479 -0.25770345 -193.11241794 -1.59686334 -191.078125 -2.96484375 C-176.9812805 -12.18622519 -161.35147835 -17.3941063 -145 -21 C-143.65286125 -21.34197613 -142.30651958 -21.68710545 -140.9609375 -22.03515625 C-137.45264079 -22.9190032 -133.95977727 -23.55344452 -130.375 -24.0625 C-128.77785156 -24.29646484 -128.77785156 -24.29646484 -127.1484375 -24.53515625 C-82.32117401 -29.95504804 -37.41214618 -27.4065722 0 0 Z M-171 15 C-171.91023926 15.45415283 -171.91023926 15.45415283 -172.83886719 15.91748047 C-182.33340191 20.75697753 -190.15850227 26.85167334 -198 34 C-198.66515625 34.58265625 -199.3303125 35.1653125 -200.015625 35.765625 C-205.99778116 41.30051715 -210.39840777 48.3244507 -215 55 C-215.05945801 54.39115967 -215.11891602 53.78231934 -215.18017578 53.1550293 C-216.97670571 35.66781211 -219.83274554 23.62009578 -234 12 C-252.49929683 -0.23292238 -281.39443645 -1.16593783 -302.75976562 3.17822266 C-309.85997687 4.93976412 -316.55234615 7.54832365 -323 11 C-323.95003906 11.47953125 -324.90007812 11.9590625 -325.87890625 12.453125 C-346.61405448 23.59117073 -359.00555034 42.92877771 -370 63 C-370.55671387 64.00272949 -371.11342773 65.00545898 -371.68701172 66.03857422 C-382.35243514 85.28086108 -391.9103372 104.97057666 -401 125 C-401.28961609 125.63746155 -401.57923218 126.2749231 -401.87762451 126.93170166 C-427.01694069 182.38432032 -454.78794953 246.19671129 -455.25 307.8125 C-455.25950684 308.83875488 -455.26901367 309.86500977 -455.27880859 310.92236328 C-455.18356067 332.84702383 -447.07060705 352.24810648 -431.9765625 368.12890625 C-410.23570804 388.77867694 -380.31756489 391.8930743 -351.76611328 391.17919922 C-321.67627672 389.74746448 -293.77915111 379.70088744 -271 360 C-267.53134686 361.49443106 -265.26482656 363.50925726 -262.5625 366.125 C-248.70883398 378.7449819 -231.12876336 386.03121682 -213 390 C-212.00355469 390.22558594 -211.00710938 390.45117188 -209.98046875 390.68359375 C-199.12098028 392.74732354 -188.00081117 392.24368232 -177 392 C-175.77410156 391.98195313 -174.54820312 391.96390625 -173.28515625 391.9453125 C-142.24416714 390.64074683 -107.48387727 379.27420038 -86 356 C-82.37125688 357.50719804 -80.32395616 359.6222102 -77.6875 362.5 C-65.52749415 374.85613498 -49.84893305 382.83751388 -33.375 387.8125 C-32.73127441 388.00755127 -32.08754883 388.20260254 -31.42431641 388.40356445 C-20.53137206 391.47423156 -9.58770566 392.34115722 1.6875 392.25 C2.90920898 392.24323242 4.13091797 392.23646484 5.38964844 392.22949219 C40.4918334 391.8311301 73.82618734 381.29195018 102 360 C102.88300781 359.34 103.76601563 358.68 104.67578125 358 C114.54010765 350.28390468 124.63665446 341.16370741 132 331 C132.56847656 332.12277344 133.13695312 333.24554687 133.72265625 334.40234375 C137.88285639 342.51079392 141.9686128 350.10502782 148 357 C148.5671875 357.72058594 149.134375 358.44117188 149.71875 359.18359375 C167.41612719 380.81788748 196.30723023 389.21261342 223 392 C262.868873 394.84609654 302.74494209 384.93164101 333.52734375 358.859375 C336.07177371 356.62445706 338.54232491 354.32990605 341 352 C341.94617188 351.11828125 342.89234375 350.2365625 343.8671875 349.328125 C375.58150941 319.16476519 392.91963613 275.5616532 407.74511719 235.38867188 C408.90052945 232.26860918 410.07552436 229.15682973 411.2578125 226.046875 C415.97196377 213.54240761 419.72852294 200.9517467 423 188 C423.43143311 186.3305835 423.43143311 186.3305835 423.87158203 184.62744141 C428.27578251 167.5355656 431.73077765 150.50634988 434 133 C434.1038501 132.27506348 434.2077002 131.55012695 434.31469727 130.80322266 C435.18459842 124.18826886 435.18610757 117.56441586 435.18530273 110.90039062 C435.18747321 108.89969786 435.20593966 106.89904433 435.22460938 104.8984375 C435.265202 77.40369751 427.95942051 52.97196846 410 32 C409.36578125 31.25234375 408.7315625 30.5046875 408.078125 29.734375 C390.30751864 10.4449134 361.22892444 1.9025539 335.80517578 0.80371094 C315.77128117 0.06993834 296.41349235 0.42542818 277 6 C275.79827148 6.34490479 275.79827148 6.34490479 274.57226562 6.69677734 C250.15346215 14.00070819 226.5970985 28.48661546 210 48 C210 48.66 210 49.32 210 50 C207.25495225 47.57168853 205.31387584 45.01105887 203.375 41.9375 C189.30140957 20.49202886 166.2282718 8.47965716 141.72265625 3 C127.59958532 0.10748168 113.43095836 -0.27075112 99.0625 -0.3125 C97.76566284 -0.31642761 97.76566284 -0.31642761 96.44262695 -0.32043457 C83.20121699 -0.32472696 70.83903446 0.56539229 58 4 C56.64939588 4.31918699 55.29784718 4.63440775 53.9453125 4.9453125 C33.70437438 9.87102137 15.24838182 19.06147374 -1 32 C-1.99 32.66 -2.98 33.32 -4 34 C-4.24105469 33.27425781 -4.48210937 32.54851562 -4.73046875 31.80078125 C-10.53079985 19.00435849 -26.15822673 11.74183701 -38.61499023 6.9453125 C-51.05285308 2.32207575 -62.96755786 -0.31327005 -76.2734375 -0.30078125 C-77.84008652 -0.30720894 -77.84008652 -0.30720894 -79.43838501 -0.31376648 C-81.63844077 -0.31947343 -83.83851538 -0.3200371 -86.03857422 -0.31567383 C-89.33205128 -0.31254086 -92.62460404 -0.33592626 -95.91796875 -0.36132812 C-122.05226475 -0.44011723 -147.4474005 3.19910224 -171 15 Z " fill="#FDEA00" transform="translate(522,310)"/>
<path d="M0 0 C14.82245354 13.92863724 20.10682952 31.5822705 20.890625 51.3359375 C21.70545193 85.67073624 14.45970709 119.48474273 3.58203125 151.94140625 C3.23011719 153.00891113 2.87820313 154.07641602 2.515625 155.17626953 C-14.6211416 207.04403386 -38.08815531 272.40005588 -89.41796875 299.94140625 C-118.49486788 314.18247844 -154.03877044 316.80297713 -184.91796875 306.80859375 C-201.1571012 300.55321365 -213.92037368 289.75415329 -221.41796875 273.94140625 C-224.70022571 265.60567439 -226.56654747 257.99084586 -226.62109375 249.02734375 C-226.62815338 248.26470718 -226.63521301 247.50207062 -226.64248657 246.71632385 C-226.858959 216.42690937 -226.858959 216.42690937 -223.95703125 203.39990234 C-223.32160926 200.50194065 -222.7619218 197.59263101 -222.19921875 194.6796875 C-210.58137479 136.0400171 -189.45966735 68.01732798 -151.41796875 20.94140625 C-150.6703125 20.008125 -149.92265625 19.07484375 -149.15234375 18.11328125 C-133.40205524 -0.43705856 -111.79396889 -10.75712699 -88.41796875 -16.05859375 C-87.25523437 -16.32414062 -86.0925 -16.5896875 -84.89453125 -16.86328125 C-57.3482198 -21.82841887 -22.06014507 -18.78141592 0 0 Z " fill="#FEFEFE" transform="translate(906.41796875,359.05859375)"/>
<path d="M0 0 C337.92 0 675.84 0 1024 0 C1024 337.92 1024 675.84 1024 1024 C686.08 1024 348.16 1024 0 1024 C0 686.08 0 348.16 0 0 Z M14 14 C14 342.68 14 671.36 14 1010 C342.68 1010 671.36 1010 1010 1010 C1010 681.32 1010 352.64 1010 14 C681.32 14 352.64 14 14 14 Z " fill="#000000" transform="translate(0,0)"/>
<path d="M0 0 C1.30090576 0.00563965 2.60181152 0.0112793 3.94213867 0.01708984 C28.82786293 0.32426469 55.59417996 3.18297545 74.6171875 21.046875 C83.87173559 31.17449366 87.24701375 41.58446355 87.0625 55.0625 C87.05307373 56.12509033 87.04364746 57.18768066 87.03393555 58.2824707 C86.8851307 66.02921543 86.1896274 72.93622843 83.6875 80.3125 C83.32398438 81.41722656 82.96046875 82.52195312 82.5859375 83.66015625 C77.85336606 96.95715537 70.30239816 108.2385282 57.4375 114.75 C55.53424767 115.63365287 53.6180268 116.49013872 51.6875 117.3125 C50.88828125 117.67472656 50.0890625 118.03695312 49.265625 118.41015625 C39.38570678 121.86812763 23.75789317 122.36308218 13.875 118.6875 C8.21127777 115.82561916 3.31361326 112.4698957 0.75 106.5 C-1.33751144 99.59816532 -0.73753481 94.11504337 1.6875 87.375 C3.59104388 82.07759318 4.87049506 76.92906215 3.6875 71.3125 C2.11627855 69.39114563 0.90830584 68.42290292 -1.3125 67.3125 C-11.01352851 66.51919159 -19.08274772 66.50851557 -27.3125 72.3125 C-28.33537109 73.00472656 -28.33537109 73.00472656 -29.37890625 73.7109375 C-64.11805552 100.49611325 -78.29068101 170.02962864 -89.0625 210.5 C-89.37888428 211.68541382 -89.37888428 211.68541382 -89.70166016 212.89477539 C-92.66067208 224.19557932 -95.27035983 238.62944099 -89.3125 249.3125 C-83.71267745 254.63916047 -79.52255975 254.66664353 -71.984375 254.58203125 C-61.14822306 253.78661159 -53.0548752 247.53688711 -45.9296875 239.6875 C-37.65392568 229.3638378 -32.53897214 217.09547533 -29.3125 204.3125 C-30.281875 204.395 -31.25125 204.4775 -32.25 204.5625 C-39.08117619 204.5625 -46.19974553 200.59294561 -51.3125 196.3125 C-55.75507403 190.85962097 -55.97283026 184.720056 -55.76171875 177.90625 C-55.04072876 172.1383301 -53.00535054 167.42182958 -50.3125 162.3125 C-49.84328125 161.41402344 -49.3740625 160.51554688 -48.890625 159.58984375 C-42.89120212 148.89732393 -34.95440417 142.34334102 -23.3125 138.3125 C-5.32372863 133.35246555 17.30441697 132.20507008 34.359375 140.6328125 C43.68268757 146.35820243 48.86068873 153.83217993 51.6875 164.3125 C52.20694282 168.18824048 52.26116132 171.96902825 52.1875 175.875 C52.17541504 176.92075195 52.16333008 177.96650391 52.15087891 179.04394531 C51.91127882 188.54372567 50.29557277 197.21004814 47.6875 206.3125 C47.47319336 207.10043945 47.25888672 207.88837891 47.03808594 208.70019531 C38.67381907 239.41787409 25.33491639 266.91694517 3.06445312 289.88427734 C1.84253033 291.15169726 0.64586774 292.44336299 -0.546875 293.73828125 C-14.54224409 308.54916997 -32.39337069 318.23681743 -51.5 324.75 C-52.46091553 325.0802417 -53.42183105 325.4104834 -54.41186523 325.75073242 C-66.72871139 329.73875625 -78.99399513 330.64502646 -91.875 330.5625 C-93.08607422 330.57023437 -94.29714844 330.57796875 -95.54492188 330.5859375 C-116.58783514 330.54085359 -136.59846528 325.4995851 -152.109375 310.5390625 C-152.83640625 309.80429687 -153.5634375 309.06953125 -154.3125 308.3125 C-154.93640625 307.72210937 -155.5603125 307.13171875 -156.203125 306.5234375 C-171.01046533 291.38259851 -174.65802273 268.95576175 -174.54663086 248.74584961 C-174.22448771 228.88597754 -170.67129922 209.41700127 -164.92822266 190.42529297 C-164.19800913 187.91963561 -163.52603433 185.40118155 -162.85546875 182.87890625 C-155.87696973 156.81154133 -146.38082377 131.90593576 -135.3125 107.3125 C-134.85230469 106.28753418 -134.39210938 105.26256836 -133.91796875 104.20654297 C-122.68798691 79.42048436 -109.18712861 56.08250947 -90.3125 36.3125 C-89.70535156 35.6421875 -89.09820313 34.971875 -88.47265625 34.28125 C-66.06572627 10.40578972 -31.95828843 -0.14676115 0 0 Z " fill="#FEFEFE" transform="translate(619.3125,340.6875)"/>
<path d="M0 0 C2.69814067 0.01081616 5.39562805 -0.00001892 8.09375 -0.01269531 C20.04503229 -0.02449288 30.97100999 0.44050046 41.9921875 5.51074219 C42.67780762 5.82156738 43.36342773 6.13239258 44.06982422 6.45263672 C53.1033792 10.66514189 58.93233673 15.40958595 63.8046875 24.26074219 C66.43495084 32.15153219 66.10138191 44.53164106 62.8359375 52.25683594 C62.495625 52.918125 62.1553125 53.57941406 61.8046875 54.26074219 C61.20140625 55.48470703 61.20140625 55.48470703 60.5859375 56.73339844 C53.66506668 69.47933553 41.81896622 76.49665846 28.203125 80.67480469 C13.22815082 84.333186 -2.135047 84.40609333 -17.4453125 84.32324219 C-19.07682153 84.31821367 -20.70833208 84.31365317 -22.33984375 84.30957031 C-26.2917048 84.29867976 -30.24349142 84.28149084 -34.1953125 84.26074219 C-34.63883057 85.39443237 -34.63883057 85.39443237 -35.09130859 86.55102539 C-36.47645323 89.95078662 -38.14783665 93.18416456 -39.8203125 96.44824219 C-44.27860623 105.24029631 -48.2626273 114.22393365 -52.1953125 123.26074219 C-50.65037109 123.04417969 -50.65037109 123.04417969 -49.07421875 122.82324219 C-31.24591065 120.44486597 -7.62748376 117.81106673 7.8046875 129.26074219 C13.89120004 135.64720606 15.16915113 140.93937881 15.08203125 149.65136719 C14.07586376 162.74571598 7.57424176 176.41001357 -2.1953125 185.26074219 C-15.78566043 195.60721612 -29.10834285 197.4549373 -45.70166016 197.50097656 C-47.79500964 197.51062556 -49.88735085 197.54170003 -51.98046875 197.57324219 C-61.12576669 197.64278818 -69.29945241 196.57684478 -78.1953125 194.26074219 C-78.37199463 194.93008789 -78.54867676 195.59943359 -78.73071289 196.2890625 C-80.50953828 202.9317097 -82.50069171 209.47411644 -84.6328125 216.01074219 C-87.43635504 224.69913163 -89.9745294 233.40519716 -92.1953125 242.26074219 C-91.14214844 241.99519531 -90.08898437 241.72964844 -89.00390625 241.45605469 C-66.46647594 235.87902247 -38.17055566 230.69037972 -16.5078125 241.61621094 C-9.81230395 245.72381733 -4.12858276 251.31024221 -1.6640625 258.90917969 C1.44299855 274.49626931 -4.22640079 289.42906228 -12.5625 302.38574219 C-20.56718585 312.61658327 -32.51418659 318.37334887 -44.1953125 323.26074219 C-45.07316406 323.65003906 -45.95101562 324.03933594 -46.85546875 324.44042969 C-60.95886796 330.20695424 -76.10716172 331.61640584 -91.1953125 331.63574219 C-92.38688965 331.63735352 -93.5784668 331.63896484 -94.80615234 331.640625 C-117.21298925 331.36042279 -138.49665546 325.13648669 -154.60546875 309.04980469 C-168.9540505 293.59748588 -172.95964645 275.63992932 -172.484375 255.11621094 C-171.69185062 235.19987337 -168.06457925 214.84719167 -162.22265625 195.79199219 C-161.34907574 192.7892668 -160.58940851 189.79538696 -159.85546875 186.75683594 C-158.101791 179.68197386 -155.94341094 172.75429892 -153.6953125 165.82324219 C-153.47911255 165.15533661 -153.2629126 164.48743103 -153.04016113 163.79928589 C-112.36584887 38.62325867 -112.36584887 38.62325867 -59.953125 10.52246094 C-41.04262912 1.20592079 -20.71210775 -0.09870139 0 0 Z " fill="#FDFDFD" transform="translate(430.1953125,339.7392578125)"/>
<path d="M0 0 C1.514729 -0.02815796 1.514729 -0.02815796 3.06005859 -0.05688477 C11.21318057 0.01318217 18.50136252 1.84760455 25.1875 6.6875 C30.28694958 12.15119598 32.04920711 17.3525349 32.3125 24.8125 C30.6917198 67.31295854 5.63969757 110.80581855 -12.3225708 148.46296692 C-15.58972629 155.32195493 -18.76157311 162.22337439 -21.9375 169.125 C-26.32853769 178.638915 -30.91115643 188.03390743 -35.64697266 197.38037109 C-41.37196283 208.73718488 -46.66151254 220.29508123 -51.95751953 231.85644531 C-52.99763921 234.09193874 -54.0703621 236.30224477 -55.1875 238.5 C-54.23617187 238.2834375 -54.23617187 238.2834375 -53.265625 238.0625 C-37.0448992 234.83627829 -18.24208159 234.23678078 -3.640625 242.7890625 C1.52340799 246.39072882 4.85094687 250.49995513 6.8125 256.5 C8.33427743 272.32200947 3.34634468 287.90812967 -6.1875 300.5 C-6.909375 301.510625 -7.63125 302.52125 -8.375 303.5625 C-19.20881522 315.93423851 -36.49623591 322.31245525 -52.1875 325.5 C-53.05205811 325.67805176 -53.91661621 325.85610352 -54.80737305 326.03955078 C-62.78088632 327.53462598 -70.52656277 327.80117496 -78.625 327.75 C-79.84509766 327.75773437 -81.06519531 327.76546875 -82.32226562 327.7734375 C-100.23043616 327.73535527 -116.42535146 324.67420832 -130.1875 312.5 C-141.31877168 301.20007268 -143.48024632 287.43494368 -143.50439453 272.23364258 C-142.46433296 196.75213714 -97.64559315 109.29945529 -61.6875 44.625 C-61.14875244 43.65208008 -60.61000488 42.67916016 -60.05493164 41.67675781 C-50.25811581 24.42036866 -38.34184224 9.15289812 -19.3125 1.9375 C-12.94193969 0.23292344 -6.5725562 0.08852096 0 0 Z " fill="#FEFEFE" transform="translate(241.1875,342.5)"/>
<path d="M0 0 C3.02315578 1.90069695 4.6244302 3.97259115 5.890625 7.2421875 C8.28621781 28.66324416 -0.54946522 50.2963727 -7.109375 70.2421875 C-7.42548737 71.20342529 -7.42548737 71.20342529 -7.74798584 72.18408203 C-40.95336243 172.85440099 -40.95336243 172.85440099 -60.36328125 185.73828125 C-65.40222865 188.27090003 -70.52388472 189.30458772 -76.109375 188.2421875 C-79.484375 186.4296875 -79.484375 186.4296875 -82.109375 184.2421875 C-82.686875 183.7678125 -83.264375 183.2934375 -83.859375 182.8046875 C-87.84463308 177.8231149 -87.49942444 172.32007257 -87.109375 166.2421875 C-86.46295678 162.08455098 -85.53272027 158.01876756 -84.546875 153.9296875 C-84.2802002 152.79829346 -84.01352539 151.66689941 -83.73876953 150.5012207 C-81.56794587 141.55865764 -78.88104997 132.86515444 -75.8203125 124.19140625 C-74.52744447 120.52603171 -73.36034079 116.83721182 -72.234375 113.1171875 C-69.92037433 105.53007349 -67.36600675 98.03599596 -64.734375 90.5546875 C-64.47981537 89.83062714 -64.22525574 89.10656677 -63.96298218 88.36056519 C-35.92350001 8.96162479 -35.92350001 8.96162479 -17.8046875 0.1171875 C-12.34605311 -1.65489091 -5.44938235 -1.95774107 0 0 Z " fill="#010101" transform="translate(845.109375,408.7578125)"/>
<path d="M0 0 C4.74987054 3.56024779 7.72274854 7.50272824 10 13 C10.86089485 20.1198331 11.27770135 27.98869781 7.3984375 34.2890625 C2.25692441 40.57951706 -2.89780611 44.45559718 -11.1484375 45.3359375 C-19.33694958 45.43507203 -24.88162832 44.84054502 -30.96875 39.1640625 C-37.16415192 32.53701372 -38.44175543 26.93431358 -38.2421875 17.96484375 C-37.66796739 10.93527821 -35.20796383 6.31632672 -30.01953125 1.54296875 C-20.33457021 -5.85656628 -10.57078741 -5.37203951 0 0 Z " fill="#DB000A" transform="translate(992,288)"/>
<path d="M0 0 C4.74987054 3.56024779 7.72274854 7.50272824 10 13 C10.86089485 20.1198331 11.27770135 27.98869781 7.3984375 34.2890625 C2.25692441 40.57951706 -2.89780611 44.45559718 -11.1484375 45.3359375 C-19.33694958 45.43507203 -24.88162832 44.84054502 -30.96875 39.1640625 C-37.16415192 32.53701372 -38.44175543 26.93431358 -38.2421875 17.96484375 C-37.66796739 10.93527821 -35.20796383 6.31632672 -30.01953125 1.54296875 C-20.33457021 -5.85656628 -10.57078741 -5.37203951 0 0 Z M-32 12 C-34.58984323 17.17968645 -33.59482961 25.07555127 -31.9375 30.4375 C-28.35216719 35.17939179 -23.90068698 39.52482826 -18 41 C-11.87538274 41.70668661 -7.16169423 40.20025042 -2 37 C3.43898634 32.22063541 5.54738124 27.39464071 6.5 20.25 C6.3166541 14.63098731 3.52480612 10.22831681 0 6 C-4.72632102 2.04369757 -9.62940683 0.17712101 -15.8046875 0.5859375 C-23.14174901 1.96979608 -27.75443922 6.03564818 -32 12 Z " fill="#0B0000" transform="translate(992,288)"/>
<path d="M0 0 C3.5578125 -0.0928125 3.5578125 -0.0928125 7.1875 -0.1875 C8.29387817 -0.22846802 8.29387817 -0.22846802 9.42260742 -0.27026367 C13.84236338 -0.32577175 16.46742902 0.35888761 20 3 C21 4 21 4 21.375 6.75 C20.88549712 10.99235832 19.18164293 12.29560351 16 15 C16.433125 15.62648438 16.86625 16.25296875 17.3125 16.8984375 C17.869375 17.71570313 18.42625 18.53296875 19 19.375 C19.556875 20.18710937 20.11375 20.99921875 20.6875 21.8359375 C22 24 22 24 22 26 C19.3125 26.5 19.3125 26.5 16 26 C13.52424998 23.19798835 11 19.83491389 11 16 C9.35 16 7.7 16 6 16 C6 19.3 6 22.6 6 26 C4.02 26 2.04 26 0 26 C0 17.42 0 8.84 0 0 Z " fill="#140001" transform="translate(968,296)"/>
<path d="M0 0 C7.75 -0.125 7.75 -0.125 10 1 C10.042721 2.66611905 10.04063832 4.33382885 10 6 C9 7 9 7 6.93359375 7.09765625 C6.10988281 7.08605469 5.28617188 7.07445312 4.4375 7.0625 C3.61121094 7.05347656 2.78492188 7.04445313 1.93359375 7.03515625 C1.29550781 7.02355469 0.65742187 7.01195312 0 7 C0 4.69 0 2.38 0 0 Z " fill="#CB0009" transform="translate(973,300)"/>
</svg>
