<?xml version="1.0" encoding="UTF-8"?>
<svg version="1.1" xmlns="http://www.w3.org/2000/svg" width="877" height="768">
<path d="M0 0 C13.85311764 11.02182353 25.83251005 23.56411779 36.38671875 37.74609375 C37.31077138 38.96386544 38.23525564 40.18130972 39.16015625 41.3984375 C45.78389235 50.19029995 51.75363052 59.29257586 57.38671875 68.74609375 C57.84127441 69.50567383 58.29583008 70.26525391 58.76416016 71.04785156 C83.72353829 113.02070632 124.38671875 184.56179495 124.38671875 234.74609375 C125.04671875 234.74609375 125.70671875 234.74609375 126.38671875 234.74609375 C126.56763062 233.24006592 126.56763062 233.24006592 126.75219727 231.70361328 C127.31148397 227.81160244 128.35730101 224.17972617 129.5390625 220.42578125 C129.75437119 219.7379808 129.96967987 219.05018036 130.19151306 218.34153748 C130.89596958 216.09929454 131.60928284 213.8600158 132.32421875 211.62109375 C132.57036926 210.84599457 132.81651978 210.07089539 133.07012939 209.27230835 C134.82254436 203.75711418 136.59681472 198.24922984 138.38671875 192.74609375 C138.604953 192.07487488 138.82318726 191.40365601 139.04803467 190.71209717 C162.96936307 117.35599474 200.00544115 23.73084783 272.6328125 -13.9375 C294.19527796 -24.31751038 318.28854599 -28.00428221 341.36914062 -20.61962891 C367.74624949 -11.38502662 389.19004172 7.16110998 406.38671875 28.74609375 C407.27578233 29.84396007 408.16511281 30.94161028 409.0546875 32.0390625 C415.68832704 40.28228325 421.7236045 48.80954392 427.38671875 57.74609375 C427.74942871 58.3184375 428.11213867 58.89078125 428.48583984 59.48046875 C454.15707624 100.38557271 471.89641914 145.20054137 487.38671875 190.74609375 C487.98347412 192.495271 487.98347412 192.495271 488.59228516 194.27978516 C523.69417166 298.03347571 540.88606606 408.08360778 560.25390625 643.82049561 C560.36835831 646.34164945 560.48722002 648.86251112 560.609375 651.38330078 C561.26689495 665.23144029 561.43435046 679.07160313 561.44140625 692.93359375 C561.44350098 694.15151611 561.4455957 695.36943848 561.44775391 696.62426758 C561.46500569 710.33167576 561.41724771 724.03859124 561.38671875 737.74609375 C525.08671875 737.74609375 488.78671875 737.74609375 451.38671875 737.74609375 C451.11859375 722.50421875 450.85046875 707.26234375 450.57421875 691.55859375 C450.39512601 682.14171407 450.2151057 672.72503636 450.015625 663.30859375 C449.99121401 662.15600067 449.96680302 661.00340759 449.9416523 659.81588745 C448.28994349 582.75315974 444.22925922 505.81314319 345.38671875 48.74609375 C344.73123047 47.84310547 344.73123047 47.84310547 344.0625 46.921875 C338.98578805 40.13511272 330.11190844 34.4033855 322.01171875 32.05859375 C310.18355201 30.65047866 301.3839324 34.25392866 292.01171875 41.49609375 C231.35165124 93.49043733 218.64264012 220.49914776 189.0078125 454.9140625 C186.7821978 483.9383638 184.98884465 512.98068559 183.63671875 542.05859375 C183.5775528 543.32990143 183.51838684 544.60120911 183.45742798 545.91104126 C181.93401171 579.20794712 181.20506966 612.48235951 180.82421875 645.80859375 C180.67984375 657.99796875 180.53546875 670.18734375 180.38671875 682.74609375 C144.08671875 682.74609375 107.78671875 682.74609375 70.38671875 682.74609375 C70.11859375 669.40171875 69.85046875 656.05734375 69.57421875 642.30859375 C69.39459656 634.00238699 69.2139864 625.69637925 69.015625 617.390625 C68.99121401 616.36824045 68.96680302 615.3458559 68.9416523 614.29249001 C66.49918829 513.08755661 60.03868976 411.86236981 -32.61328125 50.74609375 C-33.13148438 50.04484375 -33.6496875 49.34359375 -34.18359375 48.62109375 C-40.68157633 40.30367605 -50.9848751 33.07464452 -61.61328125 31.74609375 C-69.66674624 30.94074725 -77.30231664 33.81412909 -83.80078125 38.49609375 C-85.09112542 39.5561128 -86.36217186 40.64004052 -87.61328125 41.74609375 C-88.24621094 42.28621094 -88.87914062 42.82632813 -89.53125 43.3828125 C-149.88129622 98.91449176 -160.57306234 232.56318761 -195.61328125 576.74609375 C-195.67022156 577.91255432 -195.72716187 579.07901489 -195.78582764 580.28082275 C-197.0430352 606.34145661 -197.65049634 632.41236534 -198.17578125 658.49609375 C-198.20836533 660.11359024 -198.20836533 660.11359024 -198.24160767 661.76376343 C-198.74109981 686.75709855 -199.16752212 711.75174226 -199.61328125 736.74609375 C-235.91328125 736.74609375 -272.21328125 736.74609375 -309.61328125 736.74609375 C-309.7679021 701.87909202 -309.7679021 701.87909202 -309.73046875 691.046875 C-309.72675074 689.96696006 -309.72675074 689.96696006 -309.72295761 688.86522865 C-309.38938684 604.72189299 -302.02150953 520.0806667 -290.61328125 436.74609375 C-290.47255188 435.71562927 -290.33182251 434.68516479 -290.18682861 433.62347412 C-285.91729587 402.49546481 -280.61885195 371.5846148 -274.61328125 340.74609375 C-274.43494751 339.82801941 -274.25661377 338.90994507 -274.07287598 337.96405029 C-257.89777288 254.95139046 -235.60533509 170.44623883 -196.71728516 94.89648438 C-195.94114428 93.38470886 -195.17046825 91.87012132 -194.40380859 90.35351562 C-172.50065083 47.03226429 -140.25297884 -3.62684683 -91.65234375 -20.03515625 C-58.78296848 -30.33963384 -26.62941904 -20.69744192 0 0 Z " fill="#FFCC00" transform="translate(313.61328125,27.25390625)"/>
</svg>
