<?xml version="1.0" encoding="UTF-8"?>
<svg version="1.1" xmlns="http://www.w3.org/2000/svg" width="2560" height="913">
<path d="M0 0 C0.33 0.66 0.66 1.32 1 2 C-0.08544922 4.28955078 -0.08544922 4.28955078 -1.8046875 7.1953125 C-2.76097046 8.83258301 -2.76097046 8.83258301 -3.73657227 10.50292969 C-4.25781174 11.38482971 -4.25781174 11.38482971 -4.7895813 12.2845459 C-6.65957124 15.45533212 -8.49571384 18.64556687 -10.33203125 21.8359375 C-10.71727463 22.50475952 -11.10251801 23.17358154 -11.49943542 23.8626709 C-55.51017645 100.52436663 -90.68532373 188.3564518 -87.1875 366.3125 C-77.90855718 399.33954433 -62.49524311 429.6322257 -39 454.84765625 C-37.15918281 456.82869194 -35.42275357 458.86437254 -33.6875 460.9375 C-0.88822323 498.41161621 49.0410596 517.97998348 97 526 C97.82935059 526.13889648 98.65870117 526.27779297 99.51318359 526.42089844 C157.57781993 535.83080137 217.76004619 530.92917173 275.375 520.5625 C276.48769257 520.36281113 276.48769257 520.36281113 277.62286377 520.15908813 C283.0943425 519.16675481 288.5482525 518.09505291 294 517 C294.95073395 516.81180695 295.9014679 516.62361389 296.88101196 516.42971802 C318.17100492 512.1800964 339.09011829 506.67140096 360.05846786 501.07938004 C363.98854247 500.03253665 367.91999795 498.99093175 371.85146809 497.94934368 C404.7932326 489.22177395 437.71105489 480.40371693 470.62915039 471.58737183 C498.54645888 464.1104818 526.47765835 456.69124266 554.4375 449.375 C583.32976288 441.81436128 612.20258795 434.18324201 641.0625 426.5 C642.05937584 426.23461678 643.05625168 425.96923355 644.08333588 425.69580841 C653.04826492 423.30911851 662.01302297 420.92178683 670.97756958 418.53366089 C683.2132846 415.27415099 695.44982136 412.01775488 707.6875 408.765625 C708.47034678 408.55758303 709.25319355 408.34954105 710.05976295 408.13519478 C713.98950123 407.09088888 717.91926025 406.04666109 721.84902954 405.00247192 C729.87213324 402.87060391 737.89508198 400.73815295 745.91796875 398.60546875 C746.74204916 398.38640806 747.56612957 398.16734737 748.41518211 397.94164848 C763.00269564 394.06379087 777.58933679 390.18265794 792.17578125 386.30078125 C794.39690619 385.709685 796.61803148 385.11859004 798.8391571 384.52749634 C799.95113999 384.23157152 801.06312288 383.93564671 802.20880222 383.63075447 C851.04476858 370.63439487 899.88506704 357.6544741 948.72949219 344.68994141 C953.39778868 343.45085471 958.06608286 342.21175934 962.734375 340.97265625 C963.86976463 340.67129257 965.00515427 340.36992889 966.17494965 340.05943298 C987.65952887 334.35674405 1009.14276085 328.64899731 1030.625 322.9375 C1031.41700302 322.72692963 1032.20900604 322.51635925 1033.02500916 322.29940796 C1040.08190544 320.42316591 1047.13877628 318.54682813 1054.19561768 316.67037964 C1064.2039663 314.00913485 1074.21250798 311.34861732 1084.22119522 308.68864632 C1123.31577795 298.29862107 1162.40844834 287.90142373 1201.5 277.5 C1241.3177268 266.90535663 1281.13668239 256.31535404 1320.9574585 245.73217773 C1332.1826605 242.74885113 1343.40776642 239.76516323 1354.6328125 236.78125 C1355.45037018 236.56392212 1356.26792786 236.34659424 1357.11026001 236.12268066 C1362.90684287 234.58179789 1368.70342192 233.04090077 1374.5 231.5 C1381.12239317 229.73957331 1387.74478835 227.9791542 1394.3671875 226.21875 C1395.18534943 226.00126099 1396.00351135 225.78377197 1396.84646606 225.55969238 C1408.01973849 222.58955236 1419.19309815 219.61974075 1430.36652374 216.650177 C1437.45270466 214.76686805 1444.53885999 212.88346284 1451.625 211 C1452.41400696 210.79028564 1453.20301392 210.58057129 1454.01593018 210.36450195 C1486.36178454 201.76701779 1518.70553293 193.16162225 1551.04912949 184.5556488 C1581.51101688 176.45036741 1611.97336258 168.34682071 1642.4375 160.25 C1644.01024379 159.83199078 1645.58298753 159.41398134 1647.1557312 158.99597168 C1647.93433848 158.78903057 1648.71294577 158.58208946 1649.51514721 158.36887741 C1653.46583054 157.31884709 1657.41651064 156.26880465 1661.3671875 155.21875 C1662.54394263 154.90597988 1662.54394263 154.90597988 1663.7444706 154.58689117 C1684.85108867 148.97688155 1705.95679243 143.36343393 1727.0625 137.75 C1729.04402664 137.22298157 1731.02555333 136.69596334 1733.00708008 136.16894531 C1747.00474042 132.44604012 1761.00237288 128.72303011 1775 125 C1805.44618093 116.90205258 1835.89243169 108.80436786 1866.33894348 100.70766449 C1868.91781863 100.02185479 1871.49669058 99.33603304 1874.07556152 98.65020752 C1885.15443437 95.70390388 1896.23339691 92.75793773 1907.3125 89.8125 C1908.47974295 89.50218086 1908.47974295 89.50218086 1909.67056656 89.18559265 C1931.18152643 83.46688167 1952.69382343 77.75321726 1974.20703125 72.04296875 C1975.35276548 71.73885323 1976.49849972 71.4347377 1977.67895317 71.12140656 C1987.18896675 68.59713995 1996.6989825 66.07288156 2006.20902634 63.54872894 C2034.74024546 55.97595836 2063.27025708 48.39868032 2091.796875 40.80859375 C2093.67703623 40.30833868 2093.67703623 40.30833868 2095.59518051 39.79797745 C2107.69909278 36.57738208 2119.80283251 33.35613896 2131.90632629 30.13397121 C2136.32570271 28.95748735 2140.74512818 27.78118781 2145.16455841 26.60490608 C2149.07998758 25.56264564 2152.99529344 24.51992241 2156.91056824 23.47708225 C2158.69526393 23.00238431 2160.48021882 22.52865955 2162.26545715 22.05600643 C2166.68124168 20.88681618 2171.0924394 19.70357424 2175.49786377 18.49588013 C2176.37852823 18.25711686 2177.2591927 18.0183536 2178.16654396 17.77235508 C2179.8377766 17.3191555 2181.50754021 16.86049196 2183.17554283 16.39554501 C2188.77445298 14.88722649 2188.77445298 14.88722649 2191 16 C2181.27337164 21.13454471 2171.2286116 25.4127286 2161.10159302 29.68249512 C2158.03230912 30.97658076 2154.96503223 32.27532656 2151.89819336 33.57519531 C2147.50974498 35.43492439 2143.12059135 37.29297436 2138.73095703 39.14990234 C2127.66726916 43.8322106 2116.61512072 48.54164306 2105.5625 53.25 C2103.88281128 53.96530884 2103.88281128 53.96530884 2102.16918945 54.69506836 C2077.77309965 65.08480125 2053.40114898 75.53062823 2029.03222656 85.98388672 C2018.52190442 90.49213986 2008.00987986 94.99642065 1997.49798584 99.50100708 C1991.6652544 102.00050923 1985.83263275 104.50026756 1980 107 C1977.66666719 108.00000123 1975.33333386 109.00000123 1973 110 C1971.845 110.495 1970.69 110.99 1969.5 111.5 C1902.7744143 140.09667958 1902.7744143 140.09667958 1899.14071655 141.65397644 C1896.72439365 142.68954485 1894.30807284 143.72511815 1891.89175415 144.76069641 C1885.93455865 147.31380542 1879.9773278 149.86683186 1874.02001953 152.41967773 C1863.69484564 156.84434646 1853.36996307 161.26968558 1843.046875 165.69921875 C1824.00183993 173.87008062 1804.9437107 182.0095345 1785.875 190.125 C1760.24198537 201.03432424 1734.63410473 212.0017252 1709.03222656 222.98388672 C1698.52190442 227.49213986 1688.00987986 231.99642065 1677.49798584 236.50100708 C1671.6652544 239.00050923 1665.83263275 241.50026756 1660 244 C1657.66666719 245.00000123 1655.33333386 246.00000123 1653 247 C1651.845 247.495 1650.69 247.99 1649.5 248.5 C1638.99999994 253.00000003 1638.99999994 253.00000003 1635.50003052 254.49998474 C1633.16659335 255.50003069 1630.8331583 256.50008156 1628.49972534 257.50013733 C1622.66799785 259.99947453 1616.83623387 262.49872652 1611.00439453 264.99780273 C1600.4851888 269.5056208 1589.96624855 274.01405307 1579.44866943 278.52566528 C1554.1937716 289.35892356 1528.92913382 300.16849611 1503.64294434 310.92852783 C1479.44119844 321.22801333 1455.26584737 331.58868135 1431.09375 341.95751953 C1417.91704305 347.60945844 1404.73788676 353.25568502 1391.5592041 358.90301514 C1388.0654971 360.40015458 1384.57180477 361.89732827 1381.078125 363.39453125 C1379.95496887 363.8758551 1378.83181274 364.35717896 1377.67462158 364.85308838 C1370.79803393 367.8002334 1363.92218424 370.74909277 1357.046875 373.69921875 C1338.00183993 381.87008062 1318.9437107 390.0095345 1299.875 398.125 C1281.28130783 406.03841243 1262.69745867 413.97437672 1244.125 421.9375 C1242.96838867 422.4333963 1241.81177734 422.9292926 1240.62011719 423.44021606 C1232.41303241 426.95926049 1224.20645703 430.47949196 1216 434 C1206.62535153 438.02165334 1197.25047486 442.04277351 1187.875 446.0625 C1186.71695862 446.55902069 1185.55891724 447.05554138 1184.36578369 447.56710815 C1166.13654472 455.38183797 1147.89300935 463.16257802 1129.64294434 470.92852783 C1105.45146345 481.22364487 1081.28635756 491.5798978 1057.12451172 501.94433594 C1049.83491962 505.07108449 1042.54452524 508.19595938 1035.25390625 511.3203125 C1034.04199615 511.83967377 1032.83008606 512.35903503 1031.58145142 512.89413452 C1026.75016288 514.9645253 1021.91884346 517.034844 1017.08752441 519.10516357 C1013.59609644 520.60132734 1010.1046826 522.09752409 1006.61328125 523.59375 C1005.50584564 524.06833649 1004.39841003 524.54292297 1003.25741577 525.03189087 C997.03942677 527.69677673 990.82205795 530.36310051 984.60546875 533.03125 C967.52037499 540.36295697 950.41927268 547.65651325 933.3125 554.9375 C914.57303819 562.91355554 895.84327635 570.91184884 877.125 578.9375 C875.96902313 579.43312439 874.81304626 579.92874878 873.62203979 580.43939209 C865.41431416 583.9587112 857.2070978 587.47921708 849 591 C839.62535153 595.02165334 830.25047486 599.04277351 820.875 603.0625 C819.71695862 603.55902069 818.55891724 604.05554138 817.36578369 604.56710815 C799.13654472 612.38183797 780.89300935 620.16257802 762.64294434 627.92852783 C738.44119844 638.22801333 714.26584737 648.58868135 690.09375 658.95751953 C676.91704305 664.60945844 663.73788676 670.25568502 650.5592041 675.90301514 C647.0654971 677.40015458 643.57180477 678.89732827 640.078125 680.39453125 C638.95496887 680.8758551 637.83181274 681.35717896 636.67462158 681.85308838 C629.79803393 684.8002334 622.92218424 687.74909277 616.046875 690.69921875 C597.00183993 698.87008062 577.9437107 707.0095345 558.875 715.125 C540.28130783 723.03841243 521.69745867 730.97437672 503.125 738.9375 C501.96838867 739.4333963 500.81177734 739.9292926 499.62011719 740.44021606 C491.41303241 743.95926049 483.20645703 747.47949196 475 751 C441.44400477 765.39526833 407.87631974 779.76214798 374.27554321 794.05262756 C367.62921266 796.87974861 360.9855801 799.71310579 354.34375 802.55078125 C316.20062148 818.8398406 278.00119531 834.8617008 239 849 C238.23463928 849.27825623 237.46927856 849.55651245 236.6807251 849.84320068 C153.93566831 879.9081107 68.25052232 903.45687182 -30 912 C-30.7645752 912.05639648 -31.52915039 912.11279297 -32.31689453 912.17089844 C-101.13999687 917.15103301 -173.51920987 908.88544059 -235 876 C-235.97694824 875.48252197 -235.97694824 875.48252197 -236.97363281 874.95458984 C-270.46991549 857.09589403 -301.37933599 830.28414708 -323 799 C-323.44585449 798.36690918 -323.89170898 797.73381836 -324.35107422 797.08154297 C-330.89378737 787.76255212 -336.69455104 778.07144024 -342 768 C-342.36448242 767.31583008 -342.72896484 766.63166016 -343.10449219 765.92675781 C-362.87854922 728.28100228 -369.67538058 685.79712589 -369.375 643.6875 C-369.37067963 642.53056641 -369.36635925 641.37363281 -369.36190796 640.18164062 C-369.28657794 622.94161642 -368.72169616 606.05242217 -366 589 C-365.82839355 587.85950195 -365.65678711 586.71900391 -365.47998047 585.54394531 C-356.45611409 526.11061626 -337.00296477 469.08924801 -311.35644531 414.86865234 C-309.95403227 411.90278603 -308.56702876 408.92997329 -307.1796875 405.95703125 C-295.20861497 380.48276607 -281.638435 356.0254135 -267 332 C-266.38157227 330.98486328 -265.76314453 329.96972656 -265.12597656 328.92382812 C-250.93285928 305.72890918 -235.77217608 283.14816215 -220 261 C-219.47132324 260.25524414 -218.94264648 259.51048828 -218.39794922 258.74316406 C-210.14965583 247.14233852 -201.58632315 235.79631994 -192.91943359 224.50585938 C-191.12275447 222.16025844 -189.33481076 219.80835467 -187.55078125 217.453125 C-181.72290339 209.76922401 -175.78196594 202.20199214 -169.66772461 194.74365234 C-166.32354165 190.65716326 -163.06614927 186.51930494 -159.875 182.3125 C-155.63783651 176.75680265 -151.18908379 171.42204887 -146.6484375 166.11328125 C-144.24263886 163.29785598 -141.89547737 160.43871579 -139.5625 157.5625 C-135.60723975 152.70156299 -131.54026529 147.9459244 -127.44824219 143.20043945 C-124.34573369 139.59454054 -121.30541477 135.94805175 -118.3125 132.25 C-114.75904431 127.87060596 -111.037352 123.68604235 -107.23828125 119.51953125 C-104.97152842 116.96795083 -102.82459913 114.34828468 -100.6875 111.6875 C-96.80044748 106.87786607 -92.67904282 102.35789937 -88.453125 97.84985352 C-84.43220527 93.53520611 -80.71302597 89.02434855 -77.01953125 84.42578125 C-74.71562782 81.65842336 -72.2485608 79.15813877 -69.6640625 76.65625 C-67.3138242 74.31704569 -65.17990951 71.8111563 -63.015625 69.30078125 C-60.55519731 66.4922698 -58.03025008 63.74538121 -55.5 61 C-52.46095466 57.69986653 -49.43843541 54.3905024 -46.5 51 C-43.09255081 47.06832786 -39.56870327 43.24638756 -36.04467773 39.41967773 C-33.51259884 36.66526572 -31.00964732 33.89257501 -28.5625 31.0625 C-24.98573972 26.9367885 -21.27286488 22.94148921 -17.56079102 18.93798828 C-13.64031753 14.70626828 -9.77368426 10.42953554 -5.9375 6.12109375 C-4.01568447 4.0171707 -2.03048322 1.99875692 0 0 Z " fill="#000000" transform="translate(369,0)"/>
</svg>
