<?xml version="1.0" encoding="UTF-8"?>
<svg version="1.1" xmlns="http://www.w3.org/2000/svg" width="259" height="194">
<path d="M0 0 C85.47 0 170.94 0 259 0 C259 64.02 259 128.04 259 194 C173.53 194 88.06 194 0 194 C0 129.98 0 65.96 0 0 Z " fill="#FEFEFE" transform="translate(0,0)"/>
<path d="M0 0 C15.55501669 13.30478254 27.50622824 33.89533601 29.27050781 54.48339844 C30.61855202 77.95744204 25.94934248 101.10954336 10.2109375 119.328125 C9.49164063 120.10800781 8.77234375 120.88789063 8.03125 121.69140625 C7.20882812 122.60535156 6.38640625 123.51929688 5.5390625 124.4609375 C-0.91837139 131.30207398 -7.66164468 136.3011707 -15.96875 140.69140625 C-16.87536377 141.1711792 -16.87536377 141.1711792 -17.80029297 141.66064453 C-38.16389312 152.17242257 -61.47513147 153.31375032 -83.23046875 146.40234375 C-104.34635882 139.16239698 -122.39889051 124.30529455 -132.35400391 104.2265625 C-141.50536918 84.89616123 -145.42908244 60.22810784 -138.21777344 39.53662109 C-134.44397335 29.28300147 -130.10965074 20.06536575 -122.96875 11.69140625 C-122.25847656 10.83289063 -121.54820313 9.974375 -120.81640625 9.08984375 C-89.32155355 -27.55267381 -37.03990759 -28.80340182 0 0 Z " fill="#06724F" transform="translate(185.96875,31.30859375)"/>
<path d="M0 0 C11.73531315 6.55744215 18.81002509 16.05911164 22.93359375 28.8046875 C23.3065049 31.0421544 23.34193542 33.16245369 23.30859375 35.4296875 C23.29957031 36.22890625 23.29054688 37.028125 23.28125 37.8515625 C23.26964844 38.45484375 23.25804687 39.058125 23.24609375 39.6796875 C19.09412352 39.20061401 15.95468028 38.53398077 12.24609375 36.6796875 C10.76109375 37.1746875 10.76109375 37.1746875 9.24609375 37.6796875 C9.24609375 38.3396875 9.24609375 38.9996875 9.24609375 39.6796875 C10.76203125 39.8653125 10.76203125 39.8653125 12.30859375 40.0546875 C16.12546987 40.66054085 19.56109487 41.55162662 23.24609375 42.6796875 C23.24609375 43.9996875 23.24609375 45.3196875 23.24609375 46.6796875 C19.05139804 46.08044526 15.23609541 45.10468809 11.24609375 43.6796875 C11.24609375 44.6696875 11.24609375 45.6596875 11.24609375 46.6796875 C11.94734375 46.7828125 12.64859375 46.8859375 13.37109375 46.9921875 C16.63747022 47.77327753 19.29327895 49.10027493 22.24609375 50.6796875 C22.24609375 51.6696875 22.24609375 52.6596875 22.24609375 53.6796875 C18.68829179 53.06977859 15.56323485 52.1013194 12.24609375 50.6796875 C12.24609375 51.6696875 12.24609375 52.6596875 12.24609375 53.6796875 C13.39078125 53.8653125 13.39078125 53.8653125 14.55859375 54.0546875 C17.24609375 54.6796875 17.24609375 54.6796875 20.24609375 56.6796875 C20.24609375 57.6696875 20.24609375 58.6596875 20.24609375 59.6796875 C17.27609375 58.6896875 14.30609375 57.6996875 11.24609375 56.6796875 C11.24609375 57.6696875 11.24609375 58.6596875 11.24609375 59.6796875 C8.93359375 59.4921875 8.93359375 59.4921875 6.24609375 58.6796875 C4.74609375 56.6171875 4.74609375 56.6171875 3.24609375 53.6796875 C2.58867187 52.87917969 2.58867187 52.87917969 1.91796875 52.0625 C-1.66327411 47.47772206 -1.97225986 44.3452631 -1.44140625 38.5546875 C-1.28027344 37.39710937 -1.11914062 36.23953125 -0.953125 35.046875 C-0.73737428 31.40026486 -1.39101292 29.03842836 -2.75390625 25.6796875 C-2.75390625 26.3396875 -2.75390625 26.9996875 -2.75390625 27.6796875 C-2.80060793 29.05990171 -2.84751268 30.44010905 -2.89453125 31.8203125 C-2.93184501 33.52341897 -2.96826501 35.2265452 -3.00390625 36.9296875 C-3.03742188 37.77660156 -3.0709375 38.62351563 -3.10546875 39.49609375 C-3.19438077 45.21313651 -2.28882707 48.00091316 1.24609375 52.6796875 C1.97205606 56.48266436 1.4700715 60.00775426 0.24609375 63.6796875 C1.06013672 64.15148437 1.06013672 64.15148437 1.890625 64.6328125 C8.99653312 68.88355393 8.99653312 68.88355393 11.24609375 72.6796875 C8.24609375 74.6796875 8.24609375 74.6796875 5.24609375 75.6796875 C5.24609375 76.6696875 5.24609375 77.6596875 5.24609375 78.6796875 C3.76109375 79.1746875 3.76109375 79.1746875 2.24609375 79.6796875 C1.40165807 78.43716071 0.57094795 77.1852989 -0.25390625 75.9296875 C-0.95 74.88554687 -0.95 74.88554687 -1.66015625 73.8203125 C-2.75390625 71.6796875 -2.75390625 71.6796875 -2.75390625 67.6796875 C-3.41390625 67.6796875 -4.07390625 67.6796875 -4.75390625 67.6796875 C-4.30048757 68.95228261 -3.84095398 70.22269993 -3.37890625 71.4921875 C-3.12367188 72.19988281 -2.8684375 72.90757812 -2.60546875 73.63671875 C-1.72732935 75.92742109 -1.72732935 75.92742109 0.24609375 78.6796875 C0.24609375 79.6696875 0.24609375 80.6596875 0.24609375 81.6796875 C-0.41390625 81.6796875 -1.07390625 81.6796875 -1.75390625 81.6796875 C-7.85893081 72.06427382 -7.85893081 72.06427382 -6.75390625 65.6796875 C-5.44644876 63.99264557 -4.11218596 62.32608715 -2.75390625 60.6796875 C-1.4938431 57.36159286 -1.4938431 57.36159286 -1.75390625 53.6796875 C-2.83496078 51.65078835 -2.83496078 51.65078835 -4.25390625 49.6796875 C-6.76779514 46.0546875 -6.76779514 46.0546875 -6.62890625 42.3046875 C-6.19578125 40.5103125 -6.19578125 40.5103125 -5.75390625 38.6796875 C-5.47057902 36.95566806 -5.22217474 35.22564538 -5.00390625 33.4921875 C-4.8853125 32.67363281 -4.76671875 31.85507813 -4.64453125 31.01171875 C-4.78297767 28.0598432 -5.8201529 26.84768417 -7.75390625 24.6796875 C-7.25890625 25.6696875 -7.25890625 25.6696875 -6.75390625 26.6796875 C-6.65782017 28.51097521 -6.62408046 30.34588709 -6.62890625 32.1796875 C-6.62503906 33.64921875 -6.62503906 33.64921875 -6.62109375 35.1484375 C-6.75390625 37.6796875 -6.75390625 37.6796875 -7.75390625 39.6796875 C-8.16945029 43.91823667 -8.00164309 46.66804765 -5.75390625 50.2421875 C-3.56310197 54.00763236 -2.9743126 55.43523317 -3.75390625 59.6796875 C-4.57003731 61.01617058 -5.42839804 62.32734318 -6.31640625 63.6171875 C-8.38857477 66.69315437 -8.75390625 67.47257726 -8.75390625 71.3671875 C-7.78810312 74.56641037 -6.50520011 76.86238868 -4.75390625 79.6796875 C-4.75390625 80.9996875 -4.75390625 82.3196875 -4.75390625 83.6796875 C-5.74390625 84.0096875 -6.73390625 84.3396875 -7.75390625 84.6796875 C-7.94726562 84.07640625 -8.140625 83.473125 -8.33984375 82.8515625 C-8.60023438 82.05234375 -8.860625 81.253125 -9.12890625 80.4296875 C-9.38414062 79.64078125 -9.639375 78.851875 -9.90234375 78.0390625 C-10.67942106 75.68939924 -10.67942106 75.68939924 -11.85546875 73.6953125 C-13.00157281 71.12405296 -13.10300091 69.47244476 -12.75390625 66.6796875 C-11.33060836 64.27039484 -9.68352773 62.16954011 -7.96875 59.9609375 C-6.51886509 57.72620046 -6.51886509 57.72620046 -6.94140625 55.08203125 C-7.70268377 52.45892887 -7.70268377 52.45892887 -9.81640625 49.7421875 C-12.06519169 46.18765568 -12.33114171 44.80279795 -11.75390625 40.6796875 C-11.25661702 39.35808732 -10.73397251 38.04585366 -10.19140625 36.7421875 C-8.56903219 32.75512672 -8.65642277 29.9007778 -9.75390625 25.6796875 C-10.41390625 25.0196875 -11.07390625 24.3596875 -11.75390625 23.6796875 C-11.22796875 24.4221875 -11.22796875 24.4221875 -10.69140625 25.1796875 C-9.32785387 28.81582717 -9.90502436 31.94149201 -10.75390625 35.6796875 C-11.10453125 36.3396875 -11.45515625 36.9996875 -11.81640625 37.6796875 C-13.33876662 40.92738963 -13.33191319 44.20492485 -12.75390625 47.6796875 C-11.47636071 49.7157757 -10.14690807 51.72077869 -8.75390625 53.6796875 C-8.34694645 56.76454326 -8.48901042 58.23819446 -10.1015625 60.92578125 C-10.66746094 61.64894531 -11.23335937 62.37210937 -11.81640625 63.1171875 C-14.34150893 66.65078192 -14.34150893 66.65078192 -14.81640625 70.9296875 C-13.84516172 73.7161506 -13.84516172 73.7161506 -12.19140625 76.1171875 C-10.3324763 79.4309322 -10.53406312 81.94235421 -10.75390625 85.6796875 C-11.74390625 85.6796875 -12.73390625 85.6796875 -13.75390625 85.6796875 C-13.87507813 84.99261719 -13.99625 84.30554688 -14.12109375 83.59765625 C-14.28867188 82.69660156 -14.45625 81.79554688 -14.62890625 80.8671875 C-14.79132813 79.97386719 -14.95375 79.08054687 -15.12109375 78.16015625 C-15.66579074 75.45240904 -15.66579074 75.45240904 -17.75390625 72.6796875 C-18.20350447 69.339815 -18.50199711 66.82204246 -16.59765625 63.9140625 C-16.13359375 63.34171875 -15.66953125 62.769375 -15.19140625 62.1796875 C-12.93256939 59.33214528 -12.75390625 58.89165029 -12.75390625 54.9921875 C-13.70266927 51.84940999 -14.65884075 50.13911222 -16.75390625 47.6796875 C-16.75390625 47.0196875 -16.75390625 46.3596875 -16.75390625 45.6796875 C-22.97697802 45.45138291 -22.97697802 45.45138291 -28.34375 48.05859375 C-30.35572375 51.25913563 -30.75390625 53.42749102 -30.75390625 57.2421875 C-29.92763734 60.78113008 -29.92763734 60.78113008 -27.62890625 63.6796875 C-25.75390625 66.6796875 -25.75390625 66.6796875 -25.81640625 70.1796875 C-26.75214199 73.67310093 -28.11486067 76.4698899 -29.75390625 79.6796875 C-30.46148951 82.9163838 -30.46148951 82.9163838 -30.75390625 85.6796875 C-31.41390625 85.6796875 -32.07390625 85.6796875 -32.75390625 85.6796875 C-33.07678168 80.29843035 -32.17111096 77.41338005 -29.75390625 72.6796875 C-28.99583547 68.32078052 -29.89088608 66.24871945 -32.31640625 62.7421875 C-34.38857477 59.66622063 -34.75390625 58.88679774 -34.75390625 54.9921875 C-33.75390625 51.6796875 -33.75390625 51.6796875 -32.19140625 49.1171875 C-30.3347065 45.96887053 -30.32776983 44.30184709 -30.75390625 40.6796875 C-31.46652017 38.63604183 -32.26905164 36.64232412 -33.08203125 34.63671875 C-34.42295996 30.73087407 -34.03379494 27.51935357 -32.75390625 23.6796875 C-35.09329105 27.33497625 -35.05318821 30.41491961 -34.75390625 34.6796875 C-34.25890625 35.88625 -34.25890625 35.88625 -33.75390625 37.1171875 C-32.37769883 40.64371901 -32.11694485 43.97506145 -32.75390625 47.6796875 C-33.43453125 48.6903125 -34.11515625 49.7009375 -34.81640625 50.7421875 C-37.08082188 53.58884677 -37.08082188 53.58884677 -36.75390625 57.2421875 C-35.99066821 60.73518576 -35.99066821 60.73518576 -33.69140625 63.1171875 C-31.33658704 66.23162581 -31.23282361 67.96302861 -31.41796875 71.765625 C-31.896135 74.4900606 -33.2465651 76.38852895 -34.75390625 78.6796875 C-35.46791857 81.87363776 -35.46791857 81.87363776 -35.75390625 84.6796875 C-37.23890625 84.1846875 -37.23890625 84.1846875 -38.75390625 83.6796875 C-38.36492631 80.33446001 -38.01606193 78.07292101 -36.12890625 75.2421875 C-34.16748825 71.58681759 -34.66131585 69.6403277 -35.75390625 65.6796875 C-36.58674985 64.46225052 -37.4643184 63.27447325 -38.37890625 62.1171875 C-40.34933677 59.55848353 -40.74759551 58.98891383 -40.81640625 55.6171875 C-39.75390625 52.6796875 -39.75390625 52.6796875 -37.69140625 49.7421875 C-35.34458417 46.03269454 -35.27427731 43.99634799 -35.75390625 39.6796875 C-36.08390625 39.0403125 -36.41390625 38.4009375 -36.75390625 37.7421875 C-38.34925546 34.45177974 -37.87467902 31.30287069 -37.75390625 27.6796875 C-39.63449658 29.56027783 -38.87751843 32.17858788 -38.88671875 34.671875 C-38.82517156 36.88742768 -38.82517156 36.88742768 -37.75390625 39.6796875 C-37.22942008 46.07841877 -38.03840237 48.33865067 -41.75390625 53.6796875 C-42.38585742 56.90966016 -42.31709832 58.75552332 -40.58984375 61.58984375 C-40.12835938 62.25886719 -39.666875 62.92789063 -39.19140625 63.6171875 C-37.20530209 66.59070141 -36.75789321 67.45641793 -36.69140625 71.1796875 C-37.94193114 75.29906362 -39.65972753 78.92964654 -41.75390625 82.6796875 C-42.41390625 82.3496875 -43.07390625 82.0196875 -43.75390625 81.6796875 C-43.20666942 78.30506035 -42.69900625 76.5973375 -40.75390625 73.6796875 C-40.75390625 72.6896875 -40.75390625 71.6996875 -40.75390625 70.6796875 C-42.40390625 73.6496875 -44.05390625 76.6196875 -45.75390625 79.6796875 C-47.07390625 79.0196875 -48.39390625 78.3596875 -49.75390625 77.6796875 C-49.75390625 76.6896875 -49.75390625 75.6996875 -49.75390625 74.6796875 C-51.40390625 74.3496875 -53.05390625 74.0196875 -54.75390625 73.6796875 C-54.42390625 72.6896875 -54.09390625 71.6996875 -53.75390625 70.6796875 C-53.09390625 70.6796875 -52.43390625 70.6796875 -51.75390625 70.6796875 C-51.75390625 70.0196875 -51.75390625 69.3596875 -51.75390625 68.6796875 C-49.44390625 67.3596875 -47.13390625 66.0396875 -44.75390625 64.6796875 C-44.94919922 63.6278125 -44.94919922 63.6278125 -45.1484375 62.5546875 C-46.29860742 54.64323831 -46.29860742 54.64323831 -44.671875 51.765625 C-44.20394531 51.20101562 -43.73601562 50.63640625 -43.25390625 50.0546875 C-38.71653695 44.12985817 -40.95711771 35.62200349 -41.75390625 28.6796875 C-42.08390625 29.0096875 -42.41390625 29.3396875 -42.75390625 29.6796875 C-42.69250279 31.53873013 -42.62661798 33.39774913 -42.53637695 35.25561523 C-42.17404796 44.02695744 -43.05249312 50.56332512 -48.75390625 57.6796875 C-51.75390625 59.6796875 -51.75390625 59.6796875 -54.75390625 59.6796875 C-54.75390625 60.6696875 -54.75390625 61.6596875 -54.75390625 62.6796875 C-57.40129541 64.140316 -58.64838959 64.6796875 -61.75390625 64.6796875 C-61.75390625 63.6896875 -61.75390625 62.6996875 -61.75390625 61.6796875 C-58.78390625 60.6896875 -58.78390625 60.6896875 -55.75390625 59.6796875 C-55.75390625 58.6896875 -55.75390625 57.6996875 -55.75390625 56.6796875 C-56.68203125 57.1953125 -57.61015625 57.7109375 -58.56640625 58.2421875 C-61.75390625 59.6796875 -61.75390625 59.6796875 -64.75390625 58.6796875 C-64.75390625 58.0196875 -64.75390625 57.3596875 -64.75390625 56.6796875 C-58.00390625 52.6796875 -58.00390625 52.6796875 -55.75390625 52.6796875 C-55.75390625 52.0196875 -55.75390625 51.3596875 -55.75390625 50.6796875 C-59.05390625 51.6696875 -62.35390625 52.6596875 -65.75390625 53.6796875 C-66.24890625 52.1946875 -66.24890625 52.1946875 -66.75390625 50.6796875 C-65.97144531 50.34195313 -65.18898438 50.00421875 -64.3828125 49.65625 C-63.37089844 49.21023437 -62.35898438 48.76421875 -61.31640625 48.3046875 C-60.30707031 47.86382812 -59.29773438 47.42296875 -58.2578125 46.96875 C-55.63247078 45.92892464 -55.63247078 45.92892464 -54.75390625 43.6796875 C-55.3571875 43.89625 -55.96046875 44.1128125 -56.58203125 44.3359375 C-57.38125 44.614375 -58.18046875 44.8928125 -59.00390625 45.1796875 C-59.7928125 45.458125 -60.58171875 45.7365625 -61.39453125 46.0234375 C-63.75390625 46.6796875 -63.75390625 46.6796875 -67.75390625 46.6796875 C-67.75390625 45.3596875 -67.75390625 44.0396875 -67.75390625 42.6796875 C-67.16222656 42.55851562 -66.57054688 42.43734375 -65.9609375 42.3125 C-59.66772331 41.06335063 -59.66772331 41.06335063 -53.75390625 38.6796875 C-53.42390625 37.6896875 -53.09390625 36.6996875 -52.75390625 35.6796875 C-53.34558594 35.9684375 -53.93726562 36.2571875 -54.546875 36.5546875 C-62.39538252 40.24207766 -62.39538252 40.24207766 -66.75390625 39.6796875 C-69.04468943 32.57825963 -66.0587379 25.96101424 -63.00390625 19.5546875 C-56.74032675 7.67496581 -47.89961861 0.64157792 -35.1015625 -3.59375 C-34.32683594 -3.83351562 -33.55210938 -4.07328125 -32.75390625 -4.3203125 C-21.92084126 -7.93133416 -9.94938904 -4.7700617 0 0 Z " fill="#161614" transform="translate(151.75390625,55.3203125)"/>
<path d="M0 0 C9.93164754 7.17688399 17.57962368 17.12885427 20.6875 29.171875 C22.96339609 44.53417364 20.79449121 57.67073234 11.9609375 70.66015625 C5.16658013 79.78194242 -4.65311857 86.82214596 -15.79296875 89.68359375 C-31.3445992 91.91088683 -44.45002159 90.35290554 -57.6875 81.4375 C-68.6362377 72.96260245 -75.45398091 61.71057476 -77.875 48.125 C-79.40176456 32.30551177 -74.49777738 19.18861194 -64.6875 6.9375 C-60.41069124 2.28470805 -55.4047089 -0.88289724 -49.875 -3.875 C-49.07835938 -4.31199219 -48.28171875 -4.74898437 -47.4609375 -5.19921875 C-32.05338676 -12.16930123 -13.79698937 -8.58274255 0 0 Z M-56.875 5.125 C-57.74125 5.7025 -58.6075 6.28 -59.5 6.875 C-68.13804525 15.05841129 -72.92255971 25.43605239 -73.89453125 37.19140625 C-74.10050712 39.1328024 -74.10050712 39.1328024 -72.875 40.125 C-67.60292514 39.70323401 -63.59464769 38.34034483 -58.875 36.125 C-59.875 39.125 -59.875 39.125 -61.51171875 40.0390625 C-65.6218623 41.46391226 -69.53403883 42.58237985 -73.875 43.125 C-73.875 44.445 -73.875 45.765 -73.875 47.125 C-69.303721 46.57644652 -65.20064205 45.70755197 -60.875 44.125 C-62.34407001 47.06314003 -64.46947806 47.4536226 -67.4375 48.75 C-68.44941406 49.19601563 -69.46132812 49.64203125 -70.50390625 50.1015625 C-71.28636719 50.43929687 -72.06882812 50.77703125 -72.875 51.125 C-72.545 52.115 -72.215 53.105 -71.875 54.125 C-68.575 53.135 -65.275 52.145 -61.875 51.125 C-61.875 51.785 -61.875 52.445 -61.875 53.125 C-62.6175 53.41375 -63.36 53.7025 -64.125 54 C-66.44239797 54.94802644 -68.65417115 55.97345911 -70.875 57.125 C-70.545 58.115 -70.215 59.105 -69.875 60.125 C-69.111875 59.815625 -68.34875 59.50625 -67.5625 59.1875 C-65.68710323 58.44606407 -63.78815348 57.76271783 -61.875 57.125 C-61.875 58.115 -61.875 59.105 -61.875 60.125 C-64.845 61.115 -64.845 61.115 -67.875 62.125 C-67.875 63.115 -67.875 64.105 -67.875 65.125 C-64.26507621 64.46914811 -64.26507621 64.46914811 -60.875 63.125 C-60.875 62.135 -60.875 61.145 -60.875 60.125 C-60.111875 60.063125 -59.34875 60.00125 -58.5625 59.9375 C-55.73140957 59.3747791 -55.73140957 59.3747791 -54.3125 57 C-53.838125 56.05125 -53.36375 55.1025 -52.875 54.125 C-52.18921875 53.09375 -51.5034375 52.0625 -50.796875 51 C-48.35659049 46.75277876 -48.443841 43.04058375 -48.6875 38.25 C-48.78040374 35.53993004 -48.84236138 32.83697278 -48.875 30.125 C-48.545 29.795 -48.215 29.465 -47.875 29.125 C-47.895625 30.259375 -47.91625 31.39375 -47.9375 32.5625 C-47.97076665 35.70619873 -47.63143092 38.53881811 -47.0625 41.625 C-46.56750198 45.39212777 -47.12682424 46.96527239 -49.375 50 C-52.57315735 54.35231331 -52.0224171 57.82127118 -51.26953125 63 C-51.07423828 64.051875 -51.07423828 64.051875 -50.875 65.125 C-53.185 66.445 -55.495 67.765 -57.875 69.125 C-57.875 69.785 -57.875 70.445 -57.875 71.125 C-59.36 71.62 -59.36 71.62 -60.875 72.125 C-60.545 73.115 -60.215 74.105 -59.875 75.125 C-58.9159375 75.3415625 -58.9159375 75.3415625 -57.9375 75.5625 C-55.875 76.125 -55.875 76.125 -54.625 78.1875 C-54.3775 78.826875 -54.13 79.46625 -53.875 80.125 C-50.81100134 79.45529489 -50.81100134 79.45529489 -49.70703125 77.27734375 C-49.37058594 76.54644531 -49.03414062 75.81554687 -48.6875 75.0625 C-48.34332031 74.32902344 -47.99914062 73.59554687 -47.64453125 72.83984375 C-47.39058594 72.27394531 -47.13664062 71.70804687 -46.875 71.125 C-47.48777612 74.08675123 -48.12872522 75.50558783 -49.875 78.125 C-49.5628236 80.77132287 -49.5628236 80.77132287 -48.875 83.125 C-48.215 82.135 -47.555 81.145 -46.875 80.125 C-46.153125 79.0525 -45.43125 77.98 -44.6875 76.875 C-43.08087535 74.01677262 -42.875 73.01850246 -42.875 69.5625 C-43.71359475 66.02901509 -43.71359475 66.02901509 -45.9375 63.0625 C-48.20571988 59.62358598 -48.54767797 58.16106784 -47.875 54.125 C-47.215 53.17625 -46.555 52.2275 -45.875 51.25 C-43.21689769 47.09671515 -43.47668897 44.98439461 -43.875 40.125 C-44.205 39.135 -44.535 38.145 -44.875 37.125 C-45.05312624 34.4321504 -44.96227698 31.83058632 -44.875 29.125 C-44.545 28.795 -44.215 28.465 -43.875 28.125 C-43.91625 29.3625 -43.9575 30.6 -44 31.875 C-44.01193419 35.28221082 -43.43483586 37.10281803 -41.875 40.125 C-41.24073776 44.83666232 -41.8055268 47.36382783 -44.4375 51.1875 C-46.27227397 53.90568366 -46.86253523 54.81961309 -47 58.1875 C-45.96758336 60.88325457 -45.00425029 62.34504879 -43.25 64.5625 C-41.07846599 67.40557776 -40.875 67.93513795 -40.875 71.75 C-41.875 75.125 -41.875 75.125 -43.5 77.75 C-45.16181583 80.07857712 -45.16181583 80.07857712 -44.5625 82.9375 C-44.335625 83.659375 -44.10875 84.38125 -43.875 85.125 C-43.215 85.125 -42.555 85.125 -41.875 85.125 C-41.58625 84.0525 -41.2975 82.98 -41 81.875 C-39.875 78.125 -39.875 78.125 -38.75 76.1875 C-37.33493484 72.85198927 -37.19817004 69.63400191 -37.875 66.125 C-39.02691467 64.17437098 -40.3386817 62.48323416 -41.74609375 60.7109375 C-42.875 59.125 -42.875 59.125 -43.4375 56.5625 C-42.875 54.125 -42.875 54.125 -40.875 51.3125 C-38.21081251 47.06645119 -38.40323381 45.07854502 -38.875 40.125 C-39.52757873 38.452767 -40.19367549 36.78572849 -40.875 35.125 C-41.0625 31.375 -41.0625 31.375 -40.875 28.125 C-40.545 27.795 -40.215 27.465 -39.875 27.125 C-39.82601562 27.80046875 -39.77703125 28.4759375 -39.7265625 29.171875 C-39.65179688 30.06390625 -39.57703125 30.9559375 -39.5 31.875 C-39.39558594 33.19757813 -39.39558594 33.19757813 -39.2890625 34.546875 C-38.87321062 37.13614142 -38.09660701 38.83206304 -36.875 41.125 C-36.34571692 45.09462313 -36.81204854 47.28239153 -38.9375 50.5625 C-40.68793802 53.39060982 -40.875 54.14205787 -40.875 57.6875 C-40.03640525 61.22098491 -40.03640525 61.22098491 -37.8125 64.1875 C-35.54878607 67.61958241 -35.28738786 69.09565964 -35.875 73.125 C-36.37 74.094375 -36.865 75.06375 -37.375 76.0625 C-39.13276883 79.65127802 -39.11172442 82.17959295 -38.875 86.125 C-38.215 86.125 -37.555 86.125 -36.875 86.125 C-36.606875 84.949375 -36.33875 83.77375 -36.0625 82.5625 C-35.34061179 79.59648107 -34.49784533 77.31481589 -33.1875 74.5 C-31.68778431 70.64358824 -31.62759262 69.03354312 -32.875 65.125 C-33.57625 64.155625 -34.2775 63.18625 -35 62.1875 C-36.875 59.125 -36.875 59.125 -36.8125 55.5625 C-35.15086207 49.46982759 -35.15086207 49.46982759 -32.875 47.125 C-29.54633652 46.40021037 -26.27546264 46.1951784 -22.875 46.125 C-22.58625 46.888125 -22.2975 47.65125 -22 48.4375 C-20.91230987 51.27529308 -20.91230987 51.27529308 -18.875 54.125 C-18.4375 56.375 -18.4375 56.375 -18.875 59.125 C-19.66745115 60.2791623 -20.50612658 61.40221659 -21.375 62.5 C-23.44504771 65.2110568 -23.87666411 66.13685676 -24.375 69.6875 C-23.83358976 73.40969541 -22.60225375 75.8086728 -20.875 79.125 C-20.1875 83 -20.1875 83 -19.875 86.125 C-18.885 86.125 -17.895 86.125 -16.875 86.125 C-16.52774082 81.87107499 -16.62645048 79.12040441 -18.9375 75.5625 C-20.875 72.125 -20.875 72.125 -20.9375 69.125 C-19.96390238 66.37601847 -19.03694863 64.84369918 -17.3125 62.5625 C-15.6698236 60.38499873 -14.90666385 59.26924641 -14.3125 56.5625 C-14.76271668 53.90432177 -14.76271668 53.90432177 -16.875 51.3125 C-19.27719006 47.48400959 -19.62235178 44.49021379 -18.875 40.125 C-18.359375 38.949375 -17.84375 37.77375 -17.3125 36.5625 C-15.62392138 32.52459461 -15.966043 30.33925516 -16.875 26.125 C-16.875 25.465 -16.875 24.805 -16.875 24.125 C-14.50738769 27.4675115 -14.84396648 30.2307032 -15.44921875 34.17578125 C-15.875 36.125 -15.875 36.125 -16.9375 38.75 C-18.17204227 41.87750708 -18.33513095 43.77261734 -17.875 47.125 C-17.06895355 48.50834998 -16.20978569 49.86151114 -15.3125 51.1875 C-12.88925759 54.83271935 -12.88925759 54.83271935 -12.75 57.6875 C-13.80858625 59.98110353 -14.94701079 61.53258952 -16.5 63.5 C-18.63082916 66.33905272 -18.875 66.92382459 -18.875 70.6875 C-17.87838774 74.11335465 -16.52131308 76.96956659 -14.875 80.125 C-14.1875 83 -14.1875 83 -13.875 85.125 C-12.885 84.795 -11.895 84.465 -10.875 84.125 C-11.26397994 80.77977251 -11.61284432 78.51823351 -13.5 75.6875 C-15.44113112 72.06993747 -14.90676521 70.04570779 -13.875 66.125 C-13.194375 65.114375 -12.51375 64.10375 -11.8125 63.0625 C-9.52912149 59.60060355 -9.21137262 58.18971773 -9.875 54.125 C-10.88962175 52.38111887 -11.90638812 50.63758957 -12.98046875 48.9296875 C-14.4366667 45.99185583 -14.18807519 43.31836698 -13.875 40.125 C-13.38 39.135 -13.38 39.135 -12.875 38.125 C-12.80431756 36.29291127 -12.79078959 34.45832316 -12.8125 32.625 C-12.82152344 31.6453125 -12.83054688 30.665625 -12.83984375 29.65625 C-12.85144531 28.8209375 -12.86304688 27.985625 -12.875 27.125 C-12.875 26.465 -12.875 25.805 -12.875 25.125 C-10.96307912 28.3115348 -10.70876025 30.27485248 -11.1875 33.9375 C-11.34025391 35.25814453 -11.34025391 35.25814453 -11.49609375 36.60546875 C-11.875 39.125 -11.875 39.125 -12.75 42.75 C-12.91057045 47.08540222 -11.37222795 48.68888064 -8.97265625 52.14453125 C-7.875 54.125 -7.875 54.125 -7.8125 57.8125 C-8.875 61.125 -8.875 61.125 -10.9375 63.625 C-13.12184198 66.04008006 -13.12184198 66.04008006 -13.4375 69.375 C-12.69190486 74.3456343 -10.54210878 77.92430368 -7.875 82.125 C-7.215 82.125 -6.555 82.125 -5.875 82.125 C-6.44576315 78.12965792 -7.77541415 75.536827 -9.875 72.125 C-10.5625 69.8125 -10.5625 69.8125 -10.875 68.125 C-10.215 68.125 -9.555 68.125 -8.875 68.125 C-8.7925 68.99125 -8.71 69.8575 -8.625 70.75 C-7.76892254 74.60234858 -6.20131454 76.973219 -3.875 80.125 C-2.555 79.465 -1.235 78.805 0.125 78.125 C-0.205 77.135 -0.535 76.145 -0.875 75.125 C-0.070625 75.00125 0.73375 74.8775 1.5625 74.75 C2.8309375 74.440625 2.8309375 74.440625 4.125 74.125 C4.455 73.465 4.785 72.805 5.125 72.125 C1.58460866 69.2093836 -2.0376772 66.62372182 -5.875 64.125 C-5.38 62.64 -5.38 62.64 -4.875 61.125 C-4.22330945 55.37258353 -4.22330945 55.37258353 -6.87890625 50.47265625 C-9.56483424 45.96807643 -9.32792281 42.50270343 -9.125 37.375 C-9.10695313 36.51261719 -9.08890625 35.65023437 -9.0703125 34.76171875 C-9.03553945 33.17457721 -8.99252639 31.58757861 -8.93847656 30.00097656 C-8.89477916 28.7095502 -8.875 27.41716543 -8.875 26.125 C-6.96884875 30.82255626 -6.86811279 34.01152231 -7.5625 39 C-8.186507 45.80669699 -7.119286 48.95695763 -2.875 54.125 C-2.38 55.094375 -1.885 56.06375 -1.375 57.0625 C-0.0066303 59.38043541 -0.0066303 59.38043541 2.8125 59.9375 C3.9571875 60.0303125 3.9571875 60.0303125 5.125 60.125 C5.125 59.135 5.125 58.145 5.125 57.125 C8.095 58.115 11.065 59.105 14.125 60.125 C14.125 59.135 14.125 58.145 14.125 57.125 C11.23665997 55.01729241 9.74037605 54.125 6.125 54.125 C6.125 53.135 6.125 52.145 6.125 51.125 C7.218125 51.62 8.31125 52.115 9.4375 52.625 C12.92466245 54.31339906 12.92466245 54.31339906 16.125 54.125 C16.125 53.135 16.125 52.145 16.125 51.125 C14.85808493 50.45091692 13.58629251 49.78599503 12.3125 49.125 C11.60480469 48.75375 10.89710938 48.3825 10.16796875 48 C8.03579271 46.92814642 8.03579271 46.92814642 5.125 47.125 C5.125 46.135 5.125 45.145 5.125 44.125 C5.65609375 44.3415625 6.1871875 44.558125 6.734375 44.78125 C7.44078125 45.0596875 8.1471875 45.338125 8.875 45.625 C9.57109375 45.9034375 10.2671875 46.181875 10.984375 46.46875 C13.38922695 47.32040327 13.38922695 47.32040327 17.125 47.125 C17.125 45.805 17.125 44.485 17.125 43.125 C10.31931865 40.52473251 10.31931865 40.52473251 3.125 40.125 C3.125 39.135 3.125 38.145 3.125 37.125 C5.68853377 37.55225563 7.81844896 37.96214476 10.125 39.1875 C12.57489787 40.33588963 14.45138335 40.27353426 17.125 40.125 C17.86040601 28.9100583 13.97877554 19.89649862 7.125 11.125 C6.64675781 10.50882813 6.16851562 9.89265625 5.67578125 9.2578125 C-1.73524748 0.8574021 -14.03785753 -4.26694584 -25.046875 -5.12109375 C-37.49562358 -5.56957487 -46.99225236 -2.32286779 -56.875 5.125 Z " fill="#EFF1F0" transform="translate(157.875,54.875)"/>
<path d="M0 0 C15.55501669 13.30478254 27.50622824 33.89533601 29.27050781 54.48339844 C30.61855202 77.95744204 25.94934248 101.10954336 10.2109375 119.328125 C9.49164063 120.10800781 8.77234375 120.88789063 8.03125 121.69140625 C7.20882812 122.60535156 6.38640625 123.51929688 5.5390625 124.4609375 C-0.91837139 131.30207398 -7.66164468 136.3011707 -15.96875 140.69140625 C-16.87536377 141.1711792 -16.87536377 141.1711792 -17.80029297 141.66064453 C-38.16389312 152.17242257 -61.47513147 153.31375032 -83.23046875 146.40234375 C-104.34635882 139.16239698 -122.39889051 124.30529455 -132.35400391 104.2265625 C-141.50536918 84.89616123 -145.42908244 60.22810784 -138.21777344 39.53662109 C-134.44397335 29.28300147 -130.10965074 20.06536575 -122.96875 11.69140625 C-122.25847656 10.83289063 -121.54820313 9.974375 -120.81640625 9.08984375 C-89.32155355 -27.55267381 -37.03990759 -28.80340182 0 0 Z M-114.96875 9.69140625 C-131.14934588 27.70329438 -137.2040176 48.6573077 -136.10595703 72.42871094 C-134.87220714 92.77460769 -125.04867425 109.59095733 -110.96875 123.69140625 C-110.31132813 124.36042969 -109.65390625 125.02945313 -108.9765625 125.71875 C-94.8124489 139.12298626 -75.76783813 144.86518652 -56.65625 144.87890625 C-55.3269043 144.89727539 -55.3269043 144.89727539 -53.97070312 144.91601562 C-32.8455219 144.9622414 -13.47723281 135.72246606 1.58984375 121.23046875 C16.50325596 105.7495751 24.43637398 85.44104833 24.33398438 63.95458984 C24.025717 51.84367823 21.3585919 40.60558808 16.03125 29.69140625 C15.61230469 28.78003906 15.19335938 27.86867187 14.76171875 26.9296875 C10.82117365 18.96910504 5.2356571 12.91326597 -0.96875 6.69140625 C-1.68933594 5.94761719 -2.40992188 5.20382813 -3.15234375 4.4375 C-19.34670605 -11.2058254 -40.71981079 -14.84783447 -62.359375 -14.57421875 C-82.4933543 -13.9937592 -101.00034508 -4.67357799 -114.96875 9.69140625 Z " fill="#EBF2EF" transform="translate(185.96875,31.30859375)"/>
<path d="M0 0 C0 1.32 0 2.64 0 4 C0.66 4 1.32 4 2 4 C2.495 5.98 2.495 5.98 3 8 C4.98 8 6.96 8 9 8 C9 8.66 9 9.32 9 10 C8.01 10.66 7.02 11.32 6 12 C5.7497843 15.08365871 5.7497843 15.08365871 6 18 C6.81404297 17.566875 6.81404297 17.566875 7.64453125 17.125 C8.35996094 16.75375 9.07539063 16.3825 9.8125 16 C10.52019531 15.62875 11.22789062 15.2575 11.95703125 14.875 C14 14 14 14 17 14 C16.34 15.98 15.68 17.96 15 20 C15.598125 19.67 16.19625 19.34 16.8125 19 C19 18 19 18 22 18 C20.66666667 21.33333333 19.33333333 24.66666667 18 28 C17.44054687 27.7834375 16.88109375 27.566875 16.3046875 27.34375 C7.3315305 24.22766976 -3.10105877 23.06392984 -12 27 C-12.495 28.485 -12.495 28.485 -13 30 C-13.515625 30.556875 -14.03125 31.11375 -14.5625 31.6875 C-16.74963402 35.20593299 -16.26118877 37.88627695 -16 42 C-15.67 42.99 -15.34 43.98 -15 45 C-14.47551383 51.39873127 -15.28449612 53.65896317 -19 59 C-19.63195117 62.22997266 -19.56319207 64.07583582 -17.8359375 66.91015625 C-17.37445313 67.57917969 -16.91296875 68.24820313 -16.4375 68.9375 C-14.45139584 71.91101391 -14.00398696 72.77673043 -13.9375 76.5 C-15.18802489 80.61937612 -16.90582128 84.24995904 -19 88 C-19.66 87.67 -20.32 87.34 -21 87 C-20.45276317 83.62537285 -19.9451 81.91765 -18 79 C-18 78.01 -18 77.02 -18 76 C-19.65 78.97 -21.3 81.94 -23 85 C-24.32 84.34 -25.64 83.68 -27 83 C-27 82.01 -27 81.02 -27 80 C-28.65 79.67 -30.3 79.34 -32 79 C-31.67 78.01 -31.34 77.02 -31 76 C-30.34 76 -29.68 76 -29 76 C-29 75.34 -29 74.68 -29 74 C-26.69 72.68 -24.38 71.36 -22 70 C-22.19529297 68.948125 -22.19529297 68.948125 -22.39453125 67.875 C-23.54470117 59.96355081 -23.54470117 59.96355081 -21.91796875 57.0859375 C-21.45003906 56.52132812 -20.98210937 55.95671875 -20.5 55.375 C-15.9626307 49.45017067 -18.20321146 40.94231599 -19 34 C-19.33 34.33 -19.66 34.66 -20 35 C-19.93859654 36.85904263 -19.87271173 38.71806163 -19.7824707 40.57592773 C-19.42014171 49.34726994 -20.29858687 55.88363762 -26 63 C-29 65 -29 65 -32 65 C-32 65.99 -32 66.98 -32 68 C-34.64738916 69.4606285 -35.89448334 70 -39 70 C-39 69.01 -39 68.02 -39 67 C-36.03 66.01 -36.03 66.01 -33 65 C-33 64.01 -33 63.02 -33 62 C-33.928125 62.515625 -34.85625 63.03125 -35.8125 63.5625 C-39 65 -39 65 -42 64 C-42 63.34 -42 62.68 -42 62 C-35.25 58 -35.25 58 -33 58 C-33 57.34 -33 56.68 -33 56 C-36.3 56.99 -39.6 57.98 -43 59 C-43.495 57.515 -43.495 57.515 -44 56 C-43.21753906 55.66226563 -42.43507813 55.32453125 -41.62890625 54.9765625 C-40.61699219 54.53054687 -39.60507813 54.08453125 -38.5625 53.625 C-37.55316406 53.18414062 -36.54382813 52.74328125 -35.50390625 52.2890625 C-32.87856453 51.24923714 -32.87856453 51.24923714 -32 49 C-32.60328125 49.2165625 -33.2065625 49.433125 -33.828125 49.65625 C-34.62734375 49.9346875 -35.4265625 50.213125 -36.25 50.5 C-37.03890625 50.7784375 -37.8278125 51.056875 -38.640625 51.34375 C-41 52 -41 52 -45 52 C-45 50.68 -45 49.36 -45 48 C-44.40832031 47.87882812 -43.81664063 47.75765625 -43.20703125 47.6328125 C-36.91381706 46.38366313 -36.91381706 46.38366313 -31 44 C-30.67 43.01 -30.34 42.02 -30 41 C-30.59167969 41.28875 -31.18335937 41.5775 -31.79296875 41.875 C-39.64147627 45.56239016 -39.64147627 45.56239016 -44 45 C-46.29078318 37.89857213 -43.30483165 31.28132674 -40.25 24.875 C-33.9864205 12.99527831 -25.14571236 5.96189042 -12.34765625 1.7265625 C-11.57292969 1.48679688 -10.79820313 1.24703125 -10 1 C-6.52674819 -0.1577506 -3.63932552 -0.06866652 0 0 Z " fill="#1E1E1C" transform="translate(129,50)"/>
<path d="M0 0 C11.79062282 -1.09680212 23.07937373 4.61449446 32.1484375 11.671875 C38.7564209 17.59627391 44.52853659 27.17121952 46 36 C46.06548492 37.58211573 46.08578381 39.16670081 46.0625 40.75 C46.05347656 41.54921875 46.04445312 42.3484375 46.03515625 43.171875 C46.02355469 43.77515625 46.01195312 44.3784375 46 45 C41.84802977 44.52092651 38.70858653 43.85429327 35 42 C34.01 42.33 33.02 42.66 32 43 C32 43.66 32 44.32 32 45 C33.5159375 45.185625 33.5159375 45.185625 35.0625 45.375 C38.87937612 45.98085335 42.31500112 46.87193912 46 48 C46 49.32 46 50.64 46 52 C41.80530429 51.40075776 37.99000166 50.42500059 34 49 C34 49.99 34 50.98 34 52 C34.70125 52.103125 35.4025 52.20625 36.125 52.3125 C39.39137647 53.09359003 42.0471852 54.42058743 45 56 C45 56.99 45 57.98 45 59 C41.44219804 58.39009109 38.3171411 57.4216319 35 56 C35 56.99 35 57.98 35 59 C36.1446875 59.185625 36.1446875 59.185625 37.3125 59.375 C40 60 40 60 43 62 C43 62.99 43 63.98 43 65 C40.03 64.01 37.06 63.02 34 62 C34 62.99 34 63.98 34 65 C31.6875 64.8125 31.6875 64.8125 29 64 C27.5 61.9375 27.5 61.9375 26 59 C25.56171875 58.46632812 25.1234375 57.93265625 24.671875 57.3828125 C21.09063214 52.79803456 20.78164639 49.6655756 21.3125 43.875 C21.47363281 42.71742187 21.63476562 41.55984375 21.80078125 40.3671875 C22.01860095 36.68560752 21.48850498 34.35535905 20 31 C19.34 30.67 18.68 30.34 18 30 C18.4682121 25.22423661 19.24331998 21.95523655 22 18 C19.69 18.66 17.38 19.32 15 20 C15.66 18.02 16.32 16.04 17 14 C16.37351563 14.28875 15.74703125 14.5775 15.1015625 14.875 C14.28429687 15.24625 13.46703125 15.6175 12.625 16 C11.40683594 16.556875 11.40683594 16.556875 10.1640625 17.125 C8 18 8 18 6 18 C5.67 16.02 5.34 14.04 5 12 C6.32 11.34 7.64 10.68 9 10 C9 9.34 9 8.68 9 8 C7.02 8 5.04 8 3 8 C2.67 6.68 2.34 5.36 2 4 C1.01 4.33 0.02 4.66 -1 5 C-0.67 3.35 -0.34 1.7 0 0 Z " fill="#1B1B19" transform="translate(129,50)"/>
<path d="M0 0 C15.55501669 13.30478254 27.50622824 33.89533601 29.27050781 54.48339844 C30.61855202 77.95744204 25.94934248 101.10954336 10.2109375 119.328125 C9.49164063 120.10800781 8.77234375 120.88789063 8.03125 121.69140625 C7.20882812 122.60535156 6.38640625 123.51929688 5.5390625 124.4609375 C-0.91837139 131.30207398 -7.66164468 136.3011707 -15.96875 140.69140625 C-16.87536377 141.1711792 -16.87536377 141.1711792 -17.80029297 141.66064453 C-38.16389312 152.17242257 -61.47513147 153.31375032 -83.23046875 146.40234375 C-104.34635882 139.16239698 -122.39889051 124.30529455 -132.35400391 104.2265625 C-141.50536918 84.89616123 -145.42908244 60.22810784 -138.21777344 39.53662109 C-134.44397335 29.28300147 -130.10965074 20.06536575 -122.96875 11.69140625 C-122.25847656 10.83289063 -121.54820313 9.974375 -120.81640625 9.08984375 C-89.32155355 -27.55267381 -37.03990759 -28.80340182 0 0 Z M-116.96875 7.69140625 C-133.49340461 26.67173709 -140.64385577 48.21460819 -139.16943359 73.27978516 C-138.72343553 78.63935796 -137.65619917 83.59517421 -135.96875 88.69140625 C-135.61683594 89.76390625 -135.26492187 90.83640625 -134.90234375 91.94140625 C-130.0887387 105.41314579 -122.96015679 115.68543473 -112.96875 125.69140625 C-112.31132813 126.36042969 -111.65390625 127.02945313 -110.9765625 127.71875 C-96.73931326 141.19219831 -76.54621372 148.12189218 -57.21875 148.00390625 C-56.25718994 147.9989917 -55.29562988 147.99407715 -54.30493164 147.98901367 C-31.6691344 147.61874436 -11.13394438 138.297754 4.66748047 122.14892578 C19.98187644 105.7817679 27.44386005 85.1010031 27.24609375 62.86328125 C26.37632676 40.02244374 17.04849977 20.70865602 1.03125 4.69140625 C0.27714844 3.93730469 -0.47695312 3.18320312 -1.25390625 2.40625 C-15.85661652 -11.34838998 -34.53516169 -17.70228875 -54.28125 -17.55859375 C-55.33248047 -17.56632812 -56.38371094 -17.5740625 -57.46679688 -17.58203125 C-80.05838035 -17.52648956 -101.30834496 -8.88014963 -116.96875 7.69140625 Z " fill="#11734F" transform="translate(185.96875,31.30859375)"/>
<path d="M0 0 C2.625 1.9375 2.625 1.9375 4 4 C4 4.33 4 4.66 4 5 C1.69 5.66 -0.62 6.32 -3 7 C-3 8.32 -3 9.64 -3 11 C-1.35 10.67 0.3 10.34 2 10 C0.68 9.67 -0.64 9.34 -2 9 C-2 8.34 -2 7.68 -2 7 C0.97 7 3.94 7 7 7 C6.24637681 14.53623188 6.24637681 14.53623188 4.9375 17 C3.41513963 20.24770213 3.42199306 23.52523735 4 27 C5.27754554 29.0360882 6.60699818 31.04109119 8 33 C8.4069598 36.08485576 8.26489583 37.55850696 6.65234375 40.24609375 C6.08644531 40.96925781 5.52054688 41.69242188 4.9375 42.4375 C2.41239732 45.97109442 2.41239732 45.97109442 1.9375 50.25 C2.90874453 53.0364631 2.90874453 53.0364631 4.5625 55.4375 C6.42142995 58.7512447 6.21984313 61.26266671 6 65 C5.01 65 4.02 65 3 65 C2.87882812 64.31292969 2.75765625 63.62585938 2.6328125 62.91796875 C2.46523437 62.01691406 2.29765625 61.11585938 2.125 60.1875 C1.96257812 59.29417969 1.80015625 58.40085938 1.6328125 57.48046875 C1.08811551 54.77272154 1.08811551 54.77272154 -1 52 C-1.44959822 48.6601275 -1.74809086 46.14235496 0.15625 43.234375 C0.6203125 42.66203125 1.084375 42.0896875 1.5625 41.5 C3.82133686 38.65245778 4 38.21196279 4 34.3125 C3.05123698 31.16972249 2.0950655 29.45942472 0 27 C0 26.34 0 25.68 0 25 C-6.22307177 24.77169541 -6.22307177 24.77169541 -11.58984375 27.37890625 C-13.6018175 30.57944813 -14 32.74780352 -14 36.5625 C-13.17373109 40.10144258 -13.17373109 40.10144258 -10.875 43 C-9 46 -9 46 -9.0625 49.5 C-9.99823574 52.99341343 -11.36095442 55.7902024 -13 59 C-13.70758326 62.2366963 -13.70758326 62.2366963 -14 65 C-14.66 65 -15.32 65 -16 65 C-16.32287543 59.61874285 -15.41720471 56.73369255 -13 52 C-12.24192922 47.64109302 -13.13697983 45.56903195 -15.5625 42.0625 C-17.63466852 38.98653313 -18 38.20711024 -18 34.3125 C-17 31 -17 31 -15.4375 28.4375 C-13.58080025 25.28918303 -13.57386358 23.62215959 -14 20 C-14.46885855 18.6553999 -14.97113945 17.32215139 -15.5 16 C-16.89397778 12.44061985 -17.83738418 9.85196724 -17 6 C-12.69181555 -0.0204116 -7.10969674 -1.49612749 0 0 Z " fill="#252523" transform="translate(135,76)"/>
<path d="M0 0 C15.54878397 13.29945146 25.16136734 31.74107947 29.03125 51.69140625 C29.12890625 54.62109375 29.12890625 54.62109375 29.03125 56.69140625 C28.37125 56.69140625 27.71125 56.69140625 27.03125 56.69140625 C26.70125 57.35140625 26.37125 58.01140625 26.03125 58.69140625 C25.87269531 57.61503906 25.71414062 56.53867188 25.55078125 55.4296875 C22.37929359 35.09801917 14.56407781 19.22423406 0.03125 4.69140625 C-0.649375 4.01078125 -1.33 3.33015625 -2.03125 2.62890625 C-16.33987588 -10.72581123 -35.08339806 -16.69829916 -54.28125 -16.55859375 C-55.33248047 -16.56632812 -56.38371094 -16.5740625 -57.46679688 -16.58203125 C-79.05816501 -16.5289486 -96.46571034 -8.8668531 -112.96875 4.69140625 C-113.62875 4.03140625 -114.28875 3.37140625 -114.96875 2.69140625 C-81.53621568 -27.33531896 -35.09489568 -27.29089914 0 0 Z " fill="#117450" transform="translate(185.96875,31.30859375)"/>
<path d="M0 0 C0.33 0.66 0.66 1.32 1 2 C0.68546875 2.53496094 0.3709375 3.06992188 0.046875 3.62109375 C-1.47220483 7.07303262 -0.94927521 10.38217388 -0.75 14.0625 C-0.51724467 21.92156343 -1.95665129 27.7050173 -7 34 C-10 36 -10 36 -13 36 C-13 36.99 -13 37.98 -13 39 C-15.64738916 40.4606285 -16.89448334 41 -20 41 C-20 40.01 -20 39.02 -20 38 C-18.02 37.34 -16.04 36.68 -14 36 C-14 35.01 -14 34.02 -14 33 C-14.928125 33.515625 -15.85625 34.03125 -16.8125 34.5625 C-20 36 -20 36 -23 35 C-23 34.34 -23 33.68 -23 33 C-16.25 29 -16.25 29 -14 29 C-14 28.34 -14 27.68 -14 27 C-18.95 28.485 -18.95 28.485 -24 30 C-24.33 29.01 -24.66 28.02 -25 27 C-24.21753906 26.66226563 -23.43507813 26.32453125 -22.62890625 25.9765625 C-21.61699219 25.53054687 -20.60507813 25.08453125 -19.5625 24.625 C-18.55316406 24.18414062 -17.54382813 23.74328125 -16.50390625 23.2890625 C-13.87856453 22.24923714 -13.87856453 22.24923714 -13 20 C-13.60328125 20.2165625 -14.2065625 20.433125 -14.828125 20.65625 C-15.62734375 20.9346875 -16.4265625 21.213125 -17.25 21.5 C-18.03890625 21.7784375 -18.8278125 22.056875 -19.640625 22.34375 C-22 23 -22 23 -26 23 C-26 21.68 -26 20.36 -26 19 C-25.40832031 18.87882812 -24.81664063 18.75765625 -24.20703125 18.6328125 C-17.91381706 17.38366313 -17.91381706 17.38366313 -12 15 C-11.67 14.01 -11.34 13.02 -11 12 C-15.455 12.495 -15.455 12.495 -20 13 C-17.43027553 10.64441924 -15.34841664 9.77469278 -12 9.125 C-7.84121962 8.20852803 -6.41887035 6.5419173 -4 3 C-1.75 1.1875 -1.75 1.1875 0 0 Z " fill="#1C1C1A" transform="translate(110,79)"/>
<path d="M0 0 C0.66 0 1.32 0 2 0 C2.33 1.32 2.66 2.64 3 4 C4.98 4 6.96 4 9 4 C9 4.66 9 5.32 9 6 C8.01 6.66 7.02 7.32 6 8 C5.7497843 11.08365871 5.7497843 11.08365871 6 14 C6.54269531 13.71125 7.08539063 13.4225 7.64453125 13.125 C8.35996094 12.75375 9.07539063 12.3825 9.8125 12 C10.52019531 11.62875 11.22789062 11.2575 11.95703125 10.875 C14 10 14 10 17 10 C16.34 11.98 15.68 13.96 15 16 C15.598125 15.67 16.19625 15.34 16.8125 15 C19 14 19 14 22 14 C20.66666667 17.33333333 19.33333333 20.66666667 18 24 C17.44054687 23.7834375 16.88109375 23.566875 16.3046875 23.34375 C5.05568878 19.4373453 -5.83547763 20.17216376 -17 24 C-17.99 21.03 -18.98 18.06 -20 15 C-18.35 15 -16.7 15 -15 15 C-15 13.35 -15 11.7 -15 10 C-14.0925 10.309375 -13.185 10.61875 -12.25 10.9375 C-9.83436662 11.7272263 -7.47219715 12.42949297 -5 13 C-4.22757731 11.16299211 -4.22757731 11.16299211 -4 9 C-5.39588754 7.35405861 -5.39588754 7.35405861 -7 6 C-7 5.34 -7 4.68 -7 4 C-5.02 4 -3.04 4 -1 4 C-0.67 2.68 -0.34 1.36 0 0 Z " fill="#E8E8E8" transform="translate(129,54)"/>
<path d="M0 0 C3.98078235 0.99519559 5.52568921 2.35270206 8.1875 5.546875 C9.62414964 9.57274065 9.64241272 12.50057574 7.9375 16.421875 C5.94651404 18.83950081 4.2820777 20.34880856 1.13671875 20.91796875 C-2.89091933 21.0362241 -5.9647487 20.9543378 -9.3125 18.546875 C-11.93329624 15.40191951 -12.96488444 13.64671284 -13.1640625 9.6171875 C-12.59519057 6.2671639 -11.11747615 4.23633919 -8.7578125 1.84375 C-5.81948873 -0.11513252 -3.47261259 -0.30502678 0 0 Z " fill="#F3F7F6" transform="translate(100.8125,142.453125)"/>
<path d="M0 0 C2.4377963 -0.05397335 4.87439685 -0.09365616 7.3125 -0.125 C8.00279297 -0.14175781 8.69308594 -0.15851562 9.40429688 -0.17578125 C13.17135396 -0.21217794 14.78431704 -0.14378864 18 2 C18.1875 5 18.1875 5 18 8 C18 11.04200046 18.55486342 13.99532806 19 17 C16.44725126 19.45605371 15.14109357 19.98802939 11.546875 20.29296875 C10.29390625 20.25816406 9.0409375 20.22335938 7.75 20.1875 C6.48671875 20.16042969 5.2234375 20.13335937 3.921875 20.10546875 C2.95765625 20.07066406 1.9934375 20.03585938 1 20 C-0.03026944 13.30324864 -0.10152799 6.7685324 0 0 Z " fill="#DEEBE6" transform="translate(121,22)"/>
<path d="M0 0 C2.4375 1.5625 2.4375 1.5625 4 4 C3.979375 5.11375 3.95875 6.2275 3.9375 7.375 C4.02235037 12.29632155 5.6373104 13.55324316 9 17 C4.50985524 18.07763474 2.66989054 18.37757467 -1.4375 16.0625 C-2.283125 15.381875 -3.12875 14.70125 -4 14 C-3.67 15.98 -3.34 17.96 -3 20 C-6.75 23 -6.75 23 -9 23 C-10.17094005 20.2100561 -11.33690927 17.41821403 -12.5 14.625 C-13.00080078 13.43390625 -13.00080078 13.43390625 -13.51171875 12.21875 C-13.82753906 11.45820312 -14.14335938 10.69765625 -14.46875 9.9140625 C-14.90864258 8.8614624 -14.90864258 8.8614624 -15.35742188 7.78759766 C-16 6 -16 6 -16 4 C-10.65335711 1.28424488 -6.14262509 -0.96354903 0 0 Z " fill="#F4F8F7" transform="translate(112,25)"/>
<path d="M0 0 C4.55564061 1.58532809 8.31475769 3.99003081 12.3125 6.625 C12.95767578 7.04523437 13.60285156 7.46546875 14.26757812 7.8984375 C15.84760724 8.92838241 17.42416047 9.96365628 19 11 C17.203125 13.015625 17.203125 13.015625 15 15 C11.75 14.75 11.75 14.75 9 14 C6.83132882 16.45154133 6.02585611 17.8383993 5.5 21.125 C5.335 22.07375 5.17 23.0225 5 24 C4.01 24.66 3.02 25.32 2 26 C-1.50213658 19.49405457 -4.12849037 13.15129696 -6 6 C-4.02 4.02 -2.04 2.04 0 0 Z " fill="#ECF3F0" transform="translate(84,37)"/>
<path d="M0 0 C2.625 1.9375 2.625 1.9375 4 4 C4 4.33 4 4.66 4 5 C1.69 5.66 -0.62 6.32 -3 7 C-3 8.32 -3 9.64 -3 11 C-0.69 11 1.62 11 4 11 C3.49073596 15.37967072 2.59292635 18.40979428 0 22 C-3 24 -3 24 -5.3125 24.5625 C-9.05011199 23.78020912 -10.50795292 21.8853136 -12.83984375 18.95703125 C-14.45542577 16.23175654 -14.45207023 14.08914655 -14 11 C-11.69 11 -9.38 11 -7 11 C-7 9.35 -7 7.7 -7 6 C-9.31 5.67 -11.62 5.34 -14 5 C-11.17546709 -1.25432287 -6.34197797 -0.77740375 0 0 Z " fill="#DEDEDD" transform="translate(135,76)"/>
<path d="M0 0 C0.66 1.65 1.32 3.3 2 5 C1.01 5.99 0.02 6.98 -1 8 C0.11375 8.226875 1.2275 8.45375 2.375 8.6875 C6 10 6 10 7.4375 12.625 C7.623125 13.40875 7.80875 14.1925 8 15 C4.7 15 1.4 15 -2 15 C-2.268125 15.721875 -2.53625 16.44375 -2.8125 17.1875 C-3.99901362 19.99766383 -5.27485639 22.48416557 -7 25 C-7.66 25 -8.32 25 -9 25 C-11.08559201 21.56490728 -11.08559201 21.56490728 -10.6875 18.9375 C-10.460625 18.298125 -10.23375 17.65875 -10 17 C-9.67 16.01 -9.34 15.02 -9 14 C-10.65 14.66 -12.3 15.32 -14 16 C-14.99 14.35 -15.98 12.7 -17 11 C-15.23055495 9.53998252 -13.45939429 8.08204407 -11.6875 6.625 C-10.70136719 5.81289063 -9.71523437 5.00078125 -8.69921875 4.1640625 C-3.50541516 0 -3.50541516 0 0 0 Z " fill="#F3F7F5" transform="translate(188,49)"/>
<path d="M0 0 C2.97 0.495 2.97 0.495 6 1 C5.86722656 1.58007812 5.73445312 2.16015625 5.59765625 2.7578125 C4.60295999 7.15770982 3.68631668 11.53894158 3 16 C4.32 16 5.64 16 7 16 C8.65 12.04 10.3 8.08 12 4 C13.98 4.66 15.96 5.32 18 6 C17.39642962 9.81346737 16.26488908 12.82283166 14.5 16.25 C14.0565625 17.12140625 13.613125 17.9928125 13.15625 18.890625 C12 21 12 21 11 22 C6.44339258 22.67150004 2.28870858 22.74559846 -1.5625 20 C-4.09378671 16.88457021 -4.76732244 15.21255159 -4.4765625 11.203125 C-3.61056389 7.19965602 -1.87714957 3.62021702 0 0 Z " fill="#F7FAF9" transform="translate(146,24)"/>
<path d="M0 0 C1.2509564 3.75286921 1 7.05979136 1 11 C1.33 11.99 1.66 12.98 2 14 C2.52448617 20.39873127 1.71550388 22.65896317 -2 28 C-2.63195117 31.22997266 -2.56319207 33.07583582 -0.8359375 35.91015625 C-0.37445313 36.57917969 0.08703125 37.24820313 0.5625 37.9375 C2.54860416 40.91101391 2.99601304 41.77673043 3.0625 45.5 C1.81197511 49.61937612 0.09417872 53.24995904 -2 57 C-2.66 56.67 -3.32 56.34 -4 56 C-3.45276317 52.62537285 -2.9451 50.91765 -1 48 C-1 47.01 -1 46.02 -1 45 C-3.475 49.455 -3.475 49.455 -6 54 C-7.32 53.34 -8.64 52.68 -10 52 C-10 51.01 -10 50.02 -10 49 C-11.65 48.67 -13.3 48.34 -15 48 C-14.67 47.01 -14.34 46.02 -14 45 C-13.34 45 -12.68 45 -12 45 C-12 44.34 -12 43.68 -12 43 C-9.69 41.68 -7.38 40.36 -5 39 C-5.19529297 37.948125 -5.19529297 37.948125 -5.39453125 36.875 C-6.54470117 28.96355081 -6.54470117 28.96355081 -4.91796875 26.0859375 C-4.45003906 25.52132812 -3.98210937 24.95671875 -3.5 24.375 C0.13770636 19.62106594 -0.9410286 14.53145699 -1.56640625 8.90185547 C-2.17509178 3.26263767 -2.17509178 3.26263767 0 0 Z " fill="#1D1D1B" transform="translate(112,81)"/>
<path d="M0 0 C0.33 0.66 0.66 1.32 1 2 C2.97033203 1.87431641 2.97033203 1.87431641 4.98046875 1.74609375 C6.71612585 1.64289252 8.4518041 1.54004658 10.1875 1.4375 C11.48397461 1.35338867 11.48397461 1.35338867 12.80664062 1.26757812 C17.04749079 1.0238511 20.85797819 0.84229204 25 2 C25 3.32 25 4.64 25 6 C20.80530429 5.40075776 16.99000166 4.42500059 13 3 C13 3.99 13 4.98 13 6 C14.051875 6.1546875 14.051875 6.1546875 15.125 6.3125 C18.39137647 7.09359003 21.0471852 8.42058743 24 10 C24 10.99 24 11.98 24 13 C20.44219804 12.39009109 17.3171411 11.4216319 14 10 C14 10.99 14 11.98 14 13 C14.763125 13.12375 15.52625 13.2475 16.3125 13.375 C19 14 19 14 22 16 C22 16.99 22 17.98 22 19 C19.03 18.01 16.06 17.02 13 16 C13 16.99 13 17.98 13 19 C10.6875 18.8125 10.6875 18.8125 8 18 C6.5 15.9375 6.5 15.9375 5 13 C4.10710191 11.66469923 3.21106818 10.33149178 2.3125 9 C0.33542473 5.87456364 -0.59135475 3.78467037 0 0 Z " fill="#1A1A18" transform="translate(150,96)"/>
<path d="M0 0 C0.66 0 1.32 0 2 0 C3.08331481 22.84590565 -1.48095361 44.8800679 -16.8203125 62.63671875 C-17.53960937 63.41660156 -18.25890625 64.19648438 -19 65 C-19.82242188 65.91394531 -20.64484375 66.82789063 -21.4921875 67.76953125 C-29.63998809 76.40147651 -40.32602338 84.79091985 -52 88 C-52.99 87.67 -53.98 87.34 -55 87 C-52.20198842 85.27276593 -49.38651165 83.68036171 -46.46875 82.16015625 C-26.58780308 71.76744449 -12.05256077 55.96368998 -4.78125 34.3828125 C-2.18548276 25.61282748 -0.91332285 17.16553708 -0.4375 8.0625 C-0.37272461 6.89364258 -0.37272461 6.89364258 -0.30664062 5.70117188 C-0.20171923 3.80092883 -0.1004755 1.90048331 0 0 Z " fill="#157652" transform="translate(213,88)"/>
<path d="M0 0 C1.32 0.33 2.64 0.66 4 1 C3.34 3.97 2.68 6.94 2 10 C4.96604606 7.10692958 4.96604606 7.10692958 7.375 4.25 C10 2 10 2 12.625 1.9375 C15.5334931 3.23866797 16.54357884 4.16381142 18 7 C18.60757233 10.99261816 18.12428222 12.76031286 16.25 16.375 C15.5075 17.24125 14.765 18.1075 14 19 C12.68 19 11.36 19 10 19 C10 16 10 16 12 13 C11.67 12.01 11.34 11.02 11 10 C10.29875 10.99 9.5975 11.98 8.875 13 C6.76029132 15.53524733 6.27349293 15.94530141 2.875 16.625 C0 16 0 16 -1.875 14.4375 C-3.42760304 11.07352674 -3.38630676 8.66991425 -3 5 C-1.5 2.0625 -1.5 2.0625 0 0 Z " fill="#F1F6F4" transform="translate(60,69)"/>
<path d="M0 0 C0.33 1.32 0.66 2.64 1 4 C0.030625 4.45375 -0.93875 4.9075 -1.9375 5.375 C-5.07079582 6.65786221 -5.07079582 6.65786221 -6 9 C-3.36 8.34 -0.72 7.68 2 7 C2.33 8.32 2.66 9.64 3 11 C1.02 11.66 -0.96 12.32 -3 13 C-2.01 14.485 -2.01 14.485 -1 16 C-0.236875 15.67 0.52625 15.34 1.3125 15 C4 14 4 14 7 14 C7.33 15.32 7.66 16.64 8 18 C6.25447527 18.84266711 4.5033792 19.67380038 2.75 20.5 C1.77546875 20.9640625 0.8009375 21.428125 -0.203125 21.90625 C-3 23 -3 23 -7 23 C-8.0063655 20.56495491 -9.00526413 18.12729136 -10 15.6875 C-10.28617188 14.99720703 -10.57234375 14.30691406 -10.8671875 13.59570312 C-12.08910744 10.58454326 -13 8.28113016 -13 5 C-11.21046815 4.16209211 -9.41830305 3.32980604 -7.625 2.5 C-6.62726563 2.0359375 -5.62953125 1.571875 -4.6015625 1.09375 C-2 0 -2 0 0 0 Z " fill="#EFF5F3" transform="translate(160,143)"/>
<path d="M0 0 C0.99 0.66 1.98 1.32 3 2 C1.66666667 4.66666667 0.33333333 7.33333333 -1 10 C-0.236875 9.484375 0.52625 8.96875 1.3125 8.4375 C2.199375 7.963125 3.08625 7.48875 4 7 C4.99 7.33 5.98 7.66 7 8 C5.79618552 10.49361571 4.54571278 12.68143083 3 15 C6.51716303 15 7.37121748 14.17554415 10 12 C11.32 12.66 12.64 13.32 14 14 C7.17073171 22.30894309 7.17073171 22.30894309 4 24 C2.1796875 23.94140625 2.1796875 23.94140625 0 23 C-1.72894698 21.00484099 -3.24257501 19.08570336 -4.75 16.9375 C-5.16121094 16.36966797 -5.57242188 15.80183594 -5.99609375 15.21679688 C-7.00695036 13.81805343 -8.00477206 12.40990625 -9 11 C-7.59155282 7.78475695 -5.89655214 5.67816132 -3.375 3.25 C-2.74335938 2.63640625 -2.11171875 2.0228125 -1.4609375 1.390625 C-0.73777344 0.70226562 -0.73777344 0.70226562 0 0 Z " fill="#F4F8F6" transform="translate(171,132)"/>
<path d="M0 0 C3.0625 1.0625 3.0625 1.0625 5.4375 3.6875 C7.25512449 7.46256625 7.39344807 9.92564908 7.0625 14.0625 C5.7425 14.0625 4.4225 14.0625 3.0625 14.0625 C2.4025 11.7525 1.7425 9.4425 1.0625 7.0625 C0.7325 7.0625 0.4025 7.0625 0.0625 7.0625 C-0.0921875 8.9496875 -0.0921875 8.9496875 -0.25 10.875 C-0.57815065 13.38047458 -0.82538577 14.87367604 -2.125 17.0625 C-4.94217667 18.61680437 -6.78226991 18.57763961 -9.9375 18.0625 C-13.1004957 15.32693615 -14.16205486 12.90977355 -14.75 8.875 C-14.9375 5.0625 -14.9375 5.0625 -13.9375 3.0625 C-12.6175 3.0625 -11.2975 3.0625 -9.9375 3.0625 C-9.6075 5.7025 -9.2775 8.3425 -8.9375 11.0625 C-8.2775 11.0625 -7.6175 11.0625 -6.9375 11.0625 C-6.7828125 9.1753125 -6.7828125 9.1753125 -6.625 7.25 C-6.29473612 4.7328537 -6.02678064 3.21756637 -4.75 1 C-2.9375 0.0625 -2.9375 0.0625 0 0 Z " fill="#F0F5F3" transform="translate(195.9375,69.9375)"/>
<path d="M0 0 C0.33 1.65 0.66 3.3 1 5 C-1.64 5 -4.28 5 -7 5 C-7 6.32 -7 7.64 -7 9 C-6.34 8.67 -5.68 8.34 -5 8 C-3.00039988 7.960008 -0.99952758 7.95653201 1 8 C1 9.65 1 11.3 1 13 C-1.31 13 -3.62 13 -6 13 C-6 15.64 -6 18.28 -6 21 C-8.31 21 -10.62 21 -13 21 C-13.70132913 14.29980211 -14.11044961 7.73742646 -14 1 C-9.32798795 -0.20568053 -4.78503708 -0.09382426 0 0 Z " fill="#ECF2F0" transform="translate(144,150)"/>
<path d="M0 0 C2.36120297 0.25392418 4.7150539 0.57798123 7.0625 0.9375 C8.35285156 1.13214844 9.64320312 1.32679688 10.97265625 1.52734375 C11.97167969 1.68332031 12.97070312 1.83929688 14 2 C14 3.98 14 5.96 14 8 C10.7 7.67 7.4 7.34 4 7 C4 7.99 4 8.98 4 10 C5.98 10 7.96 10 10 10 C10.33 11.65 10.66 13.3 11 15 C8.69 15 6.38 15 4 15 C3.01 17.475 3.01 17.475 2 20 C0.02 20 -1.96 20 -4 20 C-5.35204825 15.94385526 -4.18507125 12.86957313 -3.125 8.875 C-2.84462891 7.76318359 -2.84462891 7.76318359 -2.55859375 6.62890625 C-1.14501232 1.14501232 -1.14501232 1.14501232 0 0 Z " fill="#EDF3F1" transform="translate(114,149)"/>
<path d="M0 0 C3 2.3125 3 2.3125 5 5 C5 6.32 5 7.64 5 9 C3.68 9.33 2.36 9.66 1 10 C0.67 9.01 0.34 8.02 0 7 C-3.97754128 6.26665571 -3.97754128 6.26665571 -8 6 C-8.41725678 9.37400578 -8.41725678 9.37400578 -8 13 C-5.6273026 15.00864359 -5.6273026 15.00864359 -3 16 C-3.33 17.32 -3.66 18.64 -4 20 C-8.11952267 19.80839429 -9.74982341 19.22298348 -12.875 16.4375 C-14.70519881 13.96554316 -15.41574222 12.0066141 -15.625 8.9375 C-14.88420269 4.27047695 -13.66031582 2.87596243 -10 0 C-6.71877374 -1.64061313 -3.4146767 -0.95976573 0 0 Z " fill="#F2F7F5" transform="translate(89,132)"/>
<path d="M0 0 C3.125 2.25 3.125 2.25 5 5 C4.8125 7.8125 4.8125 7.8125 4 10 C3.01 10 2.02 10 1 10 C0.67 8.68 0.34 7.36 0 6 C-3.41656024 5.83322718 -3.41656024 5.83322718 -7 6 C-7.66 6.66 -8.32 7.32 -9 8 C-8.98333671 10.50324332 -8.98333671 10.50324332 -8 13 C-6.0431712 14.82337753 -6.0431712 14.82337753 -4 16 C-4.33 16.99 -4.66 17.98 -5 19 C-8.3118298 18.69892456 -10.53442277 18.31457921 -13.3125 16.4375 C-15.64330432 13.07078264 -16.48747005 10.0963209 -16 6 C-12.13049 -1.08394546 -7.31291246 -1.83766819 0 0 Z " fill="#F3F7F6" transform="translate(177,38)"/>
<path d="M0 0 C0.66 0 1.32 0 2 0 C2.08636719 0.64066406 2.17273438 1.28132813 2.26171875 1.94140625 C3.29567835 8.30642359 5.0138785 11.96489915 9 17 C9 17.66 9 18.32 9 19 C4.9336997 19.18483183 2.54188261 18.93193597 -1 17 C-2.093125 16.773125 -3.18625 16.54625 -4.3125 16.3125 C-9.03135687 14.63290688 -11.94468901 11.93754365 -15 8 C-15 7.34 -15 6.68 -15 6 C-11.37 6.33 -7.74 6.66 -4 7 C-3.525625 6.030625 -3.05125 5.06125 -2.5625 4.0625 C-1 1 -1 1 0 0 Z " fill="#F3F3F3" transform="translate(165,72)"/>
<path d="M0 0 C3 1 3 1 5 4 C5 5.32 5 6.64 5 8 C5.70125 7.67 6.4025 7.34 7.125 7 C10.26003116 5.90955438 12.70563182 5.84677357 16 6 C16 6.99 16 7.98 16 9 C14.36739286 10.37482707 12.69774938 11.70647667 11 13 C10.01 14.485 10.01 14.485 9 16 C7.125 16.6953125 7.125 16.6953125 5 17.125 C2.77125366 17.59205346 1.04443699 17.97778151 -1 19 C-2.99960012 19.039992 -5.00047242 19.04346799 -7 19 C-6.02555784 16.37650187 -5.05690985 14.08536478 -3.5 11.75 C-1.45432688 7.99959929 -0.77292398 4.17378948 0 0 Z " fill="#F4F4F4" transform="translate(93,72)"/>
<path d="M0 0 C2.475 0.99 2.475 0.99 5 2 C4.01 3.98 3.02 5.96 2 8 C3.0209375 8.3403125 3.0209375 8.3403125 4.0625 8.6875 C7.79614324 10.35572357 10.72163421 12.55729608 14 15 C13.01 16.65 12.02 18.3 11 20 C6.88213914 18.54663734 3.62014091 16.41342727 0 14 C-0.66 14 -1.32 14 -2 14 C-2.99 15.485 -2.99 15.485 -4 17 C-5.32 16.34 -6.64 15.68 -8 15 C-6.51194289 9.19657726 -3.40902445 4.82409121 0 0 Z " fill="#F4F8F6" transform="translate(71,50)"/>
<path d="M0 0 C0.92232422 0.00451172 1.84464844 0.00902344 2.79492188 0.01367188 C5.05085048 0.02536062 7.30663967 0.04174545 9.5625 0.0625 C9.5625 0.3925 9.5625 0.7225 9.5625 1.0625 C7.9125 1.3925 6.2625 1.7225 4.5625 2.0625 C4.5625 2.3925 4.5625 2.7225 4.5625 3.0625 C3.58978149 3.11410278 3.58978149 3.11410278 2.59741211 3.16674805 C-18.42863839 4.36743885 -35.83218528 7.89198578 -52.5625 21.546875 C-54.4375 23.0625 -54.4375 23.0625 -57.4375 25.0625 C-58.0975 24.4025 -58.7575 23.7425 -59.4375 23.0625 C-42.52302298 7.87111939 -22.84846 -0.21384448 0 0 Z " fill="#1F7B59" transform="translate(130.4375,10.9375)"/>
<path d="M0 0 C0 3 0 3 -1 5 C-0.9762096 7.31107878 -0.9762096 7.31107878 -0.6875 9.875 C-0.60886719 10.73867187 -0.53023438 11.60234375 -0.44921875 12.4921875 C0.00315971 15.01763942 0.81071935 16.7493693 2 19 C2.52928308 22.96962313 2.06295146 25.15739153 -0.0625 28.4375 C-1.81293802 31.26560982 -2 32.01705787 -2 35.5625 C-1.16140525 39.09598491 -1.16140525 39.09598491 1.0625 42.0625 C3.32621393 45.49458241 3.58761214 46.97065964 3 51 C2.01712992 53.00847365 1.01622658 55.00819591 0 57 C-0.7136724 60.73771834 -0.7136724 60.73771834 -1 64 C-1.33 64 -1.66 64 -2 64 C-3.53465347 56.90222772 -3.53465347 56.90222772 -2 54.3125 C-0.51285943 50.87348743 -0.29835267 47.63766676 -1 44 C-2.15191467 42.04937098 -3.4636817 40.35823416 -4.87109375 38.5859375 C-6 37 -6 37 -6.5625 34.4375 C-6 32 -6 32 -4 29.1875 C-1.33581251 24.94145119 -1.52823381 22.95354502 -2 18 C-2.65257873 16.327767 -3.31867549 14.66072849 -4 13 C-4.62373454 7.28243338 -3.51909347 4.50883851 0 0 Z " fill="#E8E8E8" transform="translate(120,77)"/>
<path d="M0 0 C3.875 3.75 3.875 3.75 5 6 C4.93700737 7.56622578 4.80150337 9.12997703 4.625 10.6875 C4.5321875 11.58597656 4.439375 12.48445313 4.34375 13.41015625 C4 16 4 16 3.125 19.625 C2.96442955 23.96040222 4.50277205 25.56388064 6.90234375 29.01953125 C8 31 8 31 8.0625 34.6875 C7 38 7 38 4.9375 40.5 C2.32916037 43.86559952 2.47915937 45.83327499 3 50 C4.40759341 52.76441969 4.40759341 52.76441969 6 55 C6 55.66 6 56.32 6 57 C5.01 57 4.02 57 3 57 C-1 51.06060606 -1 51.06060606 -1 46.4375 C0 43 0 43 2.0625 39.9375 C4.34587851 36.47560355 4.66362738 35.06471773 4 31 C2.98537825 29.25611887 1.96861188 27.51258957 0.89453125 25.8046875 C-0.5616667 22.86685583 -0.31307519 20.19336698 0 17 C0.33 16.34 0.66 15.68 1 15 C1.09657872 13.2104531 1.12980468 11.41714466 1.125 9.625 C1.12757813 8.66851562 1.13015625 7.71203125 1.1328125 6.7265625 C1.01551878 4.31859146 0.68675951 2.30009932 0 0 Z " fill="#DFDFDF" transform="translate(143,78)"/>
<path d="M0 0 C0.33 0.66 0.66 1.32 1 2 C0.67 2.66 0.34 3.32 0 4 C-0.23733465 8.90491603 -0.23810362 11.66367423 2 16 C2.63426224 20.71166232 2.0694732 23.23882783 -0.5625 27.0625 C-2.39727397 29.78068366 -2.98753523 30.69461309 -3.125 34.0625 C-2.09258336 36.75825457 -1.12925029 38.22004879 0.625 40.4375 C2.7782641 43.26482939 2.99724386 43.84014398 3.0625 47.625 C1.9247732 51.2389557 0.67008044 53.32991956 -2 56 C-2.66 56 -3.32 56 -4 56 C-3.690625 55.319375 -3.38125 54.63875 -3.0625 53.9375 C-1.79046814 50.42070603 -1.06380249 47.76434669 -1 44 C-2.12924585 41.8418857 -3.45373649 39.91396162 -4.8359375 37.91015625 C-6.56319207 35.07583582 -6.63195117 33.22997266 -6 30 C-5.34 29.05125 -4.68 28.1025 -4 27.125 C-1.34189769 22.97171515 -1.60168897 20.85939461 -2 16 C-2.33 15.01 -2.66 14.02 -3 13 C-3.35029439 7.5704369 -3.37497764 4.49997019 0 0 Z " fill="#E1E1E0" transform="translate(115,79)"/>
<path d="M0 0 C2.82737998 2.28014514 3.91918088 3.71982704 4.9375 7.25 C5.00410713 11.24642806 4.21202612 13.48853206 2.72265625 17.09765625 C1.6222802 19.99432186 1.4891804 21.9350824 2 25 C2.81164624 26.38007189 3.67038585 27.73302627 4.5625 29.0625 C6.98574241 32.70771935 6.98574241 32.70771935 7.125 35.5625 C6.06641375 37.85610353 4.92798921 39.40758952 3.375 41.375 C1.13950042 44.31712301 0.99311387 44.79341606 1.125 48.75 C1.69045891 50.85027594 2.31218442 52.93655325 3 55 C2.01 55 1.02 55 0 55 C-2.23261866 52.28896306 -3 50.65632319 -3 47.125 C-2.07351431 44.22973223 -1.23316961 42.79591507 0.5625 40.4375 C2.2051764 38.25999873 2.96833615 37.14424641 3.5625 34.4375 C3.11228332 31.77932177 3.11228332 31.77932177 1 29.1875 C-1.40219006 25.35900959 -1.74735178 22.36521379 -1 18 C-0.484375 16.824375 0.03125 15.64875 0.5625 14.4375 C2.68938103 9.35148015 1.44218502 5.15066079 0 0 Z " fill="#DEDEDE" transform="translate(139,77)"/>
<path d="M0 0 C19.90024334 -0.56144887 36.05010591 5.28779473 52 17 C53.36746185 18.29830799 54.71597077 19.61912184 56 21 C51.53772911 21 50.9842942 20.5458257 47.625 17.9375 C33.1459087 7.46506793 17.59000276 3.25436798 0 1 C0 0.67 0 0.34 0 0 Z " fill="#137450" transform="translate(131,12)"/>
<path d="M0 0 C0.66 0.33 1.32 0.66 2 1 C2 1.66 2 2.32 2 3 C-12.94418392 9.95781843 -31.29266011 8.5682074 -47 6 C-46.34 5.01 -45.68 4.02 -45 3 C-43.83984375 3.23976562 -43.83984375 3.23976562 -42.65625 3.484375 C-28.37769968 5.49801671 -13.67845882 4.55948627 0 0 Z " fill="#1B7956" transform="translate(157,174)"/>
<path d="M0 0 C4.07884045 1.35961348 4.93816372 3.30291425 7 7 C7.38839688 10.09223669 7.26826718 11.55288804 5.65234375 14.24609375 C5.08644531 14.96925781 4.52054688 15.69242188 3.9375 16.4375 C1.41239732 19.97109442 1.41239732 19.97109442 0.9375 24.25 C1.90874453 27.0364631 1.90874453 27.0364631 3.5625 29.4375 C5.42142995 32.7512447 5.21984313 35.26266671 5 39 C4.01 39 3.02 39 2 39 C1.87882813 38.31292969 1.75765625 37.62585938 1.6328125 36.91796875 C1.46523437 36.01691406 1.29765625 35.11585938 1.125 34.1875 C0.88136719 32.84751953 0.88136719 32.84751953 0.6328125 31.48046875 C0.08811551 28.77272154 0.08811551 28.77272154 -2 26 C-2.44959822 22.6601275 -2.74809086 20.14235496 -0.84375 17.234375 C-0.3796875 16.66203125 0.084375 16.0896875 0.5625 15.5 C2.81549403 12.6614821 3.00440487 12.25548243 2.9375 8.375 C2.12899384 5.46437783 1.24915608 2.74814338 0 0 Z " fill="#10100E" transform="translate(136,102)"/>
<path d="M0 0 C0.66 0 1.32 0 2 0 C2.33 0.99 2.66 1.98 3 3 C5.97 3.495 5.97 3.495 9 4 C8.2884375 4.804375 8.2884375 4.804375 7.5625 5.625 C5.71813924 8.42842836 5.37543153 10.69620258 5 14 C3.6078125 13.7215625 3.6078125 13.7215625 2.1875 13.4375 C-1.01343771 12.75876119 -1.01343771 12.75876119 -4 14 C-3.9071875 12.6078125 -3.9071875 12.6078125 -3.8125 11.1875 C-3.69105736 8.01604897 -3.69105736 8.01604897 -5.5 6.125 C-5.995 5.75375 -6.49 5.3825 -7 5 C-5.02 5 -3.04 5 -1 5 C-0.67 3.35 -0.34 1.7 0 0 Z " fill="#E7EFEC" transform="translate(192,105)"/>
<path d="M0 0 C0.66 0.33 1.32 0.66 2 1 C2 1.99 2 2.98 2 4 C4.31 4 6.62 4 9 4 C8.01 4.804375 8.01 4.804375 7 5.625 C4.68975201 7.89958592 4.68975201 7.89958592 4.75 11.25 C4.87375 12.61125 4.87375 12.61125 5 14 C4.2575 13.62875 3.515 13.2575 2.75 12.875 C0.05716353 11.70484137 0.05716353 11.70484137 -2.3125 12.875 C-3.1478125 13.431875 -3.1478125 13.431875 -4 14 C-3.67 12.02 -3.34 10.04 -3 8 C-4.32 7.34 -5.64 6.68 -7 6 C-7 5.67 -7 5.34 -7 5 C-5.02 5 -3.04 5 -1 5 C-0.67 3.35 -0.34 1.7 0 0 Z " fill="#ECF3F0" transform="translate(66,105)"/>
<path d="M0 0 C2.625 1.9375 2.625 1.9375 4 4 C4 4.33 4 4.66 4 5 C2.88625 5.2475 1.7725 5.495 0.625 5.75 C-3.04615198 6.61005339 -3.04615198 6.61005339 -4.4375 9.125 C-4.623125 9.74375 -4.80875 10.3625 -5 11 C-5.66 10.67 -6.32 10.34 -7 10 C-7 8.68 -7 7.36 -7 6 C-9.31 5.67 -11.62 5.34 -14 5 C-11.17546709 -1.25432287 -6.34197797 -0.77740375 0 0 Z " fill="#F1F1F1" transform="translate(135,76)"/>
<path d="M0 0 C2.5 0.25 2.5 0.25 4.5 2.25 C4.04545455 7.70454545 4.04545455 7.70454545 1.5 10.25 C-1 10.5 -1 10.5 -3.5 10.25 C-4.16 9.59 -4.82 8.93 -5.5 8.25 C-4.85294118 0.48529412 -4.85294118 0.48529412 0 0 Z " fill="#0C7551" transform="translate(99.5,147.75)"/>
<path d="M0 0 C0.99 0.33 1.98 0.66 3 1 C5.13858538 5.57589379 4.99818388 8.94904698 4.3125 13.875 C3.72972337 19.88646762 4.30707132 22.68125182 7.984375 27.37890625 C9 29 9 29 8.3125 32 C7.879375 32.66 7.44625 33.32 7 34 C6.67 34 6.34 34 6 34 C5.731875 32.948125 5.46375 31.89625 5.1875 30.8125 C4.26216948 27.11516059 4.26216948 27.11516059 2.43359375 24.86328125 C0.35120738 20.7041826 0.71551817 16.95143518 0.875 12.375 C0.918404 10.67458444 0.95764368 8.97405613 0.9921875 7.2734375 C1.01651855 6.52497559 1.04084961 5.77651367 1.06591797 5.00537109 C1.08843439 2.79048649 1.08843439 2.79048649 0 0 Z " fill="#D3D3D3" transform="translate(147,80)"/>
<path d="M0 0 C0.33 0 0.66 0 1 0 C1.24756993 5.44653853 0.46693902 10.41862578 -0.48828125 15.77734375 C-1.29014724 20.82726316 -1.6564667 25.90124263 -2 31 C-4.53369825 28.46630175 -4.28366386 26.79842059 -4.32836914 23.3359375 C-4.32313232 22.58570312 -4.31789551 21.83546875 -4.3125 21.0625 C-4.31048584 20.30066406 -4.30847168 19.53882812 -4.30639648 18.75390625 C-4.04710211 4.04710211 -4.04710211 4.04710211 0 0 Z " fill="#F3F7F6" transform="translate(51,73)"/>
<path d="M0 0 C2.97 0 5.94 0 9 0 C8.53990813 4.6009187 8.11608745 7.90008057 6 12 C5.61250787 14.32495277 5.27017161 16.65851268 5 19 C4.01 19.33 3.02 19.66 2 20 C2 19.01 2 18.02 2 17 C1.34 17 0.68 17 0 17 C0 16.34 0 15.68 0 15 C0.66 15 1.32 15 2 15 C3.49140021 11.37802806 4.7874262 7.72433382 6 4 C4.02 3.34 2.04 2.68 0 2 C0 1.34 0 0.68 0 0 Z " fill="#1F1F1E" transform="translate(133,83)"/>
<path d="M0 0 C0.66 0 1.32 0 2 0 C2.57446809 21.53191489 2.57446809 21.53191489 -1 32 C-1.66 31.67 -2.32 31.34 -3 31 C-2.86722656 30.18660156 -2.73445312 29.37320313 -2.59765625 28.53515625 C-1.13225108 19.0260672 -0.44181122 9.60358068 0 0 Z " fill="#066D46" transform="translate(213,88)"/>
<path d="M0 0 C0.33 0.66 0.66 1.32 1 2 C0.67 2.66 0.34 3.32 0 4 C-0.15285759 8.35644143 0.03355277 12.21949951 0.8125 16.5 C1.43522931 21.2114389 -0.17375096 23.79600611 -2.87109375 27.56640625 C-3.24363281 28.03949219 -3.61617188 28.51257813 -4 29 C-4.66 28.34 -5.32 27.68 -6 27 C-5.505 26.3503125 -5.01 25.700625 -4.5 25.03125 C-2.51480955 21.01951097 -2.77246461 17.89143301 -3 13.5 C-3.28120997 8.07264767 -3.45665289 4.53685691 0 0 Z " fill="#DFDFDF" transform="translate(111,80)"/>
<path d="M0 0 C2.22775337 3.34163006 3.12738864 6.54712825 4.125 10.375 C4.30675781 11.035 4.48851562 11.695 4.67578125 12.375 C5.63494694 15.99530961 6.21694345 19.25410979 6 23 C5.34 23 4.68 23 4 23 C3.67 23.66 3.34 24.32 3 25 C2.80664062 23.85402344 2.61328125 22.70804688 2.4140625 21.52734375 C2.15124341 19.99736117 1.88821121 18.46741518 1.625 16.9375 C1.49867188 16.18533203 1.37234375 15.43316406 1.2421875 14.65820312 C0.43457615 9.99424757 -0.61709626 5.5275066 -2 1 C-1.34 0.67 -0.68 0.34 0 0 Z " fill="#27805F" transform="translate(209,65)"/>
<path d="M0 0 C0.66 0 1.32 0 2 0 C1.5875 1.175625 1.175 2.35125 0.75 3.5625 C-1.50001891 10.2802598 -3.22104802 17.14606828 -5 24 C-5.99 23.67 -6.98 23.34 -8 23 C-6.94112433 15.85654022 -5.2862537 5.2862537 0 0 Z " fill="#147450" transform="translate(54,57)"/>
<path d="M0 0 C0.66 0.33 1.32 0.66 2 1 C2 2.65 2 4.3 2 6 C-0.31 6 -2.62 6 -5 6 C-5.33 6.99 -5.66 7.98 -6 9 C-6 8.34 -6 7.68 -6 7 C-6.66 7 -7.32 7 -8 7 C-8 5.02 -8 3.04 -8 1 C-5.26094655 -0.36952673 -3.02912668 -0.12621361 0 0 Z " fill="#4B4B4A" transform="translate(126,81)"/>
<path d="M0 0 C1.2509564 3.75286921 1 7.05979136 1 11 C1.33 11.99 1.66 12.98 2 14 C2.72773537 20.94147583 2.72773537 20.94147583 0.625 24 C-1 25 -1 25 -3 25 C-2.6596875 24.35289063 -2.319375 23.70578125 -1.96875 23.0390625 C-0.67517736 18.98099994 -1.09218191 15.5676562 -1.5 11.375 C-2.26771218 3.40156827 -2.26771218 3.40156827 0 0 Z " fill="#0E0E0D" transform="translate(112,81)"/>
<path d="M0 0 C0.9796875 0.00322266 1.959375 0.00644531 2.96875 0.00976562 C3.98453125 0.01814453 5.0003125 0.02652344 6.046875 0.03515625 C7.59375 0.04192383 7.59375 0.04192383 9.171875 0.04882812 C11.71360073 0.06059537 14.25520819 0.07703614 16.796875 0.09765625 C16.466875 0.75765625 16.136875 1.41765625 15.796875 2.09765625 C7.216875 2.42765625 -1.363125 2.75765625 -10.203125 3.09765625 C-9.203125 1.09765625 -9.203125 1.09765625 -7.46582031 0.47875977 C-4.93450869 0.05241347 -2.56728286 -0.01492606 0 0 Z " fill="#FCFDFD" transform="translate(124.203125,13.90234375)"/>
<path d="M0 0 C0.66 0 1.32 0 2 0 C1.38722388 2.96175123 0.74627478 4.38058783 -1 7 C-0.70295038 11.15869464 -0.33061852 13.50407222 2 17 C1.01 17.33 0.02 17.66 -1 18 C-5 12.90909091 -5 12.90909091 -5 9 C-3.83039408 5.49118225 -2.2817927 2.90409979 0 0 Z " fill="#161615" transform="translate(116,102)"/>
<path d="M0 0 C1.69752187 0.25245197 3.38471545 0.57645775 5.0625 0.9375 C5.98160156 1.13214844 6.90070313 1.32679687 7.84765625 1.52734375 C8.91306641 1.76130859 8.91306641 1.76130859 10 2 C10 2.99 10 3.98 10 5 C8.9171875 4.84660156 7.834375 4.69320313 6.71875 4.53515625 C1.32662577 3.86114072 -4.07348656 3.65470297 -9.5 3.4375 C-11.01980469 3.37272461 -11.01980469 3.37272461 -12.5703125 3.30664062 C-15.0467679 3.20150808 -17.52330749 3.09936163 -20 3 C-20 2.67 -20 2.34 -20 2 C-19.42967041 1.97494385 -18.85934082 1.9498877 -18.27172852 1.92407227 C-15.70173843 1.80843451 -13.13214473 1.68556376 -10.5625 1.5625 C-9.66466797 1.52318359 -8.76683594 1.48386719 -7.84179688 1.44335938 C-6.98779297 1.40146484 -6.13378906 1.35957031 -5.25390625 1.31640625 C-4.46314697 1.27974854 -3.6723877 1.24309082 -2.85766602 1.20532227 C-0.98598559 1.19436743 -0.98598559 1.19436743 0 0 Z " fill="#C6DAD2" transform="translate(141,14)"/>
<path d="M0 0 C0.33 0.66 0.66 1.32 1 2 C2.97033203 1.87431641 2.97033203 1.87431641 4.98046875 1.74609375 C6.71612585 1.64289252 8.4518041 1.54004658 10.1875 1.4375 C11.48397461 1.35338867 11.48397461 1.35338867 12.80664062 1.26757812 C17.04749079 1.0238511 20.85797819 0.84229204 25 2 C25 3.32 25 4.64 25 6 C23.7315625 5.7834375 23.7315625 5.7834375 22.4375 5.5625 C15.30635311 4.39558506 8.19728084 3.6117038 1 3 C0.67 3.66 0.34 4.32 0 5 C0 3.35 0 1.7 0 0 Z " fill="#525251" transform="translate(150,96)"/>
<path d="M0 0 C1.89492187 0.01353516 1.89492187 0.01353516 3.828125 0.02734375 C4.79234375 0.03894531 5.7565625 0.05054687 6.75 0.0625 C6.75 1.0525 6.75 2.0425 6.75 3.0625 C5.52023438 2.99289063 5.52023438 2.99289063 4.265625 2.921875 C3.18796875 2.88578125 2.1103125 2.8496875 1 2.8125 C-0.06734375 2.76609375 -1.1346875 2.7196875 -2.234375 2.671875 C-5.93662316 3.15144082 -6.92225509 4.23145889 -9.25 7.0625 C-9.91 7.7225 -10.57 8.3825 -11.25 9.0625 C-11.064375 8.299375 -10.87875 7.53625 -10.6875 6.75 C-10.02180827 3.97282625 -10.02180827 3.97282625 -11.25 1.0625 C-7.49600202 -0.1414337 -3.91782588 -0.03627617 0 0 Z " fill="#1E1E1C" transform="translate(130.25,73.9375)"/>
<path d="M0 0 C0.66 0.66 1.32 1.32 2 2 C1.70801815 7.06101876 0.27599581 10.54284153 -2 15 C-2.70758326 18.2366963 -2.70758326 18.2366963 -3 21 C-3.66 21 -4.32 21 -5 21 C-5.32271125 15.62147913 -4.49733817 12.70652194 -2 8 C-1.20648543 5.35014225 -0.6056303 2.70204289 0 0 Z " fill="#10100E" transform="translate(124,120)"/>
<path d="M0 0 C2 2 2 2 3.4375 4.9375 C5.1637268 8.48567522 5.1637268 8.48567522 8 11 C9.99958364 11.04080783 12.00045254 11.04254356 14 11 C14.66 11.66 15.32 12.32 16 13 C14.39602723 13.16852247 12.7918131 13.33474886 11.1875 13.5 C10.29417969 13.5928125 9.40085938 13.685625 8.48046875 13.78125 C6 14 6 14 3 14 C1.79534844 9.34201396 0.71452588 4.76350585 0 0 Z " fill="#161615" transform="translate(119,88)"/>
<path d="M0 0 C0 3 0 3 -1 5 C-0.89104898 9.65975139 -0.37061906 13.99932854 1.25 18.375 C1.4975 19.24125 1.745 20.1075 2 21 C0.546875 23.1640625 0.546875 23.1640625 -1 25 C-1.13277344 24.30132812 -1.26554687 23.60265625 -1.40234375 22.8828125 C-1.57894531 21.97273438 -1.75554687 21.06265625 -1.9375 20.125 C-2.11152344 19.22007813 -2.28554687 18.31515625 -2.46484375 17.3828125 C-2.89963701 15.00043683 -2.89963701 15.00043683 -4 13 C-4.54903034 7.29008444 -3.51369551 4.50192237 0 0 Z " fill="#CDCDCD" transform="translate(120,77)"/>
<path d="M0 0 C6.27 0.33 12.54 0.66 19 1 C19 1.33 19 1.66 19 2 C16.03 2 13.06 2 10 2 C10 2.66 10 3.32 10 4 C5.1666528 4.08333357 0.76307437 3.95261487 -4 3 C-2.68 2.67 -1.36 2.34 0 2 C0 1.34 0 0.68 0 0 Z " fill="#D4E4DE" transform="translate(116,175)"/>
<path d="M0 0 C1.485 0.99 1.485 0.99 3 2 C2.34 3.65 1.68 5.3 1 7 C3.64 7.33 6.28 7.66 9 8 C6.64031256 10.09749995 5.45383006 10.96905704 2.25 11.1875 C1.5075 11.125625 0.765 11.06375 0 11 C-1.05404945 7.01803543 -0.84098656 4.01804691 0 0 Z " fill="#242423" transform="translate(85,84)"/>
<path d="M0 0 C0.66 0.66 1.32 1.32 2 2 C1.76893348 7.77666304 -0.24195617 12.06117734 -3 17 C-3.66 16.67 -4.32 16.34 -5 16 C-4.45276317 12.62537285 -3.9451 10.91765 -2 8 C-1.33841957 5.95415921 -1.33841957 5.95415921 -0.875 3.8125 C-0.58625 2.554375 -0.2975 1.29625 0 0 Z " fill="#151513" transform="translate(113,121)"/>
<path d="M0 0 C0 0.66 0 1.32 0 2 C-3.75399798 3.2039337 -7.33217412 3.09877617 -11.25 3.0625 C-12.51328125 3.05347656 -13.7765625 3.04445312 -15.078125 3.03515625 C-16.04234375 3.02355469 -17.0065625 3.01195312 -18 3 C-18 2.34 -18 1.68 -18 1 C-11.93303301 0.22959149 -6.11485027 -0.09706112 0 0 Z " fill="#F6F9F8" transform="translate(144,176)"/>
<path d="M0 0 C2.65391468 2.47698704 4.81169744 4.53411752 6 8 C6.0777346 10.33203812 6.08967728 12.66839059 6 15 C5.01 15 4.02 15 3 15 C2.81824219 13.98679688 2.81824219 13.98679688 2.6328125 12.953125 C2.46523437 12.06109375 2.29765625 11.1690625 2.125 10.25 C1.96257812 9.36828125 1.80015625 8.4865625 1.6328125 7.578125 C1.03203736 5.13052256 0.22002883 3.19400143 -1 1 C-0.67 0.67 -0.34 0.34 0 0 Z " fill="#1F1F1E" transform="translate(135,126)"/>
<path d="M0 0 C0.33 0 0.66 0 1 0 C1.19335938 0.61488281 1.38671875 1.22976562 1.5859375 1.86328125 C1.84632813 2.67152344 2.10671875 3.47976562 2.375 4.3125 C2.63023437 5.11300781 2.88546875 5.91351563 3.1484375 6.73828125 C3.98831811 9.22724528 3.98831811 9.22724528 6 12 C6 13.32 6 14.64 6 16 C5.01 16.33 4.02 16.66 3 17 C-1.41666667 4.25 -1.41666667 4.25 0 0 Z " fill="#191918" transform="translate(141,123)"/>
<path d="M0 0 C0.33 0 0.66 0 1 0 C1.33 6.27 1.66 12.54 2 19 C1.34 19 0.68 19 0 19 C-0.33 19.66 -0.66 20.32 -1 21 C-1.33 17.37 -1.66 13.74 -2 10 C-1.67 10 -1.34 10 -1 10 C-0.67 6.7 -0.34 3.4 0 0 Z " fill="#D7E6E0" transform="translate(49,92)"/>
<path d="M0 0 C6.6 0 13.2 0 20 0 C20 0.33 20 0.66 20 1 C18.35 1.33 16.7 1.66 15 2 C15 2.33 15 2.66 15 3 C12.87561661 3.08078641 10.7503677 3.13909141 8.625 3.1875 C7.44164063 3.22230469 6.25828125 3.25710938 5.0390625 3.29296875 C3.53472656 3.14794922 3.53472656 3.14794922 2 3 C1.34 2.01 0.68 1.02 0 0 Z " fill="#4A9177" transform="translate(120,11)"/>
<path d="M0 0 C5.36095277 1.58921525 10.70843973 3.18972938 16 5 C16 5.66 16 6.32 16 7 C10.03435204 6.49228528 5.36190101 4.61407872 0 2 C0 1.34 0 0.68 0 0 Z " fill="#0D714C" transform="translate(95,172)"/>
<path d="M0 0 C-1.53218685 3.63061667 -3.7183144 5.9863773 -6.5 8.75 C-7.69109375 9.94882813 -7.69109375 9.94882813 -8.90625 11.171875 C-11 13 -11 13 -13 13 C-11.46781315 9.36938333 -9.2816856 7.0136227 -6.5 4.25 C-5.7059375 3.45078125 -4.911875 2.6515625 -4.09375 1.828125 C-2 0 -2 0 0 0 Z " fill="#016C45" transform="translate(196,149)"/>
<path d="M0 0 C0.99 0.33 1.98 0.66 3 1 C0.525 5.455 0.525 5.455 -2 10 C-2.66 10 -3.32 10 -4 10 C-4.33 11.32 -4.66 12.64 -5 14 C-5.33 14 -5.66 14 -6 14 C-6.36539443 9.71422781 -5.48423598 7.65507938 -3 4.1875 C-2.1646875 3.00220703 -2.1646875 3.00220703 -1.3125 1.79296875 C-0.879375 1.20128906 -0.44625 0.60960938 0 0 Z " fill="#20201F" transform="translate(145,113)"/>
<path d="M0 0 C-2.76387192 2.15178156 -5.56533069 3.98370421 -8.625 5.6875 C-9.40101562 6.12449219 -10.17703125 6.56148437 -10.9765625 7.01171875 C-13 8 -13 8 -15 8 C-13.69432208 4.08296623 -12.19905398 3.68242813 -8.625 1.75 C-7.64789063 1.20859375 -6.67078125 0.6671875 -5.6640625 0.109375 C-3 -1 -3 -1 0 0 Z " fill="#0E724D" transform="translate(98,19)"/>
<path d="M0 0 C3.875 3.75 3.875 3.75 5 6 C4.9129796 7.71233688 4.75902838 9.42175406 4.5625 11.125 C4.46066406 12.03507812 4.35882813 12.94515625 4.25390625 13.8828125 C4.17011719 14.58148438 4.08632812 15.28015625 4 16 C1.53671002 13.53671002 1.6745935 12.52502169 1.4375 9.125 C1.20635892 5.9644995 0.85941306 3.05411252 0 0 Z " fill="#BEBEBD" transform="translate(143,78)"/>
<path d="M0 0 C1.875 0.1875 1.875 0.1875 4 1 C5.81752121 4.58420266 6.27220224 7.57164796 6.25 11.5625 C6.25773438 12.95662109 6.25773438 12.95662109 6.265625 14.37890625 C5.99438101 17.0554462 5.36116595 18.70438282 4 21 C2.96949309 17.77503233 3.11873722 15.50093452 3.6875 12.1875 C4.340498 6.81221158 3.11309988 4.33947256 0 0 Z " fill="#090908" transform="translate(143,77)"/>
<path d="M0 0 C2.57787222 1.28893611 2.59836566 2.19949809 3.5 4.875 C4.45192401 7.67903704 5.31721228 9.47581842 7 12 C7 12.99 7 13.98 7 15 C6.34 15 5.68 15 5 15 C-0.74031891 5.77448747 -0.74031891 5.77448747 0 0 Z " fill="#121210" transform="translate(145,122)"/>
<path d="M0 0 C3 1 3 1 4.38671875 3.1796875 C4.81597656 4.06914063 5.24523437 4.95859375 5.6875 5.875 C6.12449219 6.75929688 6.56148437 7.64359375 7.01171875 8.5546875 C8 11 8 11 8 14 C7.34 14 6.68 14 6 14 C4.99515796 12.04414675 3.99626195 10.08523763 3 8.125 C2.1646875 6.48917969 2.1646875 6.48917969 1.3125 4.8203125 C0 2 0 2 0 0 Z " fill="#076F49" transform="translate(201,52)"/>
<path d="M0 0 C0 0.66 0 1.32 0 2 C-3.3 2.66 -6.6 3.32 -10 4 C-10 3.34 -10 2.68 -10 2 C-11.32 1.67 -12.64 1.34 -14 1 C-12.41913952 0.63495397 -10.83516093 0.28339494 -9.25 -0.0625 C-8.36828125 -0.25972656 -7.4865625 -0.45695313 -6.578125 -0.66015625 C-4.01320972 -0.99825872 -2.42908361 -0.81158635 0 0 Z " fill="#DFEAE6" transform="translate(154,174)"/>
<path d="M0 0 C0.12375 0.639375 0.2475 1.27875 0.375 1.9375 C0.684375 2.9584375 0.684375 2.9584375 1 4 C1.66 4.33 2.32 4.66 3 5 C2.525625 5.845625 2.05125 6.69125 1.5625 7.5625 C-0.05721513 11.12587329 -0.61256143 14.12561425 -1 18 C-1.33 18 -1.66 18 -2 18 C-3.51461245 10.99491741 -3.51461245 10.99491741 -2.0625 8.1875 C-0.75569653 5.49702226 -0.40213297 2.94897515 0 0 Z " fill="#C8C8C8" transform="translate(120,123)"/>
<path d="M0 0 C0.66 0.33 1.32 0.66 2 1 C1.57202798 6.70629354 -0.84345952 10.41078616 -4 15 C-4.6171875 13.18359375 -4.6171875 13.18359375 -5 11 C-3.70672372 8.97386717 -2.3703055 6.97485205 -1 5 C-0.21784412 2.2717496 -0.21784412 2.2717496 0 0 Z " fill="#F0F0F0" transform="translate(120,97)"/>
<path d="M0 0 C-1 3 -1 3 -2.9609375 4.203125 C-3.75757813 4.54859375 -4.55421875 4.8940625 -5.375 5.25 C-6.56222656 5.78367188 -6.56222656 5.78367188 -7.7734375 6.328125 C-10 7 -10 7 -13 6 C-3.28571429 0 -3.28571429 0 0 0 Z " fill="#086F49" transform="translate(171,169)"/>
<path d="M0 0 C0 0.66 0 1.32 0 2 C-3.37097383 3.49821059 -5.20442119 4 -9 4 C-9 2.68 -9 1.36 -9 0 C-3.375 -1.125 -3.375 -1.125 0 0 Z " fill="#252523" transform="translate(93,98)"/>
<path d="M0 0 C0.66 0.33 1.32 0.66 2 1 C-1.13922331 5.52048157 -4.21495828 7.51545911 -9 10 C-7.63842622 4.70499087 -4.39656045 2.76254467 0 0 Z " fill="#F0F5F3" transform="translate(88,24)"/>
<path d="M0 0 C3.83206182 0.41427695 6.08025204 1.51280729 9 4 C8.34 4.66 7.68 5.32 7 6 C3.5625 5.1875 3.5625 5.1875 0 4 C-0.33 3.01 -0.66 2.02 -1 1 C-0.67 0.67 -0.34 0.34 0 0 Z " fill="#D9D9D9" transform="translate(161,91)"/>
<path d="M0 0 C2 2 2 2 2.1953125 4.1640625 C2.17210937 4.97617188 2.14890625 5.78828125 2.125 6.625 C2.10695312 7.44226563 2.08890625 8.25953125 2.0703125 9.1015625 C2.03550781 10.04128906 2.03550781 10.04128906 2 11 C-0.31 10.67 -2.62 10.34 -5 10 C-3.68 9.34 -2.36 8.68 -1 8 C-1 6.68 -1 5.36 -1 4 C-0.7018576 2.65835921 -0.37756808 1.32148827 0 0 Z " fill="#10100F" transform="translate(173,84)"/>
<path d="M0 0 C0.99 3.3 1.98 6.6 3 10 C2.01 10 1.02 10 0 10 C-2.49977543 6.66696609 -3 5.26696398 -3 1 C-1 0 -1 0 0 0 Z " fill="#DDDDDD" transform="translate(139,122)"/>
<path d="M0 0 C3.7952131 1.49097658 5.61042731 3.75700849 8 7 C7.01 7.33 6.02 7.66 5 8 C3.02 5.69 1.04 3.38 -1 1 C-0.67 0.67 -0.34 0.34 0 0 Z " fill="#2B8060" transform="translate(186,33)"/>
<path d="M0 0 C0.66 0 1.32 0 2 0 C2.33 1.32 2.66 2.64 3 4 C3.66 4 4.32 4 5 4 C5.33 4.99 5.66 5.98 6 7 C4.02 7 2.04 7 0 7 C-0.38133299 5.0085944 -0.71325582 3.00720923 -1 1 C-0.67 0.67 -0.34 0.34 0 0 Z " fill="#CACACA" transform="translate(182,170)"/>
<path d="M0 0 C0.33 0.66 0.66 1.32 1 2 C2.32 2.33 3.64 2.66 5 3 C0.05 4.485 0.05 4.485 -5 6 C-5.33 5.01 -5.66 4.02 -6 3 C-4.02 2.01 -2.04 1.02 0 0 Z " fill="#272726" transform="translate(91,103)"/>
<path d="M0 0 C-0.33 1.32 -0.66 2.64 -1 4 C-3.31 4.66 -5.62 5.32 -8 6 C-7.75 4.125 -7.75 4.125 -7 2 C-4.41847698 0.27898465 -3.15081975 0 0 0 Z " fill="#E0E0E0" transform="translate(99,91)"/>
<path d="M0 0 C0.66 0 1.32 0 2 0 C2.99 3.3 3.98 6.6 5 10 C4.01 10 3.02 10 2 10 C1.01 7.03 0.02 4.06 -1 1 C-0.67 0.67 -0.34 0.34 0 0 Z " fill="#1D7A57" transform="translate(49,120)"/>
<path d="M0 0 C2.95929119 2.75520215 5.03681826 5.46627288 7 9 C6.01 9.33 5.02 9.66 4 10 C0 4.5 0 4.5 0 0 Z " fill="#272726" transform="translate(111,110)"/>
<path d="M0 0 C0 0.99 0 1.98 0 3 C-2.3125 4.75 -2.3125 4.75 -5 6 C-5.99 5.67 -6.98 5.34 -8 5 C-8 4.34 -8 3.68 -8 3 C-5.09451118 0.95830515 -3.59857954 0 0 0 Z " fill="#161615" transform="translate(95,109)"/>
<path d="M0 0 C0.33 0.99 0.66 1.98 1 3 C1.66 3 2.32 3 3 3 C2.67 5.97 2.34 8.94 2 12 C1.01 11.34 0.02 10.68 -1 10 C-0.67 6.7 -0.34 3.4 0 0 Z " fill="#DAE7E2" transform="translate(209,105)"/>
<path d="M0 0 C2.40928735 0.96371494 3.76007009 1.65210163 5.25 3.8125 C6.11081611 6.32321365 6.14647297 8.36348649 6 11 C3.46166551 9.73083275 3.10599099 8.58375191 1.875 6.0625 C1.52179688 5.35222656 1.16859375 4.64195313 0.8046875 3.91015625 C0 2 0 2 0 0 Z " fill="#0F0F0E" transform="translate(142,103)"/>
<path d="M0 0 C2.97 0 5.94 0 9 0 C9 1.65 9 3.3 9 5 C8.67 4.34 8.34 3.68 8 3 C6.10466658 2.53476937 6.10466658 2.53476937 3.9375 2.375 C2.638125 2.25125 1.33875 2.1275 0 2 C0 1.34 0 0.68 0 0 Z M4 3 C6 4 6 4 6 4 Z " fill="#686867" transform="translate(133,83)"/>
<path d="M0 0 C0.33 0 0.66 0 1 0 C1.08159574 4.16138263 0.98248524 7.9472484 0 12 C-0.99 11.34 -1.98 10.68 -3 10 C-2.69201674 8.51988629 -2.378482 7.04092675 -2.0625 5.5625 C-1.88847656 4.73878906 -1.71445312 3.91507812 -1.53515625 3.06640625 C-1 1 -1 1 0 0 Z " fill="#ECF3F0" transform="translate(51,73)"/>
<path d="M0 0 C0 0.66 0 1.32 0 2 C-4.43076923 4.09230769 -4.43076923 4.09230769 -7.3125 3.625 C-7.869375 3.41875 -8.42625 3.2125 -9 3 C-9 2.34 -9 1.68 -9 1 C-2.25 -1.125 -2.25 -1.125 0 0 Z " fill="#298060" transform="translate(159,175)"/>
<path d="M0 0 C3.87132028 0.57352893 6.08172796 2.48704352 9 5 C8.67 5.99 8.34 6.98 8 8 C6.66372225 6.85760183 5.33104612 5.71098945 4 4.5625 C3.2575 3.92441406 2.515 3.28632813 1.75 2.62890625 C1.1725 2.09136719 0.595 1.55382812 0 1 C0 0.67 0 0.34 0 0 Z " fill="#0B714B" transform="translate(72,158)"/>
<path d="M0 0 C3 1 3 1 4.75 3.25 C6.18671298 6.41076857 6.02214896 7.74770785 5 11 C4.731875 10.443125 4.46375 9.88625 4.1875 9.3125 C2.99300335 6.91066602 2.99300335 6.91066602 1.375 4.375 C0 2 0 2 0 0 Z " fill="#0E0E0D" transform="translate(136,102)"/>
<path d="M0 0 C0.66 0.33 1.32 0.66 2 1 C2 3.31 2 5.62 2 8 C1.01 8.33 0.02 8.66 -1 9 C-1.09765625 2.84765625 -1.09765625 2.84765625 -1 1 C-0.67 0.67 -0.34 0.34 0 0 Z " fill="#006E47" transform="translate(196,76)"/>
<path d="M0 0 C3 1 3 1 4.6875 3.9375 C6 7 6 7 6 9 C3 8 3 8 1.3125 5.0625 C0 2 0 2 0 0 Z " fill="#0B714C" transform="translate(52,130)"/>
<path d="M0 0 C4.88926174 5.67785235 4.88926174 5.67785235 5 9 C3.5625 10.75 3.5625 10.75 2 12 C0.70756464 7.8803623 -0.26252625 4.33168317 0 0 Z " fill="#CBCBCA" transform="translate(151,102)"/>
<path d="M0 0 C0.66 0.66 1.32 1.32 2 2 C-0.64 2.33 -3.28 2.66 -6 3 C-6 2.34 -6 1.68 -6 1 C-6.66 0.67 -7.32 0.34 -8 0 C-4.96083486 -0.97687451 -3.01586454 -1.105817 0 0 Z " fill="#D5E4DE" transform="translate(115,16)"/>
<path d="M0 0 C3.26954202 0.56371414 4.82575883 1.49962266 7 4 C5.1875 4.625 5.1875 4.625 3 5 C2.01 4.34 1.02 3.68 0 3 C0 2.01 0 1.02 0 0 Z " fill="#151514" transform="translate(163,115)"/>
<path d="M0 0 C0.99 0.33 1.98 0.66 3 1 C2.1875 3.9375 2.1875 3.9375 1 7 C0.01 7.33 -0.98 7.66 -2 8 C-1.125 1.125 -1.125 1.125 0 0 Z " fill="#30302E" transform="translate(108,106)"/>
<path d="M0 0 C0.99 1.32 1.98 2.64 3 4 C1.68 6.31 0.36 8.62 -1 11 C-1.66 10.67 -2.32 10.34 -3 10 C-2.690625 9.46375 -2.38125 8.9275 -2.0625 8.375 C-0.82172561 5.6015043 -0.4090325 2.99957163 0 0 Z " fill="#D4D4D4" transform="translate(114,97)"/>
<path d="M0 0 C1.04005702 3.38018531 1.08004482 6.4780279 1 10 C0.01 10 -0.98 10 -2 10 C-2.25 3.375 -2.25 3.375 0 0 Z " fill="#F4F4F4" transform="translate(145,92)"/>
<path d="M0 0 C1.5625 1.25 1.5625 1.25 3 3 C2.6875 5.1875 2.6875 5.1875 2 7 C1.34 7 0.68 7 0 7 C0 6.01 0 5.02 0 4 C-0.99 3.67 -1.98 3.34 -3 3 C-3 2.34 -3 1.68 -3 1 C-2.01 0.67 -1.02 0.34 0 0 Z " fill="#D8D8D8" transform="translate(188,168)"/>
<path d="M0 0 C2.88575819 0.39803561 3.82189513 0.79009069 5.75 3.0625 C6.1625 3.701875 6.575 4.34125 7 5 C6.01 5.33 5.02 5.66 4 6 C2.62437146 4.71034824 1.29233607 3.37310707 0 2 C0 1.34 0 0.68 0 0 Z " fill="#2C8060" transform="translate(67,153)"/>
<path d="M0 0 C0.99 0.33 1.98 0.66 3 1 C4.1875 4.5625 4.1875 4.5625 5 8 C3.68 7.67 2.36 7.34 1 7 C0.67 4.69 0.34 2.38 0 0 Z " fill="#2A2A29" transform="translate(145,96)"/>
<path d="M0 0 C1.32 0 2.64 0 4 0 C4 1.65 4 3.3 4 5 C1.69 4.67 -0.62 4.34 -3 4 C-3 3.67 -3 3.34 -3 3 C-1.35 3 0.3 3 2 3 C2 2.34 2 1.68 2 1 C1.34 0.67 0.68 0.34 0 0 Z " fill="#0F0F0E" transform="translate(124,82)"/>
<path d="M0 0 C0.99 0.33 1.98 0.66 3 1 C2.67 3.31 2.34 5.62 2 8 C1.01 7.67 0.02 7.34 -1 7 C-0.67 4.69 -0.34 2.38 0 0 Z " fill="#3E8C6F" transform="translate(47,73)"/>
<path d="M0 0 C1.9451 2.91765 2.45276317 4.62537285 3 8 C2.01 8 1.02 8 0 8 C-0.66 5.69 -1.32 3.38 -2 1 C-1.34 0.67 -0.68 0.34 0 0 Z " fill="#1E7B5A" transform="translate(209,65)"/>
<path d="M0 0 C3.60654039 2.40436026 3.85452932 3.94679607 5 8 C3.68 7.67 2.36 7.34 1 7 C0.67 4.69 0.34 2.38 0 0 Z " fill="#D5D5D5" transform="translate(114,109)"/>
<path d="M0 0 C0.99 0.33 1.98 0.66 3 1 C3.33 2.98 3.66 4.96 4 7 C3.01 7.33 2.02 7.66 1 8 C-0.35439668 5.29120665 -0.06501451 2.99066732 0 0 Z " fill="#3E3E3C" transform="translate(140,96)"/>
<path d="M0 0 C0.33 0 0.66 0 1 0 C1 2.31 1 4.62 1 7 C-0.32 7 -1.64 7 -3 7 C-1.125 2.25 -1.125 2.25 0 0 Z " fill="#3E8C70" transform="translate(189,74)"/>
<path d="M0 0 C0.66 0.66 1.32 1.32 2 2 C1.625 5.125 1.625 5.125 1 8 C0.34 8 -0.32 8 -1 8 C-1.125 2.25 -1.125 2.25 0 0 Z " fill="#0A0A09" transform="translate(124,120)"/>
<path d="M0 0 C1.9375 0.6875 1.9375 0.6875 4 2 C4.75 4.625 4.75 4.625 5 7 C4.34 7 3.68 7 3 7 C0 2.61538462 0 2.61538462 0 0 Z " fill="#181817" transform="translate(119,115)"/>
<path d="M0 0 C0.66 0 1.32 0 2 0 C2 2.64 2 5.28 2 8 C1.01 8 0.02 8 -1 8 C-1.125 2.25 -1.125 2.25 0 0 Z " fill="#F3F3F2" transform="translate(110,107)"/>
<path d="M0 0 C2.64 0 5.28 0 8 0 C8 0.99 8 1.98 8 3 C2.25 2.25 2.25 2.25 0 0 Z " fill="#0E0E0C" transform="translate(167,99)"/>
<path d="M0 0 C0.99 0.33 1.98 0.66 3 1 C3 1.99 3 2.98 3 4 C1.68 4.33 0.36 4.66 -1 5 C-1.33 3.68 -1.66 2.36 -2 1 C-1.34 0.67 -0.68 0.34 0 0 Z " fill="#026D46" transform="translate(106,30)"/>
<path d="M0 0 C0.33 0 0.66 0 1 0 C1.66 2.97 2.32 5.94 3 9 C2.01 8.67 1.02 8.34 0 8 C-0.79953138 4.71303767 -1.09658936 3.28976808 0 0 Z " fill="#0B0B0A" transform="translate(141,123)"/>
<path d="M0 0 C1.65 0.33 3.3 0.66 5 1 C5 1.99 5 2.98 5 4 C2.03 3.505 2.03 3.505 -1 3 C-0.67 2.01 -0.34 1.02 0 0 Z " fill="#1D1D1C" transform="translate(161,121)"/>
<path d="M0 0 C2.62187494 1.04874998 3.79371361 1.64931313 5.25 4.125 C5.4975 4.74375 5.745 5.3625 6 6 C5.34 6.66 4.68 7.32 4 8 C0 2.25 0 2.25 0 0 Z " fill="#E3E3E3" transform="translate(110,115)"/>
<path d="M0 0 C0.33 0 0.66 0 1 0 C1.36923077 4.55384615 1.36923077 4.55384615 -0.5 6.8125 C-0.995 7.204375 -1.49 7.59625 -2 8 C-2.66 7.34 -3.32 6.68 -4 6 C-2.69593116 3.98079663 -1.36176581 1.98075027 0 0 Z " fill="#31312F" transform="translate(142,109)"/>
<path d="M0 0 C0.66 0 1.32 0 2 0 C2.33 1.65 2.66 3.3 3 5 C2.34 5 1.68 5 1 5 C1 6.65 1 8.3 1 10 C0.67 10 0.34 10 0 10 C0 6.7 0 3.4 0 0 Z " fill="#DDE9E5" transform="translate(209,79)"/>
</svg>
